<svg width="35" height="43" viewBox="0 0 35 43" fill="none" xmlns="http://www.w3.org/2000/svg">
<path d="M10.394 19.4838C11.1951 19.3145 11.7147 18.4907 11.5545 17.644C11.3943 16.7972 10.6149 16.248 9.81376 16.4174C8.03183 16.794 6.6864 18.1094 5.97033 19.8756C5.26175 21.6232 5.15662 23.8078 5.7096 26.1473C5.90762 26.9852 6.71074 27.4947 7.5034 27.2854C8.29609 27.0761 8.77814 26.2272 8.58013 25.3895C8.14762 23.5595 8.28905 22.0958 8.68988 21.1072C9.08321 20.1372 9.71003 19.6283 10.394 19.4838ZM4.62259 3.19038C4.46102 6.08 5.39253 9.03094 7.41796 11.2843C3.71457 12.4092 0.769311 15.7401 0.197684 20.0734C-0.450101 24.984 0.50484 29.9814 2.90506 34.2413L3.59742 35.4703C3.62309 35.5157 3.65092 35.5599 3.6808 35.6025L6.47377 39.5775C8.99155 43.1609 13.9521 43.4943 16.8793 40.2769C17.218 39.9046 17.7819 39.9046 18.1208 40.2769C21.0478 43.4943 26.0084 43.1609 28.5263 39.5775L31.3191 35.6025C31.3491 35.5599 31.3769 35.5157 31.4025 35.4703L32.0949 34.2413C34.4952 29.9814 35.4501 24.984 34.8023 20.0734C33.9962 13.9623 28.4693 9.84483 22.7526 11.0966L19.0007 11.9182L18.9946 11.9196C19.0546 10.2938 19.2944 8.54044 19.7664 7.04405C20.3371 5.23457 21.1316 4.1468 22.0139 3.75826C22.7682 3.42612 23.1248 2.51071 22.8106 1.7136C22.4964 0.916479 21.6302 0.539557 20.876 0.871678C18.7995 1.78609 17.6216 3.95573 16.9596 6.05517C16.9286 6.15322 16.8986 6.25187 16.8694 6.35108C16.3964 5.38286 15.7759 4.47418 15.008 3.66263C12.853 1.38492 9.97416 0.334772 7.15704 0.511225C5.78992 0.596845 4.70336 1.74546 4.62259 3.19038ZM7.56607 3.62217C9.49867 3.56638 11.4432 4.31722 12.916 5.87384C14.3885 7.43013 15.0989 9.48475 15.0465 11.5269C14.6887 11.5372 14.3305 11.5199 13.975 11.475L12.7582 11.2085C11.6372 10.8552 10.5817 10.2108 9.69654 9.27521C8.22405 7.71893 7.51362 5.66433 7.56607 3.62217ZM11.6471 14.1587L12.0463 14.2461C12.5197 14.3879 13.0008 14.4929 13.4855 14.5613L15.3992 14.9803C16.785 15.2838 18.2151 15.2838 19.6009 14.9803L23.3528 14.1587C27.3944 13.2737 31.3019 16.1847 31.872 20.5054C32.4268 24.7118 31.6089 28.9924 29.5527 32.6415L28.8989 33.8019L26.1508 37.7131C24.7239 39.744 21.9125 39.9329 20.2534 38.1096C18.7506 36.4574 16.2495 36.4574 14.7465 38.1096C13.0876 39.9329 10.2761 39.744 8.84913 37.7131L6.10104 33.8019L5.44718 32.6415C3.39118 28.9924 2.57319 24.7118 3.12807 20.5054C3.69802 16.1847 7.60552 13.2737 11.6471 14.1587Z" fill="black"/>
</svg>
