<svg width="41" height="45" viewBox="0 0 41 45" fill="none" xmlns="http://www.w3.org/2000/svg">
<path d="M22.7778 10.3604C22.7778 11.7029 21.758 12.7913 20.5 12.7913C19.242 12.7913 18.2222 11.7029 18.2222 10.3604C18.2222 9.0179 19.242 7.92958 20.5 7.92958C21.758 7.92958 22.7778 9.0179 22.7778 10.3604ZM22.8498 0.81766C21.4498 -0.272553 19.5502 -0.272553 18.1502 0.81766L1.24497 13.983C-0.980606 15.7162 0.168146 19.476 2.9233 19.476H3.41667V33.5748C1.38849 34.6813 0 36.933 0 39.5306V43.1769C0 44.1837 0.764855 45 1.70833 45H39.2917C40.2351 45 41 44.1837 41 43.1769V39.5306C41 36.933 39.6115 34.6813 37.5833 33.5748V19.476H38.0767C40.8319 19.476 41.9806 15.7163 39.755 13.983L22.8498 0.81766ZM20.1643 3.76308C20.3642 3.60733 20.6358 3.60733 20.8357 3.76308L36.3303 15.8299H4.66969L20.1643 3.76308ZM34.1667 19.476V32.8457H29.6111V19.476H34.1667ZM26.1944 19.476V32.8457H22.2083V19.476H26.1944ZM18.7917 19.476V32.8457H14.8056V19.476H18.7917ZM6.26389 36.492H34.7361C36.3087 36.492 37.5833 37.8526 37.5833 39.5306V41.3537H3.41667V39.5306C3.41667 37.8526 4.6914 36.492 6.26389 36.492ZM6.83333 32.8457V19.476H11.3889V32.8457H6.83333Z" fill="black"/>
</svg>
