<svg width="26" height="26" viewBox="0 0 26 26" fill="none" xmlns="http://www.w3.org/2000/svg">
<path d="M9.63963 4.28192C12.0036 0.187261 17.2395 -1.21567 21.3342 1.14839C25.4288 3.51243 26.8317 8.74824 24.4676 12.8428L24.1506 13.3921C23.8879 13.8471 23.3061 14.0029 22.8512 13.7403L17.0694 10.4021L14.0599 15.6687C16.4759 15.9547 18.6124 17.2031 20.2023 18.9848C19.536 19.093 18.9444 19.4627 18.5542 20.002C17.0764 18.4695 15.1131 17.5088 13 17.5088C10.8869 17.5088 8.92363 18.4695 7.44582 20.002C7.05514 19.4619 6.46283 19.0927 5.79777 18.9847C7.37073 17.2219 9.47889 15.9812 11.8634 15.6781L15.4218 9.45088L9.67073 6.13049C9.21577 5.86782 9.05988 5.28606 9.32256 4.8311L9.63963 4.28192ZM11.4522 4.96226L13.9456 6.40186C14.623 5.36323 15.308 4.50836 16.1569 3.73651C16.8234 3.13044 17.5744 2.59079 18.4729 2.05505C15.8156 1.47482 12.9834 2.57575 11.4522 4.96226ZM18.821 9.21664C19.5244 7.95208 19.8616 6.94715 19.983 5.97617C20.0814 5.18833 20.0433 4.38348 19.9018 3.42604C18.8641 4.00988 18.0889 4.55108 17.4367 5.14408C16.7609 5.75868 16.1917 6.45182 15.5959 7.35464L18.821 9.21664ZM20.4687 10.168L22.9722 11.6134C24.2953 9.0517 23.7946 5.98956 21.886 3.97897C21.958 4.738 21.9634 5.47047 21.8707 6.21213C21.7106 7.49275 21.2667 8.73899 20.4687 10.168ZM6.29587 21.1975C6.16522 20.791 5.77965 20.5213 5.35294 20.5381C4.92624 20.5548 4.56299 20.8539 4.46462 21.2694C4.19722 22.3989 3.69502 22.9987 3.1437 23.3419C2.56166 23.7041 1.81163 23.8501 0.951219 23.8501C0.42588 23.8501 0 24.276 0 24.8013C0 25.3268 0.42588 25.7525 0.951219 25.7525C1.99325 25.7525 3.14566 25.5816 4.14898 24.9571C4.67226 24.6314 5.12691 24.1999 5.49592 23.6524C7.46364 26.0188 11.0884 26.0068 13 23.6156C14.9451 26.0488 18.6643 26.0185 20.6063 23.5254C21.6812 24.9321 23.3588 25.7525 25.0488 25.7525C25.5741 25.7525 26 25.3268 26 24.8013C26 24.276 25.5741 23.8501 25.0488 23.8501C23.5483 23.8501 22.0245 22.8391 21.5182 21.2067C21.3953 20.8104 21.0296 20.5395 20.6146 20.5373C20.1996 20.5352 19.8312 20.8024 19.7042 21.1975C18.7099 24.2917 14.8725 24.2402 13.9024 21.3299C13.7729 20.9414 13.4094 20.6794 13 20.6794C12.5906 20.6794 12.2271 20.9414 12.0976 21.3299C11.1275 24.2402 7.29012 24.2917 6.29587 21.1975Z" fill="#212121"/>
</svg>
