<svg width="62" height="77" viewBox="0 0 62 77" fill="none" xmlns="http://www.w3.org/2000/svg">
<path d="M24.5806 25.601L28.7154 17.1285C29.6499 15.2134 32.3505 15.2134 33.285 17.1285L37.4198 25.601L46.6653 26.9596C48.7553 27.2668 49.5895 29.8641 48.0774 31.3546L41.3871 37.9495L42.9668 47.2618C43.3237 49.3666 41.1387 50.9721 39.2697 49.9781L31 45.5815L22.7307 49.9781C20.8614 50.9721 18.6767 49.3666 19.0337 47.2618L20.613 37.9495L13.9228 31.3546C12.4106 29.8641 13.2451 27.2668 15.335 26.9596L24.5806 25.601ZM28.5576 29.0966C28.1863 29.8571 27.469 30.3842 26.639 30.5062L21.1769 31.3087L25.1292 35.2048C25.7296 35.7968 26.0039 36.6499 25.8619 37.4856L24.9289 42.9872L29.8145 40.3895C30.5566 39.9951 31.4434 39.9951 32.1859 40.3895L37.0711 42.9872L36.1381 37.4856C35.9964 36.6499 36.2704 35.7968 36.8708 35.2048L40.8234 31.3087L35.3614 30.5062C34.5314 30.3842 33.814 29.8571 33.4428 29.0966L31 24.0913L28.5576 29.0966ZM9.39394 0.492188C4.20582 0.492188 0 4.74549 0 9.99219V66.9922C0 72.2388 4.20582 76.4922 9.39394 76.4922H59.1818C60.7382 76.4922 62 75.2161 62 73.6422C62 72.0682 60.7382 70.7922 59.1818 70.7922H9.39394C7.31871 70.7922 5.63636 69.0909 5.63636 66.9922H59.1818C60.7382 66.9922 62 65.7161 62 64.1422V9.99219C62 4.74549 57.7941 0.492188 52.6061 0.492188H9.39394ZM56.3636 61.2922H5.63636V9.99219C5.63636 7.89352 7.31871 6.19219 9.39394 6.19219H52.6061C54.6814 6.19219 56.3636 7.89352 56.3636 9.99219V61.2922Z" fill="black"/>
</svg>
