<svg width="26" height="24" viewBox="0 0 26 24" fill="none" xmlns="http://www.w3.org/2000/svg">
<path d="M2.60134 0H3.90201C5.27268 0 6.39685 1.08853 6.49621 2.46775L6.50335 2.66667V21.3333C6.50335 22.7384 5.44148 23.8908 4.09605 23.9927L3.90201 24H2.60134C1.23067 24 0.106499 22.9115 0.00714076 21.5323L0 21.3333V2.66667C0 1.26157 1.06187 0.109173 2.40729 0.00732009L2.60134 0ZM10.4054 0H11.706C13.0767 0 14.2008 1.08853 14.3002 2.46775L14.3074 2.66667V21.3333C14.3074 22.7384 13.2455 23.8908 11.9001 23.9927L11.706 24H10.4054C9.03468 24 7.91051 22.9115 7.81116 21.5323L7.80402 21.3333V2.66667C7.80402 1.26157 8.86588 0.109173 10.2113 0.00732009L10.4054 0ZM19.4766 2.66733C20.5685 2.66733 21.5683 3.3748 21.9349 4.46181L21.996 4.67L25.9175 20.3313C26.259 21.6919 25.51 23.0792 24.2308 23.5203L24.0446 23.5767L22.7842 23.9087C22.5683 23.9647 22.3498 23.9927 22.1365 23.9927C21.0457 23.9927 20.0449 23.284 19.6794 22.1968L19.6184 21.9887L15.6956 6.32867C15.3554 4.96685 16.1032 3.58073 17.3833 3.13979L17.5698 3.08333L18.8289 2.75133C19.0448 2.694 19.2633 2.66733 19.4766 2.66733ZM3.90201 2H2.60134C2.28225 2 2.01658 2.23704 1.96149 2.54724L1.951 2.66667V21.3333C1.951 21.6592 2.18121 21.9325 2.48449 21.9892L2.60134 22H3.90201C4.2211 22 4.48676 21.7629 4.54186 21.4528L4.55234 21.3333V2.66667C4.55234 2.34075 4.32214 2.06749 4.01886 2.01079L3.90201 2ZM11.706 2H10.4054C10.0863 2 9.8206 2.23704 9.7655 2.54724L9.75502 2.66667V21.3333C9.75502 21.6592 9.98522 21.9325 10.2885 21.9892L10.4054 22H11.706C12.0251 22 12.2908 21.7629 12.3458 21.4528L12.3564 21.3333V2.66667C12.3564 2.34075 12.1261 2.06749 11.8228 2.01079L11.706 2ZM19.4779 4.66733L19.3954 4.67249L19.314 4.68867L18.055 5.01933C17.8274 5.07933 17.7077 5.23667 17.6557 5.32733C17.6151 5.39773 17.5571 5.52957 17.5654 5.69896L17.5854 5.83267L21.5083 21.4913C21.5941 21.8353 21.8946 21.9927 22.1365 21.9927L22.2178 21.9875L22.2991 21.9713L23.5594 21.6393C23.8692 21.5588 24.0691 21.2611 24.0466 20.9469L24.0277 20.8287L20.1061 5.16733C20.019 4.82467 19.7198 4.66733 19.4779 4.66733Z" fill="#212121"/>
</svg>
