<svg width="44" height="48" viewBox="0 0 44 48" fill="none" xmlns="http://www.w3.org/2000/svg">
<path d="M5.5 0.492188C2.46244 0.492188 0 2.99727 0 6.08743V39.6589C0 42.749 2.46244 45.2541 5.5 45.2541H21.5811C20.643 44.2597 19.8427 43.1301 19.2108 41.8969H5.5C4.28498 41.8969 3.3 40.895 3.3 39.6589H18.2897C17.9498 38.5886 17.7287 37.4644 17.6416 36.3017H3.3V6.08743C3.3 4.85137 4.28498 3.84933 5.5 3.84933H30.8C32.0151 3.84933 33 4.85137 33 6.08743V20.6773C34.1429 20.766 35.248 20.9909 36.3 21.3367V6.08743C36.3 2.99727 33.8375 0.492188 30.8 0.492188H5.5ZM44 35.1827C44 28.3842 38.5827 22.8731 31.9 22.8731C25.2173 22.8731 19.8 28.3842 19.8 35.1827C19.8 41.9811 25.2173 47.4922 31.9 47.4922C38.5827 47.4922 44 41.9811 44 35.1827ZM30.6104 29.8045L36.7847 33.9233C36.9761 34.0486 37.1265 34.2151 37.2359 34.4226C37.3452 34.6254 37.4 34.8474 37.4 35.0887C37.4 35.3201 37.3476 35.5421 37.2427 35.7545C37.138 35.9669 36.9921 36.1356 36.8051 36.2612L30.6308 40.5463C30.5169 40.6235 30.4005 40.6814 30.2821 40.7199C30.1682 40.7587 30.045 40.7779 29.9127 40.7779C29.7396 40.7779 29.5733 40.7416 29.4138 40.6694C29.2541 40.5921 29.1128 40.4908 28.9898 40.3654C28.8713 40.2349 28.7756 40.0854 28.7025 39.9165C28.6341 39.7477 28.6 39.5716 28.6 39.388V30.9773C28.6 30.7891 28.6341 30.6105 28.7025 30.4415C28.7756 30.2727 28.8713 30.1255 28.9898 29.9999C29.1082 29.8746 29.2472 29.7757 29.4067 29.7031C29.5665 29.6259 29.735 29.5874 29.9127 29.5874C30.1682 29.5874 30.4005 29.6597 30.6104 29.8045ZM6.6 9.44457C6.6 8.20851 7.58498 7.20647 8.8 7.20647H26.4C27.6151 7.20647 28.6 8.20851 28.6 9.44457V13.9208C28.6 15.1568 27.6151 16.1589 26.4 16.1589H8.8C7.58498 16.1589 6.6 15.1568 6.6 13.9208V9.44457ZM9.9 12.8017H25.3V10.5636H9.9V12.8017Z" fill="black"/>
</svg>
