<svg width="72" height="77" viewBox="0 0 72 77" fill="none" xmlns="http://www.w3.org/2000/svg">
<path d="M5.53846 9.04249C5.53846 4.32029 9.25795 0.492188 13.8462 0.492188H48.9231C53.5111 0.492188 57.2308 4.32029 57.2308 9.04249V17.785L51.6923 24.909V9.04249C51.6923 7.46843 50.4524 6.19239 48.9231 6.19239H13.8462C12.3168 6.19239 11.0769 7.46843 11.0769 9.04249V11.8926H13.8462C15.3755 11.8926 16.6154 13.1686 16.6154 14.7427C16.6154 16.3167 15.3755 17.5928 13.8462 17.5928H11.0769V29.9432H13.8462C15.3755 29.9432 16.6154 31.2193 16.6154 32.7933C16.6154 34.3673 15.3755 35.6434 13.8462 35.6434H11.0769V47.9939H13.8462C15.3755 47.9939 16.6154 49.2699 16.6154 50.8439C16.6154 52.418 15.3755 53.694 13.8462 53.694H11.0769V56.5441C11.0769 58.1182 12.3168 59.3942 13.8462 59.3942H24.882L20.4504 65.0945H13.8462C9.25795 65.0945 5.53846 61.2662 5.53846 56.5441V53.694H2.76923C1.23984 53.694 0 52.418 0 50.8439C0 49.2699 1.23984 47.9939 2.76923 47.9939H5.53846V35.6434H2.76923C1.23984 35.6434 0 34.3673 0 32.7933C0 31.2193 1.23984 29.9432 2.76923 29.9432H5.53846V17.5928H2.76923C1.23984 17.5928 0 16.3167 0 14.7427C0 13.1686 1.23984 11.8926 2.76923 11.8926H5.53846V9.04249ZM23.0769 19.4929C21.5475 19.4929 20.3077 20.7689 20.3077 22.343C20.3077 23.917 21.5475 25.1931 23.0769 25.1931H39.6923C41.2217 25.1931 42.4615 23.917 42.4615 22.343C42.4615 20.7689 41.2217 19.4929 39.6923 19.4929H23.0769ZM60.9231 42.7728C60.9231 40.9765 58.725 40.1834 57.6351 41.5861L41.7681 62.0084C40.8015 63.2525 41.6622 65.0952 43.21 65.0952H58.1538C59.6832 65.0952 60.9231 63.8191 60.9231 62.2451V42.7728ZM55.5349 59.5497H50.5776L55.5349 53.1693V59.5497ZM72 15.7027C72 12.1107 67.605 10.5239 65.4247 13.3285L21.1188 70.3177C19.1845 72.8057 20.9057 76.4922 24.0018 76.4922H63.6923C68.2804 76.4922 72 72.6639 72 67.9419V15.7027ZM66.4615 21.1186V67.9419C66.4615 69.5159 65.2217 70.792 63.6923 70.792H27.8434L66.4615 21.1186Z" fill="black"/>
</svg>
