<svg width="30" height="28" viewBox="0 0 30 28" fill="none" xmlns="http://www.w3.org/2000/svg">
<path d="M18.2849 0.370487C17.0527 -0.123496 15.6746 -0.123496 14.4424 0.370487L4.21707 4.47011C3.31651 4.83117 2.72727 5.69621 2.72727 6.65723V12.6259C3.36209 12.3049 4.04925 12.0708 4.77273 11.9395V7.43267L15.3413 11.4973L15.3409 24.9996L15.6646 25.3199C15.9597 25.6116 16.1614 25.9607 16.2695 26.331C16.9534 26.3434 17.6392 26.2202 18.2849 25.9614L28.5102 21.8617C29.4108 21.5007 30 20.6356 30 19.6746V6.65723C30 5.69621 29.4108 4.83117 28.5102 4.47011L18.2849 0.370487ZM15.211 2.24515C15.9502 1.94876 16.7771 1.94876 17.5163 2.24515L26.505 5.84895L22.8652 7.23882L12.6013 3.2914L15.211 2.24515ZM9.83825 4.39919L20.0333 8.32014L16.3654 9.72072L6.25949 5.83403L9.83825 4.39919ZM27.7417 19.9871L17.5163 24.0867C17.4735 24.1039 17.4303 24.1201 17.3868 24.1353V11.4992L27.9545 7.46387V19.6746C27.9545 19.8119 27.8704 19.9354 27.7417 19.9871ZM6.13636 25.3029C7.46164 25.3029 8.6888 24.8874 9.69191 24.181L13.2541 27.7038C13.6535 28.0988 14.301 28.0988 14.7004 27.7038C15.0998 27.3088 15.0998 26.6685 14.7004 26.2735L11.1383 22.7506C11.8526 21.7586 12.2727 20.545 12.2727 19.2343C12.2727 15.8827 9.52538 13.1657 6.13636 13.1657C2.74735 13.1657 0 15.8827 0 19.2343C0 22.5859 2.74735 25.3029 6.13636 25.3029ZM6.13636 23.28C3.87702 23.28 2.04545 21.4688 2.04545 19.2343C2.04545 16.9998 3.87702 15.1886 6.13636 15.1886C8.3957 15.1886 10.2273 16.9998 10.2273 19.2343C10.2273 21.4688 8.3957 23.28 6.13636 23.28Z" fill="#212121"/>
</svg>
