<svg width="77" height="77" viewBox="0 0 77 77" fill="none" xmlns="http://www.w3.org/2000/svg">
<path d="M69.5123 34.274C73.6477 34.274 77 37.5818 77 41.6621V69.104C77 73.1844 73.6477 76.4922 69.5123 76.4922H50.2582C46.1229 76.4922 42.7705 73.1844 42.7705 69.104V41.6621C42.7705 37.5818 46.1229 34.274 50.2582 34.274H69.5123ZM26.8034 51.2136C30.9387 51.2136 34.291 54.5214 34.291 58.6018V69.104C34.291 73.1844 30.9387 76.4922 26.8034 76.4922H7.4877C3.35235 76.4922 0 73.1844 0 69.104V58.6018C0 54.5214 3.35235 51.2136 7.4877 51.2136H26.8034ZM69.5123 40.6067H50.2582C49.6673 40.6067 49.1886 41.0791 49.1886 41.6621V69.104C49.1886 69.687 49.6673 70.1595 50.2582 70.1595H69.5123C70.1032 70.1595 70.582 69.687 70.582 69.104V41.6621C70.582 41.0791 70.1032 40.6067 69.5123 40.6067ZM26.8034 57.5463H7.4877C6.89694 57.5463 6.41803 58.0188 6.41803 58.6018V69.104C6.41803 69.687 6.89694 70.1595 7.4877 70.1595H26.8034C27.3942 70.1595 27.8731 69.687 27.8731 69.104V58.6018C27.8731 58.0188 27.3942 57.5463 26.8034 57.5463ZM26.7418 0.492188C30.8771 0.492188 34.2294 3.79999 34.2294 7.88038V35.3222C34.2294 39.1987 31.204 42.3777 27.3559 42.6859L26.7418 42.7104H7.4877C3.35235 42.7104 0 39.4026 0 35.3222V7.88038C0 3.79999 3.35235 0.492188 7.4877 0.492188H26.7418ZM26.7418 6.82492H7.4877C6.89694 6.82492 6.41803 7.29747 6.41803 7.88038V35.3222C6.41803 35.9053 6.89694 36.3777 7.4877 36.3777H26.7418L26.987 36.3498C27.4596 36.2405 27.8114 35.8217 27.8114 35.3222V7.88038C27.8114 7.29747 27.3325 6.82492 26.7418 6.82492ZM69.5123 0.492188C73.6477 0.492188 77 3.79999 77 7.88038V18.4349C77 22.5153 73.6477 25.8231 69.5123 25.8231H50.2582C46.1229 25.8231 42.7705 22.5153 42.7705 18.4349V7.88038C42.7705 3.79999 46.1229 0.492188 50.2582 0.492188H69.5123ZM50.2582 6.82492C49.6673 6.82492 49.1886 7.29747 49.1886 7.88038V18.4349C49.1886 19.0178 49.6673 19.4904 50.2582 19.4904H69.5123C70.1032 19.4904 70.582 19.0178 70.582 18.4349V7.88038C70.582 7.29747 70.1032 6.82492 69.5123 6.82492H50.2582Z" fill="black"/>
</svg>
