<svg width="76" height="78" viewBox="0 0 76 78" fill="none" xmlns="http://www.w3.org/2000/svg">
<path d="M60.9112 3.11746L73.4089 15.7808C76.8637 19.2812 76.8637 24.9565 73.4089 28.4569L63.2478 38.7506C67.5058 39.3976 70.7707 43.1195 70.7707 47.6144V68.5288C70.7707 73.479 66.8099 77.4922 61.9244 77.4922H8.84634C3.96064 77.4922 0 73.479 0 68.5288V14.7486C0 9.79826 3.96064 5.78523 8.84634 5.78523H29.4878C33.9263 5.78523 37.6017 9.09752 38.237 13.4157L48.4005 3.11746C51.8553 -0.382904 57.4564 -0.382904 60.9112 3.11746ZM5.89756 68.5288C5.89756 70.1789 7.21779 71.5166 8.84634 71.5166L32.4327 71.5138L32.4366 44.6266L5.89756 44.6238V68.5288ZM38.3302 71.5138L61.9244 71.5166C63.5529 71.5166 64.8732 70.1789 64.8732 68.5288V47.6144C64.8732 45.9639 63.5529 44.6266 61.9244 44.6266L38.3302 44.6238V71.5138ZM29.4878 11.7608H8.84634C7.21779 11.7608 5.89756 13.0985 5.89756 14.7486V38.6482H32.4366V14.7486C32.4366 13.0985 31.1163 11.7608 29.4878 11.7608ZM38.3341 30.9198V38.651L45.9617 38.6482L38.3341 30.9198ZM52.5705 7.34282L40.0727 20.0062C38.9212 21.1729 38.9212 23.0647 40.0727 24.2315L52.5705 36.8946C53.7221 38.0614 55.5892 38.0614 56.7408 36.8946L69.2389 24.2315C70.3905 23.0647 70.3905 21.1729 69.2389 20.0062L56.7408 7.34282C55.5892 6.17603 53.7221 6.17603 52.5705 7.34282Z" fill="black"/>
</svg>
