<svg width="26" height="26" viewBox="0 0 26 26" fill="none" xmlns="http://www.w3.org/2000/svg">
<path d="M6.68469 1.30821C7.76653 0.466019 9.18182 0 10.5884 0C11.4292 0 12.1104 0.28892 12.6263 0.747823C12.7657 0.872016 12.8898 1.00541 13 1.14395C13.1102 1.00541 13.2342 0.872016 13.3738 0.747823C13.8895 0.28892 14.5707 0 15.4115 0C16.8182 0 18.2335 0.466019 19.3153 1.30821C20.1569 1.96343 20.8167 2.86665 21.0752 3.95918C21.6218 4.04954 22.1074 4.32815 22.5002 4.69668C23.1256 5.28356 23.5704 6.13142 23.8505 7.00406C24.1348 7.88986 24.2771 8.88564 24.2342 9.84149C24.2122 10.3308 24.1406 10.8296 24.0033 11.3071C24.0319 11.3195 24.0604 11.3323 24.0888 11.3456C24.5704 11.5727 24.9596 11.9283 25.2524 12.4001C25.8054 13.2908 26 14.5742 26 16.2092C26 18.0883 25.2818 19.3643 24.3579 20.1568C23.8218 20.6167 23.2302 20.9017 22.7064 21.0539C22.5249 21.9549 22.071 22.9702 21.3807 23.834C20.4404 25.0103 18.9789 26.0044 17.0137 26.0044C15.4393 26.0044 14.1999 25.1338 13.4038 24.299C13.2582 24.1463 13.1233 23.9908 13 23.8362C12.8766 23.9908 12.7418 24.1463 12.5961 24.299C11.8 25.1338 10.5607 26.0044 8.98625 26.0044C7.02109 26.0044 5.55963 25.0103 4.61937 23.834C3.92894 22.9702 3.47511 21.9549 3.29364 21.0539C2.76978 20.9017 2.17814 20.6167 1.64211 20.1568C0.718255 19.3643 0 18.0883 0 16.2092C0 14.5742 0.194556 13.2908 0.747563 12.4001C1.04044 11.9283 1.42969 11.5727 1.91121 11.3456C1.93958 11.3323 1.96807 11.3195 1.99667 11.3071C1.85943 10.8296 1.78782 10.3308 1.76582 9.84149C1.72287 8.88564 1.86514 7.88986 2.14947 7.00406C2.42958 6.13142 2.87433 5.28356 3.49976 4.69668C3.89249 4.32815 4.37821 4.04954 4.92478 3.95918C5.18329 2.86665 5.84299 1.96343 6.68469 1.30821ZM7.88332 2.84794C7.17337 3.40062 6.75765 4.13685 6.75765 4.98449C6.75765 5.29815 6.60686 5.5927 6.35237 5.77605C6.0979 5.95942 5.77078 6.00925 5.47324 5.90999C5.2945 5.85036 5.1064 5.8649 4.83498 6.11958C4.53417 6.40185 4.22794 6.91331 4.00739 7.60042C3.79106 8.27439 3.683 9.03881 3.71514 9.75387C3.74769 10.4779 3.91986 11.0776 4.19083 11.4844C4.23617 11.5526 4.27217 11.625 4.29872 11.7001H5.70636C7.66306 11.7001 9.2657 13.216 9.40411 15.1373C10.3629 15.5208 11.0401 16.4582 11.0401 17.5539C11.0401 18.9909 9.87531 20.1557 8.43842 20.1557C7.00154 20.1557 5.83671 18.9909 5.83671 17.5539C5.83671 16.4694 6.50032 15.5398 7.44364 15.1492C7.3187 14.3018 6.58849 13.6514 5.70636 13.6514H2.32414C2.3132 13.6514 2.30231 13.6512 2.29146 13.6509C2.09728 14.1035 1.95128 14.8859 1.95128 16.2092C1.95128 17.5373 2.43463 18.2658 2.91263 18.6759C3.43718 19.1259 4.01304 19.2425 4.17989 19.2425C4.71873 19.2425 5.15553 19.6793 5.15553 20.2181C5.15553 20.7633 5.45707 21.7567 6.14359 22.6157C6.80546 23.4437 7.74719 24.0532 8.98625 24.0532C9.815 24.0532 10.5783 23.5874 11.184 22.9524C11.4791 22.643 11.7081 22.3217 11.8584 22.061C11.9337 21.9304 11.9824 21.8269 12.0092 21.7582L12.0159 21.7405V18.5464C12.0158 18.5408 12.0158 18.5352 12.0158 18.5296C12.0158 18.524 12.0158 18.5184 12.0159 18.5128V9.42357H10.851C10.465 10.3771 9.5303 11.0497 8.43842 11.0497C7.00154 11.0497 5.83671 9.88483 5.83671 8.44794C5.83671 7.01106 7.00154 5.84623 8.43842 5.84623C9.53028 5.84623 10.465 6.51883 10.851 7.47229H12.0159V4.18582L12.0157 4.17107C12.0153 4.15621 12.0145 4.13104 12.0127 4.09707C12.009 4.02884 12.0014 3.92677 11.9859 3.80252C11.9543 3.54897 11.8925 3.22827 11.7776 2.92149C11.661 2.61062 11.5095 2.36604 11.3292 2.20567C11.1692 2.06325 10.9491 1.95128 10.5884 1.95128C9.59174 1.95128 8.60385 2.28704 7.88332 2.84794ZM13.9841 19.5052V21.7405L13.9908 21.7582C14.0177 21.8269 14.0663 21.9304 14.1415 22.061C14.2918 22.3217 14.5209 22.643 14.8159 22.9524C15.4217 23.5874 16.185 24.0532 17.0137 24.0532C18.2527 24.0532 19.1946 23.4437 19.8564 22.6157C20.5429 21.7567 20.8444 20.7633 20.8444 20.2181C20.8444 19.6793 21.2813 19.2425 21.8201 19.2425C21.987 19.2425 22.5627 19.1259 23.0874 18.6759C23.5653 18.2658 24.0487 17.5373 24.0487 16.2092C24.0487 14.6373 23.8427 13.8288 23.5947 13.4293C23.487 13.2559 23.3757 13.1667 23.2564 13.1105C23.1243 13.0482 22.9271 13.0009 22.6212 13.0009C22.2615 13.0009 21.9309 12.803 21.761 12.4858C21.5913 12.1687 21.6097 11.7839 21.8092 11.4844C22.0801 11.0776 22.2524 10.4779 22.2849 9.75387C22.317 9.03881 22.2089 8.27439 21.9926 7.60042C21.7721 6.91331 21.4659 6.40185 21.165 6.11958C20.8936 5.8649 20.7055 5.85036 20.5268 5.90999C20.2293 6.00925 19.9021 5.95942 19.6477 5.77605C19.3931 5.5927 19.2423 5.29815 19.2423 4.98449C19.2423 4.13685 18.8266 3.40062 18.1167 2.84794C17.3961 2.28704 16.4083 1.95128 15.4115 1.95128C15.051 1.95128 14.8308 2.06325 14.6707 2.20567C14.4905 2.36604 14.3389 2.61062 14.2224 2.92149C14.1076 3.22827 14.0458 3.54897 14.014 3.80252C13.9986 3.92677 13.991 4.02884 13.9874 4.09707C13.9855 4.13104 13.9848 4.15621 13.9844 4.17107L13.9841 4.18582V17.5539H14.8126C15.7826 17.5539 16.5688 16.7677 16.5688 15.7978V13.4622C15.6153 13.0763 14.9427 12.1415 14.9427 11.0497C14.9427 9.61277 16.1075 8.44794 17.5444 8.44794C18.9814 8.44794 20.1461 9.61277 20.1461 11.0497C20.1461 12.1415 19.4735 13.0763 18.5201 13.4622V15.7978C18.5201 17.8453 16.8602 19.5052 14.8126 19.5052H13.9841ZM8.43842 7.79752C8.0792 7.79752 7.78799 8.08873 7.78799 8.44794C7.78799 8.80716 8.0792 9.09837 8.43842 9.09837C8.79764 9.09837 9.08885 8.80716 9.08885 8.44794C9.08885 8.08873 8.79764 7.79752 8.43842 7.79752ZM7.78799 17.5539C7.78799 17.9131 8.0792 18.2044 8.43842 18.2044C8.79764 18.2044 9.08885 17.9131 9.08885 17.5539C9.08885 17.1948 8.79764 16.9035 8.43842 16.9035C8.0792 16.9035 7.78799 17.1948 7.78799 17.5539ZM16.894 11.0497C16.894 11.4088 17.1851 11.7001 17.5444 11.7001C17.9036 11.7001 18.1949 11.4088 18.1949 11.0497C18.1949 10.6905 17.9036 10.3992 17.5444 10.3992C17.1851 10.3992 16.894 10.6905 16.894 11.0497Z" fill="#212121"/>
</svg>
