<svg width="26" height="26" viewBox="0 0 26 26" fill="none" xmlns="http://www.w3.org/2000/svg">
<path d="M4.64738 0.096216C4.98519 0.258533 5.20003 0.600064 5.20003 0.974775C5.20003 2.0533 5.60577 2.67426 6.1141 3.43048L6.15106 3.48542C6.58336 4.12752 7.15003 4.9692 7.15003 6.1735C7.15003 7.40236 6.5297 8.48639 5.58502 9.12964C5.83356 9.33795 6.05377 9.59487 6.24296 9.90101C6.86145 10.9017 7.15003 12.4308 7.15003 14.6278C7.15003 16.853 6.85107 19.5251 6.36406 21.6584C6.12191 22.7192 5.82199 23.6977 5.46356 24.4332C5.2858 24.7979 5.06935 25.1542 4.79984 25.4328C4.5333 25.7082 4.12148 26 3.57502 26C3.02856 26 2.61673 25.7082 2.35019 25.4328C2.08069 25.1542 1.86424 24.7979 1.68647 24.4332C1.32805 23.6977 1.02812 22.7192 0.785971 21.6584C0.298962 19.5251 0 16.853 0 14.6278C0 12.4308 0.288589 10.9017 0.90708 9.90101C1.09627 9.59487 1.31648 9.33795 1.56501 9.12964C0.620337 8.48639 0 7.40236 0 6.1735C0 5.69496 0.000441983 4.87236 0.498435 3.81025C0.985782 2.77082 1.91187 1.57653 3.61594 0.213616C3.90861 -0.0204693 4.30957 -0.0661013 4.64738 0.096216ZM1.95001 6.17186V6.1735C1.95001 7.07074 2.67755 7.7981 3.57502 7.7981C4.47249 7.7981 5.20003 7.07074 5.20003 6.1735C5.20003 5.60289 4.95976 5.20838 4.4956 4.51789L4.47972 4.49425C4.18219 4.05172 3.83077 3.52905 3.57997 2.85613C2.8737 3.57411 2.48366 4.16938 2.26408 4.63769C1.95001 5.30756 1.95001 5.78423 1.95001 6.17186ZM2.56599 10.9258C2.24345 11.4476 1.95001 12.5179 1.95001 14.6278C1.95001 16.7094 2.23307 19.2359 2.68709 21.2246C2.91545 22.2249 3.17577 23.0382 3.43948 23.5793C3.48802 23.6789 3.5335 23.7626 3.57502 23.8321C3.61654 23.7626 3.66201 23.6789 3.71056 23.5793C3.97426 23.0382 4.23459 22.2249 4.46295 21.2246C4.91696 19.2359 5.20003 16.7094 5.20003 14.6278C5.20003 12.5179 4.90659 11.4476 4.58404 10.9258C4.43727 10.6882 4.29157 10.5758 4.16139 10.5126C4.02121 10.4446 3.8359 10.4038 3.57502 10.4038C3.31413 10.4038 3.12883 10.4446 2.98865 10.5126C2.85847 10.5758 2.71276 10.6882 2.56599 10.9258ZM10.4 16.788C9.70015 16.6706 9.03194 16.4601 8.40852 16.1696C8.43579 15.6415 8.44996 15.1244 8.44996 14.6278C8.44996 14.3993 8.44703 14.1751 8.44092 13.9555C9.02736 14.3494 9.68908 14.6401 10.4 14.8014V11.0473C10.4 9.9706 11.273 9.09777 12.3499 9.09777H17.55C17.55 5.8677 14.9308 3.2492 11.6999 3.2492C10.363 3.2492 9.13085 3.69757 8.14566 4.45209C7.88627 3.73412 7.51554 3.18416 7.25761 2.80152L7.20526 2.72377C8.47573 1.82669 10.0263 1.29968 11.6999 1.29968C16.0078 1.29968 19.5 4.791 19.5 9.09777H24.05C25.127 9.09777 26 9.9706 26 11.0473V22.7444C26 23.8211 25.127 24.6939 24.05 24.6939H12.3499C11.273 24.6939 10.4 23.8211 10.4 22.7444V16.788ZM12.3499 16.8692V22.7444H24.05V11.0473H19.2543C18.4406 14.2081 15.6945 16.5933 12.3499 16.8692ZM17.2172 11.0473H12.3499V14.9106C14.6108 14.6608 16.4833 13.1229 17.2172 11.0473Z" fill="#212121"/>
</svg>
