<svg width="48" height="47" viewBox="0 0 48 47" fill="none" xmlns="http://www.w3.org/2000/svg">
<path d="M32.4 22.9125C32.4 21.9391 31.5941 21.15 30.6 21.15C29.6059 21.15 28.8 21.9391 28.8 22.9125V27.6125C28.8 28.5859 29.6059 29.375 30.6 29.375C31.5941 29.375 32.4 28.5859 32.4 27.6125V22.9125ZM23.4 21.15C24.3941 21.15 25.2 21.9391 25.2 22.9125V27.6125C25.2 28.5859 24.3941 29.375 23.4 29.375C22.4059 29.375 21.6 28.5859 21.6 27.6125V22.9125C21.6 21.9391 22.4059 21.15 23.4 21.15ZM18 22.9125C18 21.9391 17.1941 21.15 16.2 21.15C15.2059 21.15 14.4 21.9391 14.4 22.9125V27.6125C14.4 28.5859 15.2059 29.375 16.2 29.375C17.1941 29.375 18 28.5859 18 27.6125V22.9125ZM9 31.725C9.9941 31.725 10.8 32.5141 10.8 33.4875V39.3625C10.8 40.3359 9.9941 41.125 9 41.125C8.0059 41.125 7.2 40.3359 7.2 39.3625V33.4875C7.2 32.5141 8.0059 31.725 9 31.725ZM40.8 33.4875C40.8 32.5141 39.9941 31.725 39 31.725C38.0059 31.725 37.2 32.5141 37.2 33.4875V39.3625C37.2 40.3359 38.0059 41.125 39 41.125C39.9941 41.125 40.8 40.3359 40.8 39.3625V33.4875ZM23.4 0H32.4C33.0626 0 33.6 0.526071 33.6 1.175V5.875C33.6 6.52393 33.0626 7.05 32.4 7.05H25.2V9.44131C33.9182 10.0438 40.8 17.16 40.8 25.85H42.6C45.5822 25.85 48 28.2174 48 31.1375V45.2375C48 46.2109 47.1941 47 46.2 47H1.8C0.805896 47 0 46.2109 0 45.2375V31.1375C0 28.2174 2.41766 25.85 5.4 25.85H7.2C7.2 17.5628 13.4585 10.7069 21.6 9.56659V1.7625C21.6 0.789107 22.4059 0 23.4 0ZM24 12.925C16.7098 12.925 10.8 18.7117 10.8 25.85V27.6125C10.8 28.5859 9.9941 29.375 9 29.375H5.4C4.4059 29.375 3.6 30.1641 3.6 31.1375V43.475H18V37.0125C18 36.0391 18.8059 35.25 19.8 35.25H28.2C29.1941 35.25 30 36.0391 30 37.0125V43.475H44.4V31.1375C44.4 30.1641 43.5941 29.375 42.6 29.375H39C38.0059 29.375 37.2 28.5859 37.2 27.6125V25.85C37.2 18.7117 31.2902 12.925 24 12.925ZM26.4 38.775H21.6V43.475H26.4V38.775Z" fill="black"/>
</svg>
