<svg width="40" height="46" viewBox="0 0 40 51" fill="none" xmlns="http://www.w3.org/2000/svg">
<path d="M20 0.492188C31.0458 0.492188 40 8.60757 40 18.6184C40 23.8589 37.5153 28.6684 32.6535 32.9742C32.4414 33.1622 32.277 33.3885 32.1705 33.6375L32.0839 33.8933L28.9636 46.1331C28.3492 48.5431 26.0786 50.2889 23.3937 50.4757L22.9159 50.4922H17.085C14.3551 50.4922 11.9667 48.8793 11.1622 46.5499L11.0369 46.1316L7.92088 33.8938C7.83183 33.544 7.63388 33.2247 7.35051 32.974C2.71765 28.8732 0.242152 24.3156 0.0169109 19.3641L0 18.6184L0.0107035 18.0201C0.359007 8.2862 9.1752 0.492188 20 0.492188ZM25.8345 41.7401H14.1628L15.069 45.2883C15.2637 46.0541 15.9606 46.6189 16.8003 46.7242L17.085 46.7419H22.9159C23.7829 46.7419 24.5465 46.2539 24.8488 45.5363L24.9319 45.2888L25.8345 41.7401ZM20 4.24245C11.4433 4.24245 4.46913 10.3829 4.14938 18.067L4.13793 18.6184L4.15647 19.311C4.36651 23.2196 6.36474 26.8593 10.2417 30.291C10.9703 30.9361 11.5108 31.7319 11.8185 32.607L11.9529 33.0507L13.2083 37.9898H26.789L28.0521 33.049C28.2811 32.1504 28.7498 31.3191 29.4135 30.6266L29.7617 30.292C33.6364 26.8603 35.6337 23.2203 35.8436 19.3111L35.8621 18.6184L35.8505 18.067C35.5308 10.3829 28.5567 4.24245 20 4.24245Z" fill="black"/>
</svg>
