<svg width="26" height="26" viewBox="0 0 26 26" fill="none" xmlns="http://www.w3.org/2000/svg">
<path d="M21.3056 0C23.8982 0 26 2.10177 26 4.69444V21.3056C26 23.8982 23.8982 26 21.3056 26H4.69444C2.10177 26 0 23.8982 0 21.3056V4.69444C0 2.10177 2.10177 0 4.69444 0H21.3056ZM23.8333 7.94444H2.16667V21.3056C2.16667 22.7016 3.29839 23.8333 4.69444 23.8333H21.3056C22.7016 23.8333 23.8333 22.7016 23.8333 21.3056V7.94444ZM6.86111 16.6111C7.8583 16.6111 8.66667 17.4194 8.66667 18.4167C8.66667 19.4139 7.8583 20.2222 6.86111 20.2222C5.86392 20.2222 5.05556 19.4139 5.05556 18.4167C5.05556 17.4194 5.86392 16.6111 6.86111 16.6111ZM13 16.6111C13.9972 16.6111 14.8056 17.4194 14.8056 18.4167C14.8056 19.4139 13.9972 20.2222 13 20.2222C12.0028 20.2222 11.1944 19.4139 11.1944 18.4167C11.1944 17.4194 12.0028 16.6111 13 16.6111ZM6.86111 10.8333C7.8583 10.8333 8.66667 11.6416 8.66667 12.6389C8.66667 13.6361 7.8583 14.4444 6.86111 14.4444C5.86392 14.4444 5.05556 13.6361 5.05556 12.6389C5.05556 11.6416 5.86392 10.8333 6.86111 10.8333ZM13 10.8333C13.9972 10.8333 14.8056 11.6416 14.8056 12.6389C14.8056 13.6361 13.9972 14.4444 13 14.4444C12.0028 14.4444 11.1944 13.6361 11.1944 12.6389C11.1944 11.6416 12.0028 10.8333 13 10.8333ZM19.1389 10.8333C20.1361 10.8333 20.9444 11.6416 20.9444 12.6389C20.9444 13.6361 20.1361 14.4444 19.1389 14.4444C18.1416 14.4444 17.3333 13.6361 17.3333 12.6389C17.3333 11.6416 18.1416 10.8333 19.1389 10.8333ZM21.3056 2.16667H4.69444C3.29839 2.16667 2.16667 3.29839 2.16667 4.69444V5.77778H23.8333V4.69444C23.8333 3.29839 22.7016 2.16667 21.3056 2.16667Z" fill="#212121"/>
</svg>
