<svg width="49" height="35" viewBox="0 0 49 35" fill="none" xmlns="http://www.w3.org/2000/svg">
<path d="M28.7875 0.492188C33.185 0.492188 36.75 3.79035 36.75 7.85885V8.25099L46.2166 2.99685C47.4413 2.31654 49 3.1327 49 4.45432V30.5255C49 31.847 47.4418 32.6632 46.217 31.9832L36.75 26.7289V27.1255C36.75 31.194 33.185 34.4922 28.7875 34.4922H7.9625C3.56492 34.4922 0 31.194 0 27.1255V7.85885C0 3.79035 3.56492 0.492188 7.9625 0.492188H28.7875ZM28.7875 3.89219H7.9625C5.59457 3.89219 3.675 5.66812 3.675 7.85885V27.1255C3.675 29.3163 5.59457 31.0922 7.9625 31.0922H28.7875C31.1554 31.0922 33.075 29.3163 33.075 27.1255V7.85885C33.075 5.66812 31.1554 3.89219 28.7875 3.89219ZM45.325 7.45788L36.75 12.2211V22.7631L45.325 27.5231V7.45788Z" fill="black"/>
</svg>
