<svg width="51" height="49" viewBox="0 0 51 49" fill="none" xmlns="http://www.w3.org/2000/svg">
<path d="M32.6592 15.8817C32.4916 15.6575 32.3101 15.4437 32.1159 15.2418C31.3921 14.4903 30.5087 13.9242 29.536 13.5886L26.342 12.5147C26.0958 12.4249 25.8825 12.2583 25.7318 12.0378C25.5809 11.8174 25.5 11.554 25.5 11.2839C25.5 11.0139 25.5809 10.7505 25.7318 10.53C25.8825 10.3096 26.0958 10.143 26.342 10.0531L29.536 8.97926C30.495 8.63664 31.3648 8.06911 32.0767 7.32108C32.7691 6.59356 33.2944 5.71447 33.6136 4.74912L33.6401 4.6673L34.6781 1.36313C34.7651 1.10846 34.9262 0.887936 35.1392 0.731946C35.3523 0.575956 35.6068 0.492188 35.8678 0.492188C36.1291 0.492188 36.3836 0.575956 36.5967 0.731946C36.8097 0.887936 36.9708 1.10846 37.0578 1.36313L38.0958 4.6673C38.4185 5.67184 38.9633 6.58466 39.6868 7.33317C40.4105 8.08171 41.2928 8.64535 42.2639 8.97926L45.4579 10.0531L45.5217 10.0697C45.7679 10.1595 45.9811 10.3261 46.1318 10.5466C46.2827 10.767 46.3636 11.0304 46.3636 11.3004C46.3636 11.5705 46.2827 11.8339 46.1318 12.0543C45.9811 12.2748 45.7679 12.4414 45.5217 12.5313L42.3277 13.6051C41.3568 13.939 40.4743 14.5027 39.7508 15.2512C39.0273 15.9997 38.4825 16.9125 38.1596 17.9171L37.1215 21.2213C37.1122 21.2487 37.102 21.2758 37.0909 21.3024C36.9993 21.5227 36.8507 21.7133 36.6607 21.8524C36.4474 22.0084 36.1928 22.0922 35.9318 22.0922C35.6708 22.0922 35.4163 22.0084 35.203 21.8524C34.9899 21.6964 34.8288 21.4759 34.7421 21.2213L33.704 17.9171C33.4694 17.1801 33.1155 16.4921 32.6592 15.8817ZM50.4967 25.0039L48.7224 24.4072C48.1829 24.2217 47.6926 23.9086 47.2907 23.4927C46.8887 23.0769 46.5859 22.5698 46.4068 22.0117L45.83 20.1761C45.7818 20.0346 45.6923 19.9121 45.5738 19.8254C45.4556 19.7387 45.3142 19.6922 45.1691 19.6922C45.024 19.6922 44.8825 19.7387 44.7641 19.8254C44.6459 19.9121 44.5564 20.0346 44.5082 20.1761L43.9314 22.0117C43.7557 22.5659 43.4583 23.0705 43.0628 23.486C42.6673 23.9016 42.1842 24.2169 41.6512 24.4072L39.8769 25.0039C39.7401 25.0538 39.6217 25.1462 39.5378 25.2688C39.4541 25.3912 39.4091 25.5376 39.4091 25.6876C39.4091 25.8376 39.4541 25.984 39.5378 26.1064C39.6217 26.2288 39.7401 26.3215 39.8769 26.3714L41.6512 26.968C42.1916 27.1545 42.6824 27.4689 43.0846 27.8865C43.4865 28.3039 43.7888 28.8129 43.9669 29.3726L44.5436 31.2083C44.5918 31.3497 44.6813 31.4723 44.7998 31.559C44.918 31.6456 45.0594 31.6922 45.2045 31.6922C45.3497 31.6922 45.4911 31.6456 45.6093 31.559C45.7278 31.4723 45.8172 31.3497 45.8655 31.2083L46.4422 29.3726C46.6216 28.8146 46.9242 28.3075 47.3261 27.8915C47.7281 27.4759 48.2184 27.1627 48.7579 26.9771L50.5322 26.3805C50.669 26.3306 50.7874 26.2382 50.8713 26.1155C50.955 25.9931 51 25.8467 51 25.6967C51 25.5467 50.955 25.4003 50.8713 25.2779C50.7874 25.1555 50.669 25.0629 50.5322 25.013L50.4967 25.0039ZM23.3478 10.0922H6.375C2.85419 10.0922 0 13.0471 0 16.6922V41.8922C0 45.5373 2.85419 48.4922 6.375 48.4922H39.9886C43.5095 48.4922 46.3636 45.5373 46.3636 41.8922V33.9266C45.973 34.1128 45.5462 34.211 45.1118 34.211C44.4882 34.211 43.8804 34.0091 43.3732 33.6338C43.1956 33.503 43.0326 33.354 42.8864 33.1895V41.8922C42.8864 43.5491 41.5891 44.8922 39.9886 44.8922H6.375C4.77462 44.8922 3.47727 43.5491 3.47727 41.8922V16.6922C3.47727 15.0353 4.77462 13.6922 6.375 13.6922H24.0453C23.9681 13.5839 23.8965 13.471 23.8309 13.3539C23.4104 12.7264 23.1841 11.9815 23.1818 11.2179C23.1827 10.834 23.2393 10.4548 23.3478 10.0922ZM9.27273 21.4922C9.27273 20.4981 10.0511 19.6922 11.0114 19.6922H21.4432C22.4034 19.6922 23.1818 20.4981 23.1818 21.4922C23.1818 22.4863 22.4034 23.2922 21.4432 23.2922H11.0114C10.0511 23.2922 9.27273 22.4863 9.27273 21.4922ZM11.0114 26.8922C10.0511 26.8922 9.27273 27.6981 9.27273 28.6922C9.27273 29.6863 10.0511 30.4922 11.0114 30.4922H30.7159C31.6761 30.4922 32.4545 29.6863 32.4545 28.6922C32.4545 27.6981 31.6761 26.8922 30.7159 26.8922H11.0114ZM9.27273 35.8922C9.27273 34.8981 10.0511 34.0922 11.0114 34.0922H26.0795C27.0397 34.0922 27.8182 34.8981 27.8182 35.8922C27.8182 36.8863 27.0397 37.6922 26.0795 37.6922H11.0114C10.0511 37.6922 9.27273 36.8863 9.27273 35.8922Z" fill="black"/>
</svg>
