<svg width="45" height="47" viewBox="0 0 45 47" fill="none" xmlns="http://www.w3.org/2000/svg">
<path d="M0 2.01429C0 0.901836 0.863517 0 1.9287 0H3.36432C5.80854 0 7.27201 1.71614 8.10889 3.31146C8.66669 4.37487 9.07023 5.60826 9.38587 6.7249C9.47135 6.71789 9.55796 6.71429 9.64555 6.71429H41.7836C43.9185 6.71429 45.4602 8.84787 44.8749 10.9921L40.1745 28.2051C39.3084 31.3777 36.5326 33.5655 33.3739 33.5655H18.0777C14.8928 33.5655 12.1009 31.342 11.258 28.1345L9.30234 20.6921L6.06573 9.28124L6.06048 9.26126C5.66009 7.73623 5.2843 6.31156 4.7259 5.24708C4.18363 4.21335 3.75137 4.02857 3.36432 4.02857H1.9287C0.863517 4.02857 0 3.12674 0 2.01429ZM13.0453 19.7139L14.9779 27.0682C15.361 28.5263 16.6301 29.5369 18.0777 29.5369H33.3739C34.8097 29.5369 36.0713 28.5424 36.4652 27.1005L40.9316 10.7429H10.5062L13.0099 19.5703C13.0234 19.6181 13.0352 19.6659 13.0453 19.7139ZM21.8586 41.6286C21.8586 44.5952 19.556 47 16.7154 47C13.8749 47 11.5722 44.5952 11.5722 41.6286C11.5722 38.6619 13.8749 36.2571 16.7154 36.2571C19.556 36.2571 21.8586 38.6619 21.8586 41.6286ZM18.0012 41.6286C18.0012 40.887 17.4255 40.2857 16.7154 40.2857C16.0053 40.2857 15.4296 40.887 15.4296 41.6286C15.4296 42.3701 16.0053 42.9714 16.7154 42.9714C17.4255 42.9714 18.0012 42.3701 18.0012 41.6286ZM39.8598 41.6286C39.8598 44.5952 37.5571 47 34.7166 47C31.876 47 29.5734 44.5952 29.5734 41.6286C29.5734 38.6619 31.876 36.2571 34.7166 36.2571C37.5571 36.2571 39.8598 38.6619 39.8598 41.6286ZM36.0024 41.6286C36.0024 40.887 35.4266 40.2857 34.7166 40.2857C34.0065 40.2857 33.4308 40.887 33.4308 41.6286C33.4308 42.3701 34.0065 42.9714 34.7166 42.9714C35.4266 42.9714 36.0024 42.3701 36.0024 41.6286Z" fill="black"/>
</svg>
