<svg xmlns="http://www.w3.org/2000/svg" width="20" height="19" viewBox="0 0 20 19" fill="none">
<path d="M4.78033 1.43096C5.07322 1.10361 5.07322 0.572859 4.78033 0.245511C4.48744 -0.081837 4.01256 -0.081837 3.71967 0.245511L1.75 2.44691L1.28033 1.92198C0.987438 1.59464 0.512558 1.59464 0.219668 1.92198C-0.0732225 2.24933 -0.0732225 2.78008 0.219668 3.10743L1.21967 4.22508C1.51256 4.55243 1.98744 4.55243 2.28033 4.22508L4.78033 1.43096ZM19.25 16.2135H7.75L7.64823 16.2212C7.28215 16.2768 7 16.6275 7 17.0517C7 17.5148 7.33579 17.89 7.75 17.89H19.25L19.3518 17.8824C19.7178 17.8268 20 17.4761 20 17.0517C20 16.5888 19.6642 16.2135 19.25 16.2135ZM19.25 8.94119H7.75L7.64823 8.94879C7.28215 9.00433 7 9.35505 7 9.77942C7 10.2424 7.33579 10.6177 7.75 10.6177H19.25L19.3518 10.6101C19.7178 10.5545 20 10.2038 20 9.77942C20 9.31649 19.6642 8.94119 19.25 8.94119ZM19.25 1.67647H7.75L7.64823 1.68413C7.28215 1.73963 7 2.09034 7 2.51471C7 2.97765 7.33579 3.35294 7.75 3.35294H19.25L19.3518 3.34529C19.7178 3.28979 20 2.93908 20 2.51471C20 2.05177 19.6642 1.67647 19.25 1.67647ZM4.78033 15.9604C5.07322 15.633 5.07322 15.1023 4.78033 14.775C4.48744 14.4476 4.01256 14.4476 3.71967 14.775L1.75 16.9763L1.28033 16.4515C0.987438 16.1241 0.512558 16.1241 0.219668 16.4515C-0.0732225 16.7788 -0.0732225 17.3095 0.219668 17.6368L1.21967 18.7545C1.51256 19.0818 1.98744 19.0818 2.28033 18.7545L4.78033 15.9604ZM4.78033 7.51026C5.07322 7.83762 5.07322 8.36828 4.78033 8.69564L2.28033 11.4898C1.98744 11.8171 1.51256 11.8171 1.21967 11.4898L0.219668 10.3721C-0.0732225 10.0448 -0.0732225 9.51409 0.219668 9.18674C0.512558 8.85938 0.987438 8.85938 1.28033 9.18674L1.75 9.71158L3.71967 7.51026C4.01256 7.18288 4.48744 7.18288 4.78033 7.51026Z" fill="#212121"/>
</svg>