<svg width="42" height="44" viewBox="0 0 42 44" fill="none" xmlns="http://www.w3.org/2000/svg">
<path d="M7.58333 0.492188C3.39516 0.492188 0 3.96819 0 8.25608V35.7283C0 40.0161 3.39516 43.4922 7.58333 43.4922H34.4167C38.6048 43.4922 42 40.0161 42 35.7283V8.25608C42 3.96819 38.6048 0.492188 34.4167 0.492188H7.58333ZM3.5 8.25608C3.5 5.94722 5.32817 4.07552 7.58333 4.07552H34.4167C36.6718 4.07552 38.5 5.94722 38.5 8.25608V35.7283C38.5 38.0372 36.6718 39.9089 34.4167 39.9089H7.58333C5.32817 39.9089 3.5 38.0372 3.5 35.7283V8.25608ZM33.32 15.4959C34.0039 14.7966 34.0046 13.6622 33.3214 12.9621C32.6384 12.262 31.5303 12.2614 30.8467 12.9607L16.3254 27.8106L11.1553 22.517C10.4719 21.8173 9.36385 21.8173 8.68042 22.5168C7.99696 23.2165 7.99694 24.351 8.68033 25.0507L15.0871 31.6103C15.7703 32.3098 16.8777 32.3103 17.5614 31.6113L33.32 15.4959Z" fill="black"/>
</svg>
