<svg width="25" height="28" viewBox="0 0 25 28" fill="none" xmlns="http://www.w3.org/2000/svg">
<path d="M12.2178 0.300025C11.8102 -0.10002 11.1494 -0.100006 10.742 0.300052C10.3344 0.700111 10.3344 1.34873 10.742 1.74876L12.4395 3.41491C5.5616 3.45927 0 8.94578 0 15.7073C0 22.4964 5.60697 28 12.5235 28C19.0555 28 24.4185 23.0922 24.9957 16.8276C25.0476 16.2642 24.6243 15.766 24.0503 15.7151C23.4763 15.6642 22.9688 16.0796 22.9169 16.6431C22.436 21.8616 17.9658 25.9512 12.5235 25.9512C6.75972 25.9512 2.08725 21.3648 2.08725 15.7073C2.08725 10.0776 6.7139 5.50853 12.4386 5.46374L10.742 7.12914C10.3344 7.52919 10.3344 8.1778 10.742 8.57785C11.1496 8.97789 11.8102 8.97789 12.2178 8.57785L15.6966 5.16321C15.8923 4.97109 16.0023 4.71053 16.0023 4.43885C16.0023 4.16715 15.8923 3.9066 15.6966 3.7145L12.2178 0.300025ZM17.7885 11.9098C18.1961 12.3099 18.1961 12.9584 17.7885 13.3585L11.5221 19.5096C11.3264 19.7016 11.0609 19.8095 10.7841 19.8095C10.5074 19.8097 10.2419 19.7016 10.0462 19.5096L7.26318 16.7779C6.85563 16.3778 6.85563 15.7292 7.26318 15.3291C7.67074 14.9291 8.33154 14.9291 8.73909 15.3291L10.7841 17.3365L16.3126 11.9098C16.7202 11.5097 17.381 11.5097 17.7885 11.9098Z" fill="#212121"/>
</svg>
