<svg width="27" height="26" viewBox="0 0 27 26" fill="none" xmlns="http://www.w3.org/2000/svg">
<path d="M5.73381 18.2027C7.03838 18.2027 8.09596 19.2213 8.09596 20.4777V23.725C8.09596 24.9814 7.03838 26 5.73381 26H2.36216C1.05757 26 0 24.9814 0 23.725V20.4777C0 19.2213 1.05757 18.2027 2.36216 18.2027H5.73381ZM5.73381 20.1527H2.36216C2.17579 20.1527 2.02471 20.2983 2.02471 20.4777V23.725C2.02471 23.9045 2.17579 24.05 2.36216 24.05H5.73381C5.92017 24.05 6.07126 23.9045 6.07126 23.725V20.4777C6.07126 20.2983 5.92017 20.1527 5.73381 20.1527ZM10.4584 20.8H25.9876C26.5467 20.8 27 21.2365 27 21.775C27 22.2686 26.6191 22.6765 26.1251 22.7412L25.9876 22.75H10.4584C9.8993 22.75 9.44605 22.3135 9.44605 21.775C9.44605 21.2814 9.82691 20.8734 10.321 20.8088L10.4584 20.8ZM5.73381 9.10138C7.03838 9.10138 8.09596 10.1199 8.09596 11.3764V14.6236C8.09596 15.88 7.03838 16.8986 5.73381 16.8986H2.36216C1.05757 16.8986 0 15.88 0 14.6236V11.3764C0 10.1199 1.05757 9.10138 2.36216 9.10138H5.73381ZM5.73381 11.0514H2.36216C2.17579 11.0514 2.02471 11.1969 2.02471 11.3764V14.6236C2.02471 14.8031 2.17579 14.9486 2.36216 14.9486H5.73381C5.92017 14.9486 6.07126 14.8031 6.07126 14.6236V11.3764C6.07126 11.1969 5.92017 11.0514 5.73381 11.0514ZM10.4584 11.7H25.9876C26.5467 11.7 27 12.1365 27 12.675C27 13.1686 26.6191 13.5765 26.1251 13.6412L25.9876 13.65H10.4584C9.8993 13.65 9.44605 13.2135 9.44605 12.675C9.44605 12.1814 9.82691 11.7734 10.321 11.7088L10.4584 11.7ZM5.73381 0C7.03838 0 8.09596 1.01855 8.09596 2.275V5.52224C8.09596 6.77868 7.03838 7.79724 5.73381 7.79724H2.36216C1.05757 7.79724 0 6.77868 0 5.52224V2.275C0 1.01855 1.05757 0 2.36216 0H5.73381ZM5.73381 1.95H2.36216C2.17579 1.95 2.02471 2.09551 2.02471 2.275V5.52224C2.02471 5.70173 2.17579 5.84724 2.36216 5.84724H5.73381C5.92017 5.84724 6.07126 5.70173 6.07126 5.52224V2.275C6.07126 2.09551 5.92017 1.95 5.73381 1.95ZM10.4584 2.6H25.9876C26.5467 2.6 27 3.03653 27 3.575C27 4.06861 26.6191 4.47654 26.1251 4.5411L25.9876 4.55H10.4584C9.8993 4.55 9.44605 4.11347 9.44605 3.575C9.44605 3.08139 9.82691 2.67346 10.321 2.6089L10.4584 2.6Z" fill="#212121"/>
</svg>
