<svg width="38" height="41" viewBox="0 0 38 41" fill="none" xmlns="http://www.w3.org/2000/svg">
<path d="M14.369 16.1905C14.5847 16.1905 14.8004 16.1905 15.0161 16.1905C21.9248 16.1905 28.8345 16.1905 35.7432 16.1924C35.9617 16.1924 36.1812 16.1896 36.3997 16.1971C37.407 16.2336 37.9641 16.7691 37.9792 17.7734C38.0007 19.1481 37.9895 20.5238 37.9904 21.8994C37.9913 25.9935 37.9745 30.0886 37.9998 34.1827C38.0092 35.6728 37.7006 37.0344 36.7223 38.1906C35.5209 39.6103 33.9583 40.2114 32.1247 40.2104C23.8401 40.2058 15.5554 40.2104 7.27082 40.2039C6.67993 40.2039 6.08435 40.1589 5.49815 40.0773C3.47788 39.7969 1.55796 37.9908 1.16591 35.9813C1.04774 35.3736 0.9924 34.7444 0.991462 34.1246C0.978331 28.983 0.951131 23.8405 1.00553 18.6999C1.02054 17.2483 0.759796 15.8857 0.314286 14.5317C-0.636762 11.6416 0.623798 8.67555 3.37658 7.53339C4.46457 7.08234 5.63603 6.82822 6.77278 6.4972C9.07818 5.82672 11.3855 5.16094 13.6937 4.49984C15.9869 3.84249 18.2829 3.19639 20.5752 2.53811C22.8374 1.88826 25.1081 1.26186 27.3554 0.563249C29.8634 -0.216942 32.1519 0.287557 33.6872 2.16958C34.1853 2.7791 34.5379 3.54992 34.7968 4.30198C35.2433 5.59698 35.5809 6.93043 35.9317 8.25638C36.1474 9.06939 35.7216 9.82239 34.9197 10.0587C32.7512 10.6973 30.5752 11.3134 28.403 11.9407C26.1258 12.5981 23.8494 13.261 21.5722 13.9165C19.52 14.5082 17.465 15.0924 15.4129 15.6832C15.0499 15.7873 14.6916 15.9073 14.3315 16.0189C14.3446 16.0761 14.3577 16.1333 14.3708 16.1905H14.369ZM19.4844 19.2006C14.5143 19.2006 9.54527 19.2053 4.57524 19.1931C4.14755 19.1922 3.97404 19.2775 3.97591 19.7548C3.9928 24.661 3.98435 29.5672 3.98811 34.4734C3.98904 36.151 5.017 37.1947 6.70807 37.1966C15.2253 37.2041 23.7425 37.2041 32.2597 37.19C32.6865 37.19 33.1451 37.1103 33.5325 36.9406C34.6261 36.4623 34.9891 35.5434 34.9853 34.3937C34.9713 29.5503 34.9797 24.706 34.9797 19.8627C34.9797 19.4219 34.7527 19.2012 34.2988 19.2006C29.3606 19.2006 24.4216 19.2006 19.4834 19.2006H19.4844ZM17.7126 6.55722C17.5673 6.54971 17.5044 6.53096 17.4519 6.5469C15.9231 6.98388 14.398 7.43305 12.8664 7.85878C12.4584 7.97225 12.2202 8.20668 12.0232 8.57615C11.1369 10.2416 10.2196 11.8901 9.31641 13.5471C9.18604 13.7862 9.07255 14.0356 8.91123 14.361C9.12977 14.3347 9.2517 14.3366 9.36425 14.3047C10.6539 13.9409 11.9482 13.5892 13.2294 13.1945C13.7265 13.0416 14.2639 13.0032 14.565 12.3871C15.215 11.0583 15.9728 9.78113 16.6828 8.48144C17.0223 7.85972 17.3525 7.23238 17.7145 6.55722H17.7126ZM18.3842 11.635C18.6731 11.5872 18.84 11.5769 18.9967 11.5319C20.4045 11.1258 21.8057 10.6907 23.222 10.3156C23.6675 10.1975 23.8963 9.95273 24.0989 9.57202C24.869 8.12697 25.669 6.69787 26.454 5.26034C26.697 4.81491 26.9258 4.36199 27.2156 3.80967C26.9305 3.85655 26.7626 3.86593 26.605 3.91188C25.1972 4.31979 23.7979 4.75677 22.3816 5.12999C21.9689 5.23877 21.7448 5.44319 21.5572 5.79578C20.7637 7.28114 19.9515 8.75713 19.1458 10.2359C18.9113 10.6673 18.6759 11.0986 18.3842 11.635ZM8.15058 9.30945C7.96019 9.3207 7.83638 9.30664 7.72477 9.33852C6.75309 9.62078 5.77765 9.89084 4.81535 10.204C3.49664 10.6326 2.84103 11.5928 3.05488 12.9535C3.19838 13.8696 3.52478 14.7567 3.7827 15.6532C3.80521 15.731 3.94496 15.8398 3.99749 15.8323C4.36234 15.7779 4.42893 15.897 4.64371 15.4966C5.6501 13.6164 6.97443 11.5703 7.99395 9.69673C8.04929 9.59546 8.08211 9.48106 8.15152 9.31039L8.15058 9.30945ZM32.6555 7.59153C32.3507 6.5891 32.0956 5.66075 31.7776 4.7549C31.6698 4.44639 31.4963 3.84718 31.2796 3.58649C31.0386 3.29673 30.7609 3.59962 30.5471 4.00378C29.7536 5.50508 28.9273 6.98763 28.116 8.47956C28.0551 8.59115 28.0204 8.71587 27.9247 8.9578C29.5651 8.48425 31.077 8.04727 32.6537 7.59153H32.6555Z" fill="black"/>
<path d="M15.6396 28.2165C15.6396 27.0451 15.632 25.8737 15.6415 24.7024C15.6528 23.2229 16.8939 22.4926 18.188 23.2248C20.2403 24.3859 22.2841 25.5619 24.3156 26.7567C25.5842 27.503 25.5955 28.9038 24.3298 29.6548C22.3031 30.858 20.264 32.0425 18.2069 33.1942C16.8844 33.9348 15.65 33.1867 15.6415 31.681C15.6349 30.5265 15.6405 29.371 15.6405 28.2165H15.6396Z" fill="black"/>
</svg>
