<svg width="63" height="77" viewBox="0 0 63 77" fill="none" xmlns="http://www.w3.org/2000/svg">
<path d="M51.3068 34.8073C52.4601 33.6943 52.4601 31.8901 51.3068 30.7769C50.1535 29.664 48.284 29.664 47.1307 30.7769L27.5625 49.6615L19.8069 42.177C18.6537 41.064 16.7838 41.064 15.6306 42.177C14.4773 43.2901 14.4773 45.0943 15.6306 46.2073L25.4744 55.7073C26.6277 56.8203 28.4973 56.8203 29.6506 55.7073L51.3068 34.8073ZM47.2264 8.41325C46.8929 3.98488 43.0644 0.492188 38.3906 0.492188H24.6094C20.0499 0.492188 16.295 3.81612 15.8043 8.09006L8.85938 8.09219C3.96648 8.09219 0 11.9202 0 16.6422V67.9422C0 72.6641 3.96648 76.4922 8.85938 76.4922H54.1406C59.0334 76.4922 63 72.6641 63 67.9422V16.6422C63 11.9202 59.0334 8.09219 54.1406 8.09219L47.1957 8.09006C47.2079 8.19722 47.2181 8.30495 47.2264 8.41325ZM47.2295 8.4568L47.25 9.04219C47.25 8.84542 47.2433 8.65022 47.2295 8.4568ZM24.6094 17.5922H38.3906C41.4619 17.5922 44.1685 16.0839 45.7577 13.7928L54.1406 13.7922C55.7715 13.7922 57.0938 15.0682 57.0938 16.6422V67.9422C57.0938 69.5161 55.7715 70.7922 54.1406 70.7922H8.85938C7.22842 70.7922 5.90625 69.5161 5.90625 67.9422V16.6422C5.90625 15.0682 7.22842 13.7922 8.85938 13.7922L17.2424 13.7929C18.8318 16.084 21.538 17.5922 24.6094 17.5922ZM24.6094 6.19219H38.3906C40.0215 6.19219 41.3438 7.46819 41.3438 9.04219C41.3438 10.6162 40.0215 11.8922 38.3906 11.8922H24.6094C22.9784 11.8922 21.6562 10.6162 21.6562 9.04219C21.6562 7.46819 22.9784 6.19219 24.6094 6.19219Z" fill="black"/>
</svg>
