<?xml version="1.0" encoding="UTF-8"?>
<svg id="Layer_2" data-name="Layer 2" xmlns="http://www.w3.org/2000/svg" viewBox="0 0 25.55 26.8">
  <defs>
    <style>
      .cls-1 {
        stroke-width: 0px;
      }
    </style>
  </defs>
  <g id="Layer_1-2" data-name="Layer 1">
    <path class="cls-1" d="M25.49,3.6c-.2-.77-.68-1.42-1.4-1.92-1.66-1.14-3.57-1.67-6.01-1.67-.47,0-.95.02-1.48.06-1.53.11-2.85.47-4.05,1.11-1.17.62-1.89,1.41-2.19,2.42-.07.24-.07.49-.07.71v.06c0,1.66,0,3.32,0,4.98v1.34h-.07c-.34-.07-.69-.14-1.04-.17-.58-.06-1.15-.08-1.68-.08-2,0-3.73.39-5.29,1.18-.95.49-1.66,1.21-2.09,2.15l-.02.07v.04c-.03.11-.05.22-.08.33h0s.01.02.01.02v.02c-.01.07-.02.14-.02.17v8.65s.02.09.02.09c.04.18.09.37.16.55.21.53.55,1,1.08,1.47l.03.03.47.25c1.94.91,3.9,1.36,5.82,1.36s3.84-.45,5.76-1.33l.27-.12.03-.02s.06-.04.09-.06l.03-.02.03-.02c.75-.61,1.21-1.26,1.39-2.01l.07-.4v-1.39c0-.39,0-.78,0-1.19v-.06c.99.16,1.9.24,2.78.24h0c1.98,0,3.74-.4,5.37-1.22l.03-.02.07-.06s.03-.02.04-.03c.82-.52,1.34-1.02,1.61-1.55.22-.42.31-.89.37-1.3v-.03s0-.03,0-.03c0-3.91,0-7.82,0-11.72v-.17c0-.22.01-.46-.05-.7ZM12.52,23.14c-1.28.95-2.79,1.18-4.1,1.27-.3.02-.6.03-.89.03-1.07,0-2.1-.14-3.06-.43-.81-.24-1.39-.54-1.84-.95-.16-.15-.3-.43-.35-.73-.04-.22-.04-.46-.03-.7,1.76.77,3.54,1.16,5.32,1.16s3.6-.39,5.43-1.17c0,.28,0,.56-.02.84-.02.26-.17.48-.44.69ZM2.68,13.85c1.28-.96,2.81-1.16,4.14-1.23.24-.01.49-.02.73-.02,1.52,0,2.86.26,4.09.79.44.19.93.44,1.21.89.25.4.04.81-.28,1.04-1.48,1.06-3.23,1.26-4.87,1.33-1.41-.04-2.89-.16-4.24-.84-.42-.21-.8-.5-1.07-.83-.11-.13-.16-.29-.14-.46.03-.24.19-.49.42-.67ZM12.91,17.48c0,.35.01.67-.03.98-.02.17-.16.39-.31.51-.7.57-1.55.96-2.55,1.16-.83.17-1.66.25-2.47.25-.88,0-1.76-.1-2.62-.29-.99-.23-1.72-.55-2.3-1.02-.19-.16-.36-.44-.41-.68-.05-.27-.04-.55-.03-.85,1.82.81,3.63,1.22,5.39,1.22s3.58-.43,5.33-1.27ZM12.98,3.46c.51-.4,1.07-.69,1.64-.88.98-.31,2-.47,2.96-.47.09,0,.19,0,.3,0,.07,0,.15,0,.22,0,1.45,0,2.71.25,3.84.75.38.17.74.41,1.06.71.2.18.29.4.28.63-.02.26-.17.51-.43.7-.88.64-1.96,1.02-3.39,1.19-.54.06-1.07.1-1.58.1-1.08,0-2.12-.15-3.1-.44-.73-.22-1.35-.54-1.9-.98-.18-.15-.28-.36-.28-.59,0-.28.14-.55.38-.73ZM23.25,7.2c.01.28.02.57-.04.82-.04.22-.22.49-.43.65-1.36,1.06-2.96,1.3-4.95,1.32h-.15c-1.49,0-2.77-.26-3.91-.81-.36-.17-.68-.39-.94-.64-.13-.13-.24-.36-.27-.56-.03-.27-.03-.54-.02-.83,1.79.81,3.6,1.22,5.39,1.22s3.54-.39,5.32-1.17ZM12.56,11.19c1.79.78,3.6,1.17,5.38,1.17s3.58-.39,5.37-1.17c0,.35-.02.7-.08,1.03-.02.11-.15.3-.44.53-.99.78-2.21,1.03-3.38,1.18-.44.06-.9.09-1.37.09-.7,0-1.43-.06-2.23-.19-.54-.09-.85-.3-1.06-.73-.42-.88-1.21-1.33-1.99-1.68-.23-.1-.22-.13-.2-.24ZM15.23,17.76s0-.03,0-.06c.01-.46.01-.93,0-1.39v-.15c.99.15,1.9.23,2.76.23,1.93,0,3.66-.38,5.26-1.16,0,.36,0,.71-.08,1.02-.12.54-.65.8-1.22,1.05-1.24.53-2.52.78-3.93.78-.87,0-1.79-.1-2.74-.3-.03,0-.05-.01-.07-.02Z"/>
  </g>
</svg>