<svg width="44" height="37" viewBox="0 0 44 37" fill="none" xmlns="http://www.w3.org/2000/svg">
<path d="M39.05 0C41.7837 0 44 2.32885 44 5.20163V31.7984C44 34.6711 41.7837 37 39.05 37H4.95C2.21619 37 0 34.6711 0 31.7984V5.20163C0 2.32885 2.21619 0 4.95 0H39.05ZM39.05 3.46775H4.95C4.03874 3.46775 3.3 4.24404 3.3 5.20163V31.7984C3.3 32.7559 4.03874 33.5322 4.95 33.5322H39.05C39.9612 33.5322 40.7 32.7559 40.7 31.7984V5.20163C40.7 4.24404 39.9612 3.46775 39.05 3.46775ZM17.05 19.6506C17.9612 19.6506 18.7 20.4269 18.7 21.3845V22.5235L18.6826 22.7746C18.3245 25.3474 16.2749 26.5882 13.1999 26.5882C10.1247 26.5882 8.07506 25.3463 7.71731 22.7718L7.7 22.5214V21.3845C7.7 20.4269 8.43874 19.6506 9.35 19.6506H17.05ZM24.7551 20.7975H34.65C35.5612 20.7975 36.3 21.5738 36.3 22.5314C36.3 23.4092 35.6792 24.1346 34.874 24.2495L34.65 24.2653H24.7551C23.8438 24.2653 23.1051 23.4892 23.1051 22.5314C23.1051 21.6536 23.7257 20.9281 24.5311 20.8135L24.7551 20.7975ZM13.2 10.4083C15.0225 10.4083 16.4999 11.9608 16.4999 13.8761C16.4999 15.7912 15.0225 17.3436 13.2 17.3436C11.3775 17.3436 9.90007 15.7912 9.90007 13.8761C9.90007 11.9608 11.3775 10.4083 13.2 10.4083ZM24.7551 12.7151H34.65C35.5612 12.7151 36.3 13.4914 36.3 14.449C36.3 15.3268 35.6792 16.0522 34.874 16.1671L34.65 16.1828H24.7551C23.8438 16.1828 23.1051 15.4065 23.1051 14.449C23.1051 13.5712 23.7257 12.8457 24.5311 12.7309L24.7551 12.7151Z" fill="black"/>
</svg>
