<svg width="25" height="25" viewBox="0 0 25 25" fill="none" xmlns="http://www.w3.org/2000/svg">
<g id="Copy icon">
<path id="Vector" d="M21.0028 14.4454C21.0028 16.5545 21.0257 18.6636 20.9962 20.7727C20.9633 23.2465 19.5211 24.6657 16.9948 24.6789C12.678 24.7019 8.358 24.7019 4.04124 24.6789C1.44264 24.6657 0.023435 23.2367 0.0135794 20.6381C-0.00613187 16.4198 -0.00284667 12.1984 0.0135794 7.98016C0.023435 5.29943 1.43936 3.91965 4.17922 3.91308C8.44341 3.89993 12.7043 3.89336 16.9685 3.91308C19.5671 3.92622 20.9765 5.352 20.9995 7.95059C21.0192 10.1155 21.0028 12.2772 21.0028 14.4422V14.4454ZM10.5229 22.7373C12.5959 22.7373 14.6722 22.7472 16.7451 22.7373C18.4961 22.7242 19.0218 22.2412 19.0283 20.5625C19.0448 16.4034 19.0415 12.2411 19.0283 8.082C19.0218 6.38355 18.506 5.87106 16.7911 5.86449C12.5893 5.85135 8.38428 5.88091 4.1825 5.84806C2.69102 5.83492 1.96171 6.42954 1.96828 7.95388C1.99456 12.1688 1.99784 16.3804 1.96828 20.5953C1.95842 22.0934 2.61875 22.7734 4.13651 22.7472C6.26532 22.711 8.39414 22.7373 10.5229 22.7373Z" fill="#363636"/>
<path id="Vector_2" d="M22.9682 20.395V10.9402C22.9682 8.8344 22.9682 6.72859 22.9682 4.62277C22.9682 2.9657 22 2 20.3466 1.96504C15.6553 1.96176 10.9608 1.96504 6.26948 1.96504C5.73728 1.96504 5.20508 1.96504 4.49219 1.96504C5.10652 0.604967 6.12493 0.056338 7.34374 0.0431972C12.035 -0.00936605 16.7296 -0.0192217 21.4208 0.0431972C23.4478 0.0694788 24.8933 1.55111 24.9163 3.58793C24.9689 8.1248 24.9426 12.6617 24.9294 17.1952C24.9262 18.4666 24.371 19.4719 22.9682 20.395Z" fill="#363636"/>
<path id="Vector_3" d="M10.5235 22.7373C8.39472 22.7373 6.26591 22.711 4.13709 22.7471C2.61933 22.7734 1.959 22.0934 1.96886 20.5953C1.99843 16.3804 1.99514 12.1688 1.96886 7.95384C1.959 6.4295 2.68832 5.83817 4.18309 5.84802C8.38486 5.88087 12.5899 5.84802 16.7917 5.86445C18.5066 5.87102 19.0224 6.38351 19.0289 8.08196C19.0421 12.241 19.0454 16.4034 19.0289 20.5625C19.0224 22.2379 18.4967 22.7241 16.7457 22.7373C14.6727 22.7504 12.5965 22.7373 10.5235 22.7373Z" fill="#FEFEFE"/>
</g>
</svg>
