<svg width="46" height="46" viewBox="0 0 46 46" fill="none" xmlns="http://www.w3.org/2000/svg">
<path d="M32.1986 0C35.2412 0 37.7467 2.01305 38.073 4.60101L41.403 4.6C43.815 4.6 45.793 6.22635 45.9848 8.29488L46 8.625V15.525C46 19.5109 42.437 22.7682 37.9474 22.9883L37.395 23.0016C35.6408 27.8091 30.8321 31.4214 24.9671 32.0889L24.9655 35.65H29.5717C34.124 35.65 37.8442 38.7699 38.0953 42.7009L38.109 43.125V44.275C38.109 45.1483 37.3677 45.87 36.4062 45.9844L36.1388 46H9.86241C8.86499 46 8.04072 45.3509 7.91027 44.5091L7.89227 44.275V43.125C7.89227 39.1391 11.4555 35.8818 15.9451 35.6617L16.4295 35.65H21.0253L21.0261 32.088C15.1649 31.4182 10.3597 27.807 8.60622 23.0016L8.53724 23C3.82227 23 0 19.6533 0 15.525V8.625C0 6.40205 2.05816 4.6 4.59698 4.6L7.92821 4.60101C8.25438 2.01305 10.76 0 13.8027 0H32.1986ZM29.5717 39.1H16.4295C14.2499 39.1 12.4245 40.4283 11.9517 42.2108L11.8791 42.55H34.1222C33.8222 40.7141 32.1074 39.278 29.976 39.1154L29.5717 39.1ZM32.1986 3.45H13.8027C12.7146 3.45 11.8325 4.22232 11.8325 5.175V18.9715C11.8325 24.372 16.8327 28.75 23.0007 28.75C29.1685 28.75 34.1687 24.372 34.1687 18.9715V5.175C34.1687 4.22232 33.2866 3.45 32.1986 3.45ZM41.403 8.05H38.109V19.5107C40.2104 19.2517 41.8559 17.7487 42.0421 15.8795L42.0597 15.525V8.625C42.0597 8.35279 41.8438 8.12477 41.5538 8.06518L41.403 8.05ZM7.89227 8.05H4.59698C4.23429 8.05 3.94027 8.30744 3.94027 8.625V15.525C3.94027 17.5563 5.6588 19.236 7.89227 19.5107V8.05Z" fill="black"/>
</svg>
