<svg width="50" height="45" viewBox="0 0 50 45" fill="none" xmlns="http://www.w3.org/2000/svg">
<path d="M40.0014 0.492188C40.6038 0.492188 41.1638 0.774418 41.5139 1.24137L41.6506 1.45254L49.8102 16.1882L49.905 16.4152L49.9352 16.5126L49.9855 16.7623L50 16.9919C50 17.1607 49.9767 17.3241 49.933 17.4793L49.8145 17.7873L49.7207 17.955C49.6655 18.042 49.6027 18.1251 49.5319 18.2036L49.6815 18.0144L49.6202 18.098L26.4933 43.7779C26.293 44.0378 26.0347 44.2267 25.75 44.3448L25.5044 44.4255L25.3114 44.468L25.0009 44.4922L24.7501 44.4761L24.4553 44.4137C24.3048 44.3714 24.1583 44.3091 24.0213 44.228L23.9983 44.2096C23.8805 44.1404 23.7705 44.0559 23.6705 43.9574L0.445272 18.1779L0.379665 18.098L0.279479 17.955C0.140765 17.736 0.0480303 17.4864 0.0142267 17.2189L0 16.9919L0.00712589 16.8309L0.0401545 16.614C0.0556311 16.5408 0.0753829 16.4705 0.0991604 16.4021L0.156216 16.2591L0.226224 16.119L8.34945 1.45254C8.63623 0.934796 9.15669 0.587837 9.7434 0.509176L9.99842 0.492188H40.0014ZM32.4959 18.8252H17.4968L24.9999 37.6153L32.4959 18.8252ZM13.4739 18.8252H6.02313L19.402 33.6725L13.4739 18.8252ZM43.9721 18.8252H36.5238L30.6032 33.6628L43.9721 18.8252ZM17.4293 4.15879H11.1135L5.01803 15.1586H13.829L17.4293 4.15879ZM28.6303 4.15879H21.367L17.7644 15.1586H32.2284L28.6303 4.15879ZM38.8838 4.15879H32.5684L36.1688 15.1586H44.9747L38.8838 4.15879Z" fill="black"/>
</svg>
