<svg width="77" height="79" viewBox="0 0 77 79" fill="none" xmlns="http://www.w3.org/2000/svg">
<path d="M0 14.5755C0 6.79749 6.22447 0.492188 13.9028 0.492188H63.0972C70.7754 0.492188 77 6.79749 77 14.5755V64.4089C77 72.1868 70.7754 78.4922 63.0972 78.4922H13.9028C6.22447 78.4922 0 72.1868 0 64.4089V14.5755ZM13.9028 6.99219C9.76831 6.99219 6.41667 10.3874 6.41667 14.5755V15.6589H70.5833V14.5755C70.5833 10.3874 67.2317 6.99219 63.0972 6.99219H13.9028ZM6.41667 64.4089C6.41667 68.597 9.76831 71.9922 13.9028 71.9922H63.0972C67.2317 71.9922 70.5833 68.597 70.5833 64.4089V22.1589H6.41667V64.4089ZM16.4694 28.6589H30.5861C32.5941 28.6589 34.2222 30.308 34.2222 32.3422V61.8089C34.2222 63.8429 32.5941 65.4922 30.5861 65.4922H16.4694C14.4613 65.4922 12.8333 63.8429 12.8333 61.8089V32.3422C12.8333 30.308 14.4613 28.6589 16.4694 28.6589ZM19.25 58.9922H27.8056V35.1589H19.25V58.9922ZM38.5 31.9089C38.5 30.1139 39.9365 28.6589 41.7083 28.6589H60.9583C62.7302 28.6589 64.1667 30.1139 64.1667 31.9089C64.1667 33.7037 62.7302 35.1589 60.9583 35.1589H41.7083C39.9365 35.1589 38.5 33.7037 38.5 31.9089ZM41.7083 41.6589C39.9365 41.6589 38.5 43.114 38.5 44.9089C38.5 46.7037 39.9365 48.1589 41.7083 48.1589H56.6806C58.4524 48.1589 59.8889 46.7037 59.8889 44.9089C59.8889 43.114 58.4524 41.6589 56.6806 41.6589H41.7083Z" fill="black"/>
</svg>
