<svg width="47" height="40" viewBox="0 0 47 40" fill="none" xmlns="http://www.w3.org/2000/svg">
<path d="M7.6375 0.492188H39.3625C43.435 0.492188 46.7631 3.79853 46.988 7.96454L47 8.41406V31.5703C47 35.7945 43.8122 39.2465 39.7958 39.4798L39.3625 39.4922H7.6375C3.56488 39.4922 0.236763 36.1857 0.0120792 32.0198L0 31.5703V8.41406C0 4.1898 3.18766 0.737765 7.20411 0.504716L7.6375 0.492188ZM43.475 13.5889L24.3209 24.0475C23.8805 24.2878 23.3663 24.3222 22.905 24.1506L22.6791 24.0475L3.525 13.5913V31.5703C3.525 33.8084 5.18671 35.6439 7.3002 35.8218L7.6375 35.8359H39.3625C41.5203 35.8359 43.2898 34.1124 43.4614 31.9201L43.475 31.5703V13.5889ZM39.3625 4.14844H7.6375C5.4798 4.14844 3.7102 5.87202 3.53863 8.06421L3.525 8.41406V9.45975L23.5 20.3639L43.475 9.45731V8.41406C43.475 6.17602 41.8133 4.34054 39.6997 4.16257L39.3625 4.14844Z" fill="black"/>
</svg>
