<svg width="26" height="27" viewBox="0 0 26 27" fill="none" xmlns="http://www.w3.org/2000/svg">
<path d="M9.40566 1.05686C9.61182 0.997059 9.83542 0.964286 10.075 0.964286C11.5 0.964286 12.3443 2.12212 12.3443 3.21429V7.93664C12.7241 7.80629 13.1644 7.71502 13.6546 7.71502C15.472 7.71502 16.9001 9.0406 16.9001 10.9286C16.9001 11.2397 16.7484 11.5316 16.4925 11.7127L14.2602 13.2929L13.019 14.3631C12.1887 15.0792 11.4428 15.8858 10.7956 16.7675L10.0177 17.8272C9.3451 18.7434 8.26951 19.2857 7.12469 19.2857H4.99438C3.78398 19.2857 2.62341 18.6776 1.99782 17.5998C1.60513 16.9231 1.11899 16.0341 0.728172 15.1542C0.356371 14.3172 0 13.3379 0 12.5357V4.82143C0 3.72329 0.855586 2.57143 2.27501 2.57143C2.41796 2.57143 2.5552 2.58312 2.68641 2.60524C2.93642 1.72868 3.71716 0.964286 4.87502 0.964286C5.11202 0.964286 5.33582 0.997303 5.54381 1.05782C5.91903 0.45117 6.58689 0 7.47504 0C8.36271 0 9.03033 0.450681 9.40566 1.05686ZM7.23996 2.01907C7.18389 2.07928 7.15003 2.16606 7.15003 2.24792V3.10325C7.15136 3.14587 7.15136 3.18864 7.15003 3.2314V8.03574C7.15003 8.5683 6.71351 9.00003 6.17503 9.00003C5.63655 9.00003 5.20003 8.5683 5.20003 8.03574V3.14792C5.19519 3.10059 5.17249 3.04098 5.12399 2.98948C5.07526 2.93774 4.99943 2.89286 4.87502 2.89286C4.75112 2.89286 4.68426 2.9353 4.64004 2.9829C4.58462 3.04253 4.55002 3.12983 4.55002 3.21454V8.6793C4.55002 9.21186 4.11349 9.64359 3.57502 9.64359C3.03654 9.64359 2.60001 9.21186 2.60001 8.6793V4.82143C2.60001 4.73782 2.56567 4.65051 2.50973 4.59037C2.46486 4.54215 2.39769 4.5 2.27501 4.5C2.15233 4.5 2.08516 4.54215 2.04029 4.59037C1.98436 4.65051 1.95001 4.73782 1.95001 4.82143V12.5357C1.95001 12.8952 2.14335 13.5453 2.5135 14.3785C2.86463 15.1691 3.31272 15.9912 3.68901 16.6396C3.94421 17.0793 4.43553 17.3571 4.99438 17.3571H7.12469C7.64506 17.3571 8.13396 17.1107 8.43968 16.6942L9.21759 15.6344C9.95113 14.6352 10.7964 13.7211 11.7375 12.9096L13.0138 11.8089C13.0374 11.7887 13.0618 11.7696 13.0872 11.7516L14.8857 10.4785C14.7235 9.95385 14.2668 9.64359 13.6546 9.64359C12.8266 9.64359 12.2383 10.1577 12.0403 10.3307C12.0247 10.3442 12.0117 10.3557 12.001 10.3646C11.7114 10.6081 11.3052 10.663 10.9602 10.5053C10.6152 10.3475 10.3944 10.0059 10.3944 9.63V3.21429C10.3944 3.12759 10.3593 3.03989 10.3049 2.98099C10.2618 2.93445 10.1971 2.89286 10.075 2.89286C9.95113 2.89286 9.88408 2.93531 9.83989 2.98274C9.7848 3.04191 9.75005 3.1288 9.75005 3.21429V8.03574C9.75005 8.5683 9.31352 9.00003 8.77504 9.00003C8.23657 9.00003 7.80004 8.5683 7.80004 8.03574V2.24792C7.80004 2.16606 7.76619 2.07928 7.71012 2.01907C7.66514 1.97077 7.59777 1.92857 7.47504 1.92857C7.3523 1.92857 7.28494 1.97077 7.23996 2.01907ZM14.3001 18C15.0181 18 15.6001 17.4244 15.6001 16.7143C15.6001 16.0042 15.0181 15.4286 14.3001 15.4286C13.5821 15.4286 13.0001 16.0042 13.0001 16.7143C13.0001 17.4244 13.5821 18 14.3001 18ZM19.5001 18C20.2181 18 20.8001 17.4244 20.8001 16.7143C20.8001 16.0042 20.2181 15.4286 19.5001 15.4286C18.7821 15.4286 18.2001 16.0042 18.2001 16.7143C18.2001 17.4244 18.7821 18 19.5001 18ZM16.9 27C12.7382 27 9.22901 24.237 8.14535 20.4646C8.7973 20.3265 9.41215 20.0578 9.95232 19.6775C10.7139 22.7731 13.5355 25.0714 16.9 25.0714C20.8489 25.0714 24.05 21.9054 24.05 18C24.05 14.5326 21.5267 11.6479 18.197 11.0446C18.1989 11.006 18.2 10.9673 18.2 10.9285C18.2 10.243 18.0609 9.60814 17.8103 9.04442C22.4087 9.49612 26 13.3332 26 18C26 22.9704 21.9258 27 16.9 27ZM14.5571 20.2278C14.1837 19.844 13.5665 19.8321 13.1784 20.2013C12.7904 20.5705 12.7784 21.1809 13.1516 21.5648C14.0965 22.5363 15.4273 23.1427 16.8997 23.1427C18.3721 23.1427 19.7029 22.5363 20.6477 21.5648C21.0211 21.1809 21.0091 20.5705 20.621 20.2013C20.2329 19.8321 19.6157 19.844 19.2424 20.2278C18.6499 20.8369 17.8202 21.2142 16.8997 21.2142C15.9793 21.2142 15.1495 20.8369 14.5571 20.2278Z" fill="#212121"/>
</svg>
