<svg width="51" height="47" viewBox="0 0 51 47" fill="none" xmlns="http://www.w3.org/2000/svg">
<path d="M32.5227 18.3811C34.9873 18.3811 36.9852 20.3834 36.9852 22.8533V34.9896C36.9852 41.3422 31.8464 46.4922 25.5077 46.4922C19.1687 46.4922 14.0299 41.3422 14.0299 34.9896V22.8533C14.0299 20.3834 16.0278 18.3811 18.4924 18.3811H32.5227ZM32.5227 22.2144H18.4924C18.1403 22.2144 17.8549 22.5004 17.8549 22.8533V34.9896C17.8549 39.2252 21.281 42.6589 25.5077 42.6589C29.734 42.6589 33.1602 39.2252 33.1602 34.9896V22.8533C33.1602 22.5004 32.8749 22.2144 32.5227 22.2144ZM4.4625 18.3811L13.0848 18.3787C12.2092 19.4404 11.6388 20.7641 11.5085 22.2149L4.4625 22.2144C4.11042 22.2144 3.825 22.5004 3.825 22.8533V31.1558C3.825 34.686 6.68059 37.5477 10.2032 37.5477C10.7131 37.5477 11.2091 37.4877 11.6845 37.3745C11.9005 38.6622 12.295 39.8904 12.8389 41.0335C11.9997 41.261 11.1154 41.3811 10.2032 41.3811C4.56812 41.3811 0 36.8031 0 31.1558V22.8533C0 20.3834 1.99793 18.3811 4.4625 18.3811ZM37.9305 18.3787L46.5375 18.3811C49.0021 18.3811 51 20.3834 51 22.8533V31.1589C51 36.8043 46.4332 41.3811 40.8 41.3811C39.8912 41.3811 39.0099 41.262 38.1712 41.0384C38.7192 39.893 39.1139 38.6648 39.3337 37.3768C39.8035 37.489 40.2948 37.5477 40.8 37.5477C44.3208 37.5477 47.175 34.6873 47.175 31.1589V22.8533C47.175 22.5004 46.8897 22.2144 46.5375 22.2144L39.5066 22.2149C39.3763 20.7641 38.8059 19.4404 37.9305 18.3787ZM25.5 0.492188C29.7251 0.492188 33.15 3.92468 33.15 8.15885C33.15 12.393 29.7251 15.8255 25.5 15.8255C21.2749 15.8255 17.85 12.393 17.85 8.15885C17.85 3.92468 21.2749 0.492188 25.5 0.492188ZM42.075 3.04774C45.5958 3.04774 48.45 5.90815 48.45 9.43663C48.45 12.9651 45.5958 15.8255 42.075 15.8255C38.5542 15.8255 35.7 12.9651 35.7 9.43663C35.7 5.90815 38.5542 3.04774 42.075 3.04774ZM8.925 3.04774C12.4458 3.04774 15.3 5.90815 15.3 9.43663C15.3 12.9651 12.4458 15.8255 8.925 15.8255C5.40419 15.8255 2.55 12.9651 2.55 9.43663C2.55 5.90815 5.40419 3.04774 8.925 3.04774ZM25.5 4.32552C23.3876 4.32552 21.675 6.04176 21.675 8.15885C21.675 10.276 23.3876 11.9922 25.5 11.9922C27.6124 11.9922 29.325 10.276 29.325 8.15885C29.325 6.04176 27.6124 4.32552 25.5 4.32552ZM42.075 6.88108C40.6666 6.88108 39.525 8.02525 39.525 9.43663C39.525 10.848 40.6666 11.9922 42.075 11.9922C43.4834 11.9922 44.625 10.848 44.625 9.43663C44.625 8.02525 43.4834 6.88108 42.075 6.88108ZM8.925 6.88108C7.51669 6.88108 6.375 8.02525 6.375 9.43663C6.375 10.848 7.51669 11.9922 8.925 11.9922C10.3333 11.9922 11.475 10.848 11.475 9.43663C11.475 8.02525 10.3333 6.88108 8.925 6.88108Z" fill="black"/>
</svg>
