<svg width="51" height="45" viewBox="0 0 51 45" fill="none" xmlns="http://www.w3.org/2000/svg">
<path d="M8.92455 10.5882C8.92455 6.93341 11.7786 3.97059 15.2992 3.97059C18.8199 3.97059 21.6739 6.93341 21.6739 10.5882C21.6739 14.2431 18.8199 17.2059 15.2992 17.2059C11.7786 17.2059 8.92455 14.2431 8.92455 10.5882ZM15.2992 0C9.66621 0 5.09975 4.74051 5.09975 10.5882C5.09975 16.4359 9.66621 21.1765 15.2992 21.1765C20.9322 21.1765 25.4987 16.4359 25.4987 10.5882C25.4987 4.74051 20.9322 0 15.2992 0ZM34.4233 13.2353C34.4233 11.0424 36.1358 9.26471 38.2481 9.26471C40.3604 9.26471 42.0729 11.0424 42.0729 13.2353C42.0729 15.4282 40.3604 17.2059 38.2481 17.2059C36.1358 17.2059 34.4233 15.4282 34.4233 13.2353ZM38.2481 5.29412C34.0232 5.29412 30.5985 8.84951 30.5985 13.2353C30.5985 17.6212 34.0232 21.1765 38.2481 21.1765C42.473 21.1765 45.8977 17.6212 45.8977 13.2353C45.8977 8.84951 42.473 5.29412 38.2481 5.29412ZM31.2319 39.8057C33.0226 40.5614 35.3201 41.0294 38.2506 41.0294C44.0702 41.0294 47.3937 39.1836 49.2072 36.9056C50.0871 35.7999 50.5349 34.6836 50.7621 33.8281C50.8753 33.4008 50.9347 33.0353 50.9656 32.7626C50.9811 32.6261 50.9898 32.5114 50.9944 32.423C50.9967 32.3788 50.9982 32.341 50.999 32.3097L50.9997 32.2684L51 32.2515V32.2441V32.2375C51 29.0525 48.5129 26.4706 45.4448 26.4706H31.0564C30.9863 26.4706 30.9167 26.4719 30.8476 26.4746C31.852 27.5628 32.5841 28.9244 32.9291 30.4412H45.4448C46.3924 30.4412 47.1619 31.2316 47.1749 32.2118C47.1742 32.2269 47.1719 32.2557 47.1673 32.297C47.1558 32.3966 47.1306 32.5628 47.0745 32.7738C46.9628 33.1946 46.7333 33.7799 46.2588 34.376C45.363 35.5013 43.268 37.0588 38.2506 37.0588C35.7515 37.0588 33.9776 36.6724 32.7154 36.1456C32.4423 37.2047 31.9887 38.4824 31.2319 39.8057ZM5.73721 26.4706C2.56864 26.4706 0 29.1372 0 32.4265V33.0911V33.0941L2.55334e-05 33.1009L0.000178733 33.1176L0.000892452 33.1616C0.00163191 33.1957 0.00298333 33.2394 0.00535471 33.2923C0.0100975 33.3977 0.0189963 33.5396 0.035647 33.7124C0.0688718 34.0573 0.133435 34.5309 0.259195 35.0905C0.509847 36.2054 1.01113 37.6952 2.01907 39.19C4.10698 42.2865 8.08764 45 15.2992 45C22.5108 45 26.4914 42.2865 28.5795 39.19C29.5874 37.6952 30.0888 36.2054 30.3391 35.0905C30.4651 34.5309 30.5296 34.0573 30.5628 33.7124C30.5796 33.5396 30.5883 33.3977 30.5931 33.2923C30.5954 33.2394 30.5969 33.1957 30.5975 33.1616L30.5982 33.1176L30.5985 33.1009V33.0941V32.4265C30.5985 29.1372 28.0297 26.4706 24.8613 26.4706H5.73721ZM3.82601 33.1073L3.82481 33.0742V32.4265C3.82481 31.3301 4.68103 30.4412 5.73721 30.4412H24.8613C25.9174 30.4412 26.7737 31.3301 26.7737 32.4265V33.0739L26.7724 33.1073C26.7706 33.147 26.7665 33.2187 26.7571 33.3172C26.738 33.5149 26.6979 33.817 26.6146 34.1881C26.4468 34.9343 26.1115 35.9261 25.4459 36.913C24.1873 38.7797 21.4745 41.0294 15.2992 41.0294C9.12401 41.0294 6.41125 38.7797 5.15245 36.913C4.48704 35.9261 4.15165 34.9343 3.98395 34.1881C3.90054 33.817 3.86051 33.5149 3.84146 33.3172C3.83197 33.2187 3.82779 33.147 3.82601 33.1073Z" fill="black"/>
</svg>
