<svg width="56" height="48" viewBox="0 0 56 48" fill="none" xmlns="http://www.w3.org/2000/svg">
<path d="M22.4234 1.64188C25.8219 -0.547292 30.1781 -0.547292 33.5765 1.64188L55.0794 15.4927C55.6504 15.8606 55.997 16.4943 56 17.176C56.0029 17.8576 55.6618 18.4943 55.0938 18.8672L46.6667 24.3995V39.2912C46.6667 39.7261 46.5264 40.1493 46.2667 40.4971L46.2637 40.5011L46.2605 40.5054L46.2523 40.5161L46.2304 40.5448C46.2189 40.5595 46.2051 40.5772 46.1891 40.5973C46.1811 40.6075 46.1723 40.6185 46.1629 40.63C46.1077 40.6986 46.0317 40.7908 45.9341 40.9025C45.7392 41.1265 45.4584 41.4306 45.0883 41.7878C44.348 42.502 43.2469 43.431 41.7565 44.3525C38.7624 46.2038 34.2365 48 28 48C21.7634 48 17.2375 46.2038 14.2435 44.3525C12.7531 43.431 11.652 42.502 10.9118 41.7878C10.5415 41.4306 10.2607 41.1265 10.0658 40.9025C9.9521 40.772 9.84026 40.6396 9.73618 40.5011C9.73216 40.4957 9.73333 40.4971 9.73333 40.4971C9.47368 40.1493 9.33333 39.7261 9.33333 39.2912V24.3995L4 20.8984V35.2718C4 36.382 3.10456 37.2815 2 37.2815C0.89544 37.2815 0 36.382 0 35.2718V17.1845C0 16.4598 0.381813 15.8246 0.954346 15.4711L22.4234 1.64188ZM33.6517 32.944C30.2179 35.1984 25.7821 35.1981 22.3482 32.944L13.3333 27.0256V38.5377C13.4315 38.6409 13.5476 38.7588 13.6819 38.8882C14.2438 39.4303 15.1219 40.1761 16.3399 40.9293C18.7624 42.4275 22.5699 43.9806 28 43.9806C33.4301 43.9806 37.2376 42.4275 39.6603 40.9293C40.8781 40.1761 41.7563 39.4303 42.3181 38.8882C42.4525 38.7588 42.5685 38.6409 42.6667 38.5377V27.0256L33.6517 32.944ZM31.4179 5.02572C29.3349 3.68398 26.6651 3.68398 24.5821 5.02572L5.68109 17.2007L24.536 29.579C26.6405 30.9606 29.3595 30.9606 31.464 29.579L50.3189 17.2007L31.4179 5.02572Z" fill="black"/>
</svg>
