<svg width="76" height="79" viewBox="0 0 76 79" fill="none" xmlns="http://www.w3.org/2000/svg">
<path d="M5.7 37.635C5.7 20.1986 20.1612 6.06362 38 6.06362C55.8387 6.06362 70.3 20.1986 70.3 37.635V45.0636H61.75C60.176 45.0636 58.9 46.3109 58.9 47.8493V71.9922C58.9 73.5306 60.176 74.7779 61.75 74.7779H64.6C70.8962 74.7779 76 69.7892 76 63.635V37.635C76 17.1216 58.9866 0.492188 38 0.492188C17.0132 0.492188 0 17.1216 0 37.635V63.635C0 69.7892 5.10397 74.7779 11.4 74.7779H14.25C15.824 74.7779 17.1 73.5306 17.1 71.9922V47.8493C17.1 46.3109 15.824 45.0636 14.25 45.0636H5.7V37.635ZM70.3 50.635V63.635C70.3 66.712 67.7479 69.2065 64.6 69.2065V50.635H70.3ZM5.7 63.635V50.635H11.4V69.2065C8.25197 69.2065 5.7 66.712 5.7 63.635ZM40.85 36.7065C40.85 35.168 39.574 33.9208 38 33.9208C36.426 33.9208 35.15 35.168 35.15 36.7065V75.7065C35.15 77.2449 36.426 78.4922 38 78.4922C39.574 78.4922 40.85 77.2449 40.85 75.7065V36.7065ZM25.65 45.0629C27.224 45.0629 28.5 46.3098 28.5 47.8486V64.5636C28.5 66.1021 27.224 67.3493 25.65 67.3493C24.076 67.3493 22.8 66.1021 22.8 64.5636V47.8486C22.8 46.3098 24.076 45.0629 25.65 45.0629ZM53.2 47.8493C53.2 46.3109 51.924 45.0636 50.35 45.0636C48.776 45.0636 47.5 46.3109 47.5 47.8493V64.5644C47.5 66.1028 48.776 67.3501 50.35 67.3501C51.924 67.3501 53.2 66.1028 53.2 64.5644V47.8493Z" fill="black"/>
</svg>
