<!-- <svg width="31" height="29" viewBox="0 0 56 51" fill="white" xmlns="http://www.w3.org/2000/svg">

<path d="M30.2894 4.65138L27.9919 7.07713L25.687 4.6492C19.8109 -1.54138 10.2835 -1.54138 4.40723 4.6492C-1.46908 10.8398 -1.46908 20.8766 4.40723 27.0673L26.5101 50.3521C27.3301 51.216 28.6595 51.216 29.4795 50.3521L51.5993 27.0629C57.4625 20.8519 57.4726 10.8431 51.5954 4.65138C45.7083 -1.55046 36.1764 -1.55046 30.2894 4.65138ZM48.6218 23.9435L27.9947 45.6603L7.37652 23.9391C3.1401 19.4761 3.1401 12.2403 7.37652 7.7773C11.6129 3.3143 18.4815 3.3143 22.7179 7.7773L26.5179 11.7807C27.3519 12.6591 28.7088 12.642 29.5223 11.7428L33.2588 7.77948C37.5059 3.30525 44.3789 3.30525 48.626 7.77948C52.8635 12.2435 52.8563 19.4581 48.6218 23.9435Z" fill="black"/>
</svg> -->

<svg xmlns="http://www.w3.org/2000/svg" width="31" height="29" viewBox="0 0 31 29" fill="none">
  <path d="M16.522 5.09768L15.4964 6.19165L14.4674 5.0967C11.8441 2.30487 7.59085 2.30487 4.96751 5.0967C2.34416 7.88851 2.34416 12.415 4.96751 15.2068L14.8349 25.7078C15.2009 26.0974 15.7944 26.0974 16.1605 25.7078L26.0354 15.2048C28.6529 12.4038 28.6574 7.89002 26.0336 5.09768C23.4055 2.30077 19.1502 2.30077 16.522 5.09768Z" fill="#FFFBDB"/>
  <path d="M16.522 5.09768L15.4964 6.19165L14.4674 5.0967C11.8441 2.30487 7.59085 2.30487 4.96751 5.0967C2.34416 7.88851 2.34416 12.415 4.96751 15.2068L14.8349 25.7078C15.2009 26.0974 15.7944 26.0974 16.1605 25.7078L26.0354 15.2048C28.6529 12.4038 28.6574 7.89002 26.0336 5.09768C23.4055 2.30077 19.1502 2.30077 16.522 5.09768ZM24.7061 13.7981L15.4976 23.5919L6.29309 13.7961C4.40183 11.7833 4.40183 8.52012 6.29309 6.50741C8.18434 4.49469 11.2507 4.49469 13.1419 6.50741L14.8384 8.31285C15.2107 8.70902 15.8164 8.7013 16.1796 8.29576L17.8477 6.50839C19.7437 4.4906 22.812 4.4906 24.708 6.50839C26.5998 8.5216 26.5965 11.7752 24.7061 13.7981Z" fill="#4D4D4D" />
</svg>