<svg width="56" height="51" viewBox="0 0 56 51" fill="none" xmlns="http://www.w3.org/2000/svg">
<path d="M30.2894 4.65138L27.9919 7.07713L25.687 4.6492C19.8109 -1.54138 10.2835 -1.54138 4.40723 4.6492C-1.46908 10.8398 -1.46908 20.8766 4.40723 27.0673L26.5101 50.3521C27.3301 51.216 28.6595 51.216 29.4795 50.3521L51.5993 27.0629C57.4625 20.8519 57.4726 10.8431 51.5954 4.65138C45.7083 -1.55046 36.1764 -1.55046 30.2894 4.65138ZM48.6218 23.9435L27.9947 45.6603L7.37652 23.9391C3.1401 19.4761 3.1401 12.2403 7.37652 7.7773C11.6129 3.3143 18.4815 3.3143 22.7179 7.7773L26.5179 11.7807C27.3519 12.6591 28.7088 12.642 29.5223 11.7428L33.2588 7.77948C37.5059 3.30525 44.3789 3.30525 48.626 7.77948C52.8635 12.2435 52.8563 19.4581 48.6218 23.9435Z" fill="black"/>
</svg>
