<svg width="57" height="54" viewBox="0 0 57 54" fill="none" xmlns="http://www.w3.org/2000/svg">
<path d="M30.8303 4.87869L28.4917 7.42298L26.1457 4.8764C20.1646 -1.6167 10.4671 -1.6167 4.48592 4.8764C-1.49531 11.3695 -1.49531 21.8969 4.48592 28.3901L26.9835 52.8128C27.8181 53.7188 29.1713 53.7188 30.0059 52.8128L52.5207 28.3854C58.4886 21.8709 58.4989 11.373 52.5167 4.87869C46.5246 -1.62623 36.8224 -1.62623 30.8303 4.87869Z" fill="#FDE543"/>
<path d="M30.8303 4.87869L28.4917 7.42298L26.1457 4.8764C20.1646 -1.6167 10.4671 -1.6167 4.48593 4.8764C-1.49531 11.3695 -1.49531 21.8969 4.48593 28.3901L26.9835 52.8128C27.8181 53.7188 29.1713 53.7188 30.0059 52.8128L52.5207 28.3854C58.4886 21.8709 58.4989 11.373 52.5167 4.87869C46.5246 -1.62623 36.8224 -1.62623 30.8303 4.87869ZM49.49 25.1136L28.4946 47.8916L7.50824 25.109C3.19617 20.4278 3.19617 12.8384 7.50824 8.15737C11.8203 3.47627 18.8115 3.47627 23.1236 8.15737L26.9915 12.3564C27.8403 13.2778 29.2215 13.2598 30.0495 12.3166L33.8527 8.15966C38.1756 3.46677 45.1714 3.46677 49.4943 8.15966C53.8075 12.8419 53.8001 20.409 49.49 25.1136Z" fill="black"/>
</svg>
