<svg width="44" height="44" viewBox="0 0 44 44" fill="none" xmlns="http://www.w3.org/2000/svg">
<path d="M9.67993 0.826975C9.22524 0.0372672 8.21643 -0.234344 7.42672 0.22035C6.63698 0.675044 6.36539 1.68383 6.82007 2.47356L16.7961 19.8001H1.65C0.738738 19.8001 0 20.5389 0 21.4501V22.0001C0 34.1504 9.84973 44 22 44C34.1502 44 44 34.1504 44 22.0001V21.4501C44 20.5389 43.2612 19.8001 42.35 19.8001H29.4039L18.48 0.826975C18.0253 0.0372672 17.0164 -0.234344 16.2267 0.22035C15.437 0.675044 15.1654 1.68383 15.6201 2.47356L25.5961 19.8001H20.6039L9.67993 0.826975ZM6.13261 31.9001H37.8673C34.5631 37.1849 28.6922 40.7 22 40.7C15.3079 40.7 9.43686 37.1849 6.13261 31.9001ZM4.49801 28.6001C3.84677 26.874 3.44355 25.0262 3.33181 23.1001H40.6681C40.5566 25.0262 40.1533 26.874 39.5019 28.6001H4.49801Z" fill="#212121"/>
</svg>
