<svg width="28" height="21" viewBox="0 0 28 21" fill="none" xmlns="http://www.w3.org/2000/svg">
<path d="M1.94432 1.0203C2.74584 0.569476 5.21425 -0.575877 8.34928 0.353831L8.35155 0.354502C10.0759 0.870156 11.0185 1.93905 11.4816 3.12207C11.9026 4.19736 11.9019 5.31382 11.9014 5.96175V14.2224C11.9014 14.8134 11.4314 15.2925 10.8516 15.2925C10.2718 15.2925 9.80177 14.8134 9.80177 14.2224V13.7935C9.62761 13.8991 9.44285 14.0057 9.24876 14.1107C7.91622 14.832 5.99033 15.5642 3.98934 15.1971C1.77242 14.7904 0.38392 12.9215 0.0697269 10.9858C-0.250023 9.0158 0.511747 6.79501 2.73214 5.71094C4.74778 4.72681 6.91744 4.81435 8.50277 5.10155C8.98079 5.18814 9.41664 5.29485 9.7935 5.40215C9.7752 4.90097 9.71685 4.38884 9.53145 3.9152C9.29862 3.32043 8.84367 2.73235 7.76157 2.40846C5.38907 1.70535 3.52546 2.57537 2.95873 2.89412C2.45108 3.17965 1.81247 2.99164 1.53235 2.47421C1.25223 1.95677 1.43666 1.30583 1.94432 1.0203ZM8.13537 7.20864C6.75468 6.95852 5.09137 6.93213 3.63919 7.6411C2.39175 8.25019 1.94891 9.45154 2.14122 10.6365C2.33908 11.8554 3.17929 12.874 4.36123 13.0907C5.67482 13.3317 7.08708 12.8576 8.26405 12.2205C8.83677 11.9105 9.31759 11.5816 9.65461 11.3302C9.70745 11.2908 9.75657 11.2534 9.80177 11.2185V7.64281C9.39183 7.50241 8.81198 7.33134 8.13537 7.20864ZM20.2813 2.50604C20.8316 2.69225 21.1296 3.29789 20.9469 3.85879C20.8218 4.24289 20.6882 4.72895 20.5677 5.19951C21.8951 5.07357 23.1854 4.87745 24.2604 4.62002C24.8248 4.48486 25.3899 4.8417 25.5225 5.41702C25.6552 5.99236 25.3051 6.56832 24.7406 6.70348C23.379 7.02943 21.7285 7.26228 20.0708 7.38984C19.9176 8.16929 19.7995 8.88012 19.7109 9.53016C20.5328 9.29174 21.3169 9.18488 22.0516 9.19073C22.0712 8.6173 22.5335 8.15859 23.1009 8.15859C23.6807 8.15859 24.1507 8.6377 24.1507 9.22868C24.1507 9.33497 24.1494 9.44041 24.1468 9.54528C25.832 10.135 27.0738 11.4111 27.6522 13.0032C28.1623 14.4071 28.1283 16.01 27.4371 17.4652C26.7425 18.9277 25.4209 20.1677 23.4801 20.9285C22.9389 21.1405 22.3314 20.8653 22.1234 20.3137C21.9153 19.7621 22.1853 19.143 22.7264 18.9308C24.2421 18.3368 25.1168 17.4391 25.5474 16.5327C25.9813 15.619 26.0015 14.6221 25.6833 13.7466C25.391 12.9422 24.787 12.1954 23.8944 11.7501C23.3758 14.2303 22.128 16.1888 20.6956 17.5239C20.775 17.7131 20.8548 17.9124 20.934 18.1287C21.1369 18.6824 20.8608 19.2988 20.3176 19.5054C19.7745 19.7121 19.1697 19.4308 18.9669 18.877C18.9589 18.8552 18.9507 18.8331 18.9421 18.8108C18.3617 19.1331 17.7738 19.3631 17.2062 19.4874C16.1969 19.7083 15.0259 19.6284 14.2255 18.7947C13.0135 17.53 13.0799 15.5456 13.9382 13.8824C14.6065 12.5873 15.791 11.3572 17.4916 10.4406C17.5741 9.56355 17.7106 8.58834 17.9118 7.49585C16.9963 7.51468 16.1185 7.4977 15.3303 7.44277C14.7519 7.40239 14.3151 6.89175 14.3545 6.30213C14.3941 5.71251 14.8951 5.26722 15.4736 5.30754C16.3432 5.36817 17.3363 5.37837 18.3668 5.34241C18.5287 4.66826 18.7472 3.82008 18.9542 3.18446C19.1369 2.62356 19.7311 2.31983 20.2813 2.50604ZM17.4004 13.0244C16.6362 13.614 16.1132 14.2649 15.7964 14.8787C15.1755 16.0821 15.392 16.949 15.7263 17.2979C15.8034 17.3782 16.0868 17.5434 16.7655 17.3949C17.2486 17.2892 17.7053 17.1058 18.1325 16.8616C17.9223 16.293 17.7241 15.6435 17.5921 14.9036C17.4923 14.3444 17.4245 13.7249 17.4004 13.0244ZM19.8565 15.3932C20.8548 14.2147 21.5426 12.7089 21.8352 11.3296C21.2704 11.3476 20.6499 11.4589 19.9757 11.6856C19.8128 11.7405 19.6546 11.798 19.5014 11.8581C19.4622 12.9627 19.5331 13.8221 19.6579 14.5206C19.7157 14.8447 19.7826 15.1313 19.8565 15.3932Z" fill="#212121"/>
</svg>
