<svg width="46" height="47" viewBox="0 0 46 47" fill="none" xmlns="http://www.w3.org/2000/svg">
<path d="M38.9722 0.492188C42.8536 0.492188 46 3.63864 46 7.51997V39.4644C46 43.3458 42.8536 46.4922 38.9722 46.4922H7.02778C3.14645 46.4922 0 43.3458 0 39.4644V7.51997C0 3.63864 3.14645 0.492188 7.02778 0.492188H38.9722ZM38.9722 4.32552H7.02778C5.26352 4.32552 3.83333 5.75571 3.83333 7.51997V39.4644C3.83333 41.2288 5.26352 42.6589 7.02778 42.6589H38.9722C40.7366 42.6589 42.1667 41.2288 42.1667 39.4644V7.51997C42.1667 5.75571 40.7366 4.32552 38.9722 4.32552ZM28.75 22.2144H9.58333L9.32325 22.2318C8.38772 22.3588 7.66667 23.1607 7.66667 24.1311C7.66667 25.1896 8.5248 26.0477 9.58333 26.0477H28.75L29.0102 26.0304C29.9455 25.9034 30.6667 25.1014 30.6667 24.1311C30.6667 23.0726 29.8085 22.2144 28.75 22.2144ZM9.58333 32.4366H36.4167C37.4752 32.4366 38.3333 33.2948 38.3333 34.3533C38.3333 35.3236 37.6122 36.1256 36.6768 36.2526L36.4167 36.27H9.58333C8.5248 36.27 7.66667 35.4118 7.66667 34.3533C7.66667 33.383 8.38772 32.581 9.32325 32.454L9.58333 32.4366ZM36.4167 11.9922H9.58333L9.32325 12.0097C8.38772 12.1366 7.66667 12.9385 7.66667 13.9089C7.66667 14.9674 8.5248 15.8255 9.58333 15.8255H36.4167L36.6768 15.808C37.6122 15.6811 38.3333 14.8792 38.3333 13.9089C38.3333 12.8503 37.4752 11.9922 36.4167 11.9922Z" fill="black"/>
</svg>
