<svg width="26" height="27" viewBox="0 0 26 27" fill="none" xmlns="http://www.w3.org/2000/svg">
<path d="M3.82359 7.86933C3.73408 7.75468 3.63718 7.64539 3.53337 7.54216C3.14686 7.15787 2.67501 6.86838 2.15549 6.69677L0.44964 6.14766C0.318166 6.10173 0.204311 6.01652 0.123785 5.9038C0.0432467 5.79108 0 5.65639 0 5.5183C0 5.38022 0.0432467 5.24553 0.123785 5.13281C0.204311 5.02007 0.318166 4.93488 0.44964 4.88893L2.15549 4.33982C2.66778 4.16462 3.13223 3.87442 3.51248 3.49192C3.88233 3.11991 4.16281 2.67039 4.33334 2.17676L4.34749 2.13492L4.9019 0.445354C4.94828 0.31513 5.0343 0.202364 5.14811 0.122599C5.26191 0.0428346 5.39791 0 5.53732 0C5.67674 0 5.81273 0.0428346 5.92654 0.122599C6.04034 0.202364 6.12637 0.31513 6.17275 0.445354L6.72715 2.13492C6.89955 2.64859 7.19052 3.11536 7.57697 3.4981C7.96342 3.88086 8.43466 4.16908 8.95328 4.33982L10.6591 4.88893L10.6932 4.89739C10.8247 4.94332 10.9386 5.02853 11.0191 5.14125C11.0996 5.25397 11.1429 5.38866 11.1429 5.52675C11.1429 5.66484 11.0996 5.79952 11.0191 5.91224C10.9386 6.02498 10.8247 6.11017 10.6932 6.15612L8.98739 6.70523C8.46879 6.87597 7.99753 7.16419 7.61108 7.54695C7.22465 7.9297 6.93366 8.39646 6.76126 8.91013L6.20687 10.5997C6.20187 10.6137 6.19639 10.6276 6.19049 10.6412C6.14161 10.7539 6.06218 10.8513 5.96065 10.9225C5.84684 11.0022 5.71086 11.0451 5.57144 11.0451C5.43202 11.0451 5.29604 11.0022 5.18223 10.9225C5.06842 10.8427 4.98239 10.7299 4.93601 10.5997L4.38161 8.91013C4.25636 8.5333 4.06732 8.18149 3.82359 7.86933ZM13.3503 12.5339L12.4026 12.2288C12.1145 12.134 11.8527 11.9739 11.638 11.7612C11.4233 11.5486 11.2616 11.2893 11.1659 11.0039L10.8579 10.0652C10.8321 9.9929 10.7843 9.93025 10.7211 9.88594C10.6579 9.84162 10.5823 9.81782 10.5049 9.81782C10.4274 9.81782 10.3519 9.84162 10.2886 9.88594C10.2254 9.93025 10.1776 9.9929 10.1519 10.0652L9.84387 11.0039C9.74999 11.2873 9.59123 11.5453 9.37996 11.7578C9.16871 11.9703 8.91069 12.1315 8.62607 12.2288L7.67838 12.5339C7.60535 12.5595 7.54209 12.6067 7.49735 12.6694C7.45262 12.732 7.42858 12.8069 7.42858 12.8836C7.42858 12.9603 7.45262 13.0351 7.49735 13.0977C7.54209 13.1603 7.60535 13.2077 7.67838 13.2332L8.62607 13.5383C8.9147 13.6336 9.17684 13.7944 9.39156 14.0079C9.60629 14.2214 9.76767 14.4817 9.86281 14.7678L10.1708 15.7066C10.1966 15.7788 10.2444 15.8416 10.3076 15.8859C10.3708 15.9302 10.4464 15.954 10.5238 15.954C10.6013 15.954 10.6768 15.9302 10.7401 15.8859C10.8033 15.8416 10.8511 15.7788 10.8768 15.7066L11.1848 14.7678C11.2807 14.4825 11.4422 14.2232 11.6569 14.0105C11.8716 13.798 12.1335 13.6378 12.4216 13.543L13.3692 13.2379C13.4423 13.2123 13.5055 13.1651 13.5504 13.1024C13.5951 13.0398 13.6191 12.9649 13.6191 12.8882C13.6191 12.8115 13.5951 12.7367 13.5504 12.6741C13.5055 12.6115 13.4423 12.5641 13.3692 12.5386L13.3503 12.5339ZM19.7499 5.04174L13.4508 11.2863L12.7895 11.0439C12.6863 11.015 12.5924 10.96 12.5172 10.8843C12.4518 10.8057 12.4052 10.7134 12.381 10.6143L12.1634 9.95892L18.4366 3.74015C20.1667 2.02496 22.972 2.02489 24.7024 3.73996C26.4325 5.45489 26.4325 8.23533 24.7025 9.95037L23.5983 11.0451C25.1633 12.6033 25.1611 15.1239 23.5919 16.6794L21.3838 18.868C21.0212 19.2275 20.4333 19.2275 20.0707 18.868C19.708 18.5086 19.708 17.9258 20.0707 17.5663L22.2787 15.3777C23.1227 14.5412 23.1248 13.1861 22.2851 12.3469L9.90714 24.6176C9.40392 25.1164 8.77091 25.4671 8.07856 25.6305L2.38177 26.975C2.06808 27.049 1.7381 26.9564 1.51008 26.7304C1.28207 26.5044 1.18869 26.1773 1.26337 25.8664L2.61981 20.2193C2.7846 19.5333 3.13821 18.9059 3.64128 18.4073L7.52913 14.5531L8.19621 14.7623C8.29654 14.8032 8.38877 14.8614 8.46859 14.9341C8.54754 15.0138 8.60686 15.1104 8.64192 15.2164L8.84458 15.8526L4.95456 19.7089C4.69447 19.9668 4.51165 20.291 4.42646 20.6458L3.41951 24.8377L7.64841 23.8398C8.00638 23.7552 8.33368 23.5739 8.59387 23.316L23.3893 8.64877C24.3941 7.65264 24.394 6.0377 23.3891 5.04164C22.3842 4.04548 20.7547 4.04553 19.7499 5.04174Z" fill="#212121"/>
</svg>
