<svg width="26" height="20" viewBox="0 0 26 20" fill="none" xmlns="http://www.w3.org/2000/svg">
<path d="M21.775 20H4.225C1.97206 20 0.130975 18.3044 0.00668209 16.168L0 15.9375V2.8125C0 1.32393 1.20271 0.10545 2.72474 0.00648737L2.925 0H19.175C20.7232 0 21.9903 1.15645 22.0932 2.61994L22.1 2.8125V3.75H23.075C24.6232 3.75 25.8903 4.90645 25.9932 6.36994L26 6.5625V15.9375C26 18.1038 24.2365 19.874 22.0147 19.9936L21.775 20ZM4.225 18.125H21.775C22.9687 18.125 23.9476 17.2411 24.0425 16.1169L24.05 15.9375V6.5625C24.05 6.08787 23.6831 5.69564 23.2073 5.63356L23.075 5.625H22.1V15.3125C22.1 15.7871 21.7331 16.1794 21.2573 16.2415L21.125 16.25C20.6314 16.25 20.2234 15.8973 20.1588 15.4398L20.15 15.3125V2.8125C20.15 2.33787 19.7831 1.94564 19.3073 1.88356L19.175 1.875H2.925C2.43139 1.875 2.02346 2.22769 1.9589 2.68529L1.95 2.8125V15.9375C1.95 17.0853 2.86924 18.0265 4.03841 18.1178L4.225 18.125ZM13.3198 13.125H17.2279C17.7664 13.125 18.2029 13.5448 18.2029 14.0625C18.2029 14.5371 17.8361 14.9294 17.3602 14.9915L17.2279 15H13.3198C12.7813 15 12.3448 14.5802 12.3448 14.0625C12.3448 13.5879 12.7117 13.1956 13.1875 13.1335L13.3198 13.125ZM9.41626 8.75563C9.95475 8.75563 10.3913 9.17538 10.3913 9.69313V14.0625C10.3913 14.5802 9.95475 15 9.41626 15H4.87209C4.33361 15 3.89709 14.5802 3.89709 14.0625V9.69313C3.89709 9.17538 4.33361 8.75563 4.87209 8.75563H9.41626ZM8.44126 10.6306H5.84709V13.125H8.44126V10.6306ZM13.3198 8.75563H17.2279C17.7664 8.75563 18.2029 9.17538 18.2029 9.69313C18.2029 10.1678 17.8361 10.56 17.3602 10.622L17.2279 10.6306H13.3198C12.7813 10.6306 12.3448 10.2109 12.3448 9.69313C12.3448 9.2185 12.7117 8.82625 13.1875 8.76412L13.3198 8.75563ZM4.87209 4.37809H17.2279C17.7664 4.37809 18.2029 4.79782 18.2029 5.31559C18.2029 5.79021 17.8361 6.18245 17.3602 6.24454L17.2279 6.25309H4.87209C4.33361 6.25309 3.89709 5.83336 3.89709 5.31559C3.89709 4.84097 4.26388 4.44872 4.73979 4.38665L4.87209 4.37809Z" fill="#212121"/>
</svg>
