<svg width="61" height="77" viewBox="0 0 61 77" fill="none" xmlns="http://www.w3.org/2000/svg">
<path d="M59.9153 1.05569C60.5978 1.59346 61 2.44132 61 3.34222V54.6422C61 54.7436 60.995 54.8436 60.9853 54.9424C60.995 55.1575 61 55.3744 61 55.5922C61 62.9376 55.3772 68.8922 48.4412 68.8922C41.5051 68.8922 35.8824 62.9376 35.8824 55.5922C35.8824 48.2468 41.5051 42.2922 48.4412 42.2922C51.1094 42.2922 53.5835 43.1734 55.6176 44.6759V22.3727L25.1176 32.0626V62.2422C25.1176 62.3433 25.1127 62.4436 25.1029 62.542C25.1127 62.7575 25.1176 62.9741 25.1176 63.1922C25.1176 70.5376 19.4949 76.4922 12.5588 76.4922C5.62277 76.4922 0 70.5376 0 63.1922C0 55.8468 5.62277 49.8922 12.5588 49.8922C15.2271 49.8922 17.7011 50.7734 19.7353 52.2759V14.7422C19.7353 13.4836 20.5148 12.3741 21.6532 12.0124L57.5356 0.612416C58.3504 0.353522 59.2328 0.51791 59.9153 1.05569ZM25.1176 26.1117L55.6176 16.4217V7.1727L25.1176 16.8627V26.1117ZM12.5588 55.5922C8.59537 55.5922 5.38235 58.9947 5.38235 63.1922C5.38235 67.3897 8.59537 70.7922 12.5588 70.7922C16.5223 70.7922 19.7353 67.3897 19.7353 63.1922C19.7353 58.9947 16.5223 55.5922 12.5588 55.5922ZM41.2647 55.5922C41.2647 59.7897 44.4776 63.1922 48.4412 63.1922C52.4047 63.1922 55.6176 59.7897 55.6176 55.5922C55.6176 51.3947 52.4047 47.9922 48.4412 47.9922C44.4776 47.9922 41.2647 51.3947 41.2647 55.5922Z" fill="black"/>
</svg>
