<svg width="51" height="48" viewBox="0 0 51 48" fill="none" xmlns="http://www.w3.org/2000/svg">
<path d="M4.52382 9.9254C12.0468 0.282074 27.6212 -2.52399 38.7081 4.11292C49.6556 10.6664 53.6818 23.2662 49.198 35.0884C44.9641 46.2512 33.8083 50.6739 25.768 45.0587C22.7562 42.9552 21.5885 40.3183 21.0242 36.0355L20.7546 33.6023L20.6385 32.6236C20.3246 30.3231 19.8428 29.2927 18.8368 28.7528C17.4668 28.0174 16.5546 28.0004 14.7557 28.6716L13.8575 29.0301L13.4003 29.2222C10.8071 30.3064 9.08208 30.6873 6.90018 30.2472L6.38795 30.131L5.96963 30.0162C-1.16438 27.8879 -2.22105 18.5713 4.52382 9.9254ZM7.04141 26.4666L7.3558 26.5563L7.69844 26.6324C8.82156 26.8464 9.78143 26.6678 11.3743 26.0366L12.9146 25.4032C15.9896 24.1893 17.9927 24.0706 20.7048 25.5258C23.0519 26.7856 23.9669 28.7215 24.4335 32.0761L24.5696 33.2068L24.7082 34.5165L24.8287 35.5568C25.2689 38.9091 26.069 40.7052 28.021 42.0684C33.8411 46.133 42.1777 42.8279 45.5938 33.8212C49.4724 23.5953 46.0392 12.8516 36.6819 7.25014C27.2835 1.62397 13.9203 4.03167 7.59175 12.144C2.28455 18.947 2.93549 25.1463 7.04141 26.4666ZM35.7532 21.5548C35.296 19.9126 36.3082 18.2246 38.0139 17.7845C39.7198 17.3445 41.473 18.319 41.9301 19.9613C42.3872 21.6036 41.3748 23.2916 39.6691 23.7317C37.9635 24.1718 36.21 23.197 35.7532 21.5548ZM37.0181 30.1468C36.5612 28.5043 37.5734 26.8163 39.279 26.3762C40.9849 25.9364 42.7381 26.9109 43.1952 28.5531C43.6521 30.1955 42.6399 31.8835 40.9343 32.3236C39.2284 32.7635 37.4752 31.789 37.0181 30.1468ZM30.6923 14.1599C30.2352 12.5176 31.2473 10.8296 32.953 10.3895C34.6589 9.94948 36.4121 10.9241 36.8692 12.5663C37.326 14.2086 36.3139 15.8967 34.6082 16.3367C32.9023 16.7768 31.1491 15.8022 30.6923 14.1599ZM30.6194 36.321C30.1622 34.6788 31.1744 32.9908 32.8803 32.5507C34.586 32.1106 36.3392 33.0851 36.7963 34.7276C37.2534 36.3697 36.241 38.0577 34.5353 38.4978C32.8297 38.9379 31.0762 37.9632 30.6194 36.321ZM21.6742 11.7671C21.2174 10.1248 22.2295 8.43674 23.9352 7.99671C25.6411 7.55666 27.3943 8.53126 27.8514 10.1735C28.3083 11.8158 27.2961 13.5038 25.5904 13.9439C23.8845 14.3839 22.1313 13.4093 21.6742 11.7671Z" fill="black"/>
</svg>
