<svg width="44" height="44" viewBox="0 0 44 44" fill="none" xmlns="http://www.w3.org/2000/svg">
<path d="M10.0146 41.3367C9.14127 41.3367 8.43331 40.6151 8.43331 39.7245C8.43331 38.9083 9.02818 38.2337 9.79999 38.1271L10.0146 38.1122L13.702 38.1114V32.7415L4.74374 32.7422C2.23301 32.7422 0.177858 30.7533 0.010942 28.2364L0 27.9054V5.32894C0 2.76899 1.95054 0.673533 4.41895 0.503344L4.74374 0.492188H37.4203C39.9311 0.492188 41.9863 2.48097 42.1531 4.99778L42.164 5.32894V27.9054C42.164 28.7046 41.9739 29.4587 41.6372 30.1232L39.0015 27.1436V5.32894C39.0015 4.51271 38.4068 3.83817 37.6349 3.73141L37.4203 3.71669H4.74374C3.94321 3.71669 3.28163 4.32322 3.17693 5.11017L3.16249 5.32894V27.9054C3.16249 28.7216 3.75736 29.3962 4.52917 29.5028L4.74374 29.5177H25.3058L25.3044 32.7415H16.8624L16.8645 38.1122H25.3018L25.3001 41.3367H10.0146ZM28.4325 19.9475C29.0433 19.7083 29.7354 19.8775 30.1735 20.3727L43.5931 35.544C44.0586 36.0703 44.1324 36.845 43.7748 37.4529C43.4172 38.0609 42.7124 38.3592 42.0377 38.1885L34.5814 36.3007L30.3011 42.7805C29.9125 43.3686 29.1925 43.6289 28.5274 43.4217C27.8622 43.2145 27.4078 42.5883 27.4083 41.8791L27.4182 21.4517C27.4184 20.7846 27.8217 20.1866 28.4325 19.9475Z" fill="black"/>
</svg>
