<svg width="114" height="94" viewBox="0 0 114 94" fill="none" xmlns="http://www.w3.org/2000/svg">
<path d="M35.6514 17.9421C41.1605 17.9421 45.6265 22.4954 45.6265 28.1122V83.3221C45.6265 88.9389 41.1605 93.4922 35.6514 93.4922H9.9753C4.46608 93.4922 0 88.9389 0 83.3221V28.1122C0 22.4954 4.46608 17.9421 9.9753 17.9421H35.6514ZM35.6514 26.6593H9.9753C9.18828 26.6593 8.55026 27.3098 8.55026 28.1122V83.3221C8.55026 84.1247 9.18828 84.775 9.9753 84.775H35.6514C36.4384 84.775 37.0764 84.1247 37.0764 83.3221V28.1122C37.0764 27.3098 36.4384 26.6593 35.6514 26.6593ZM24.2384 70.2282C26.5995 70.2282 28.5135 72.1792 28.5135 74.5869C28.5135 76.7935 26.9052 78.6165 24.8185 78.9054L24.2384 78.9455H21.3883C19.0272 78.9455 17.1132 76.994 17.1132 74.5869C17.1132 72.3802 18.7215 70.5566 20.8082 70.2678L21.3883 70.2282H24.2384ZM109.725 67.3213C112.086 67.3213 114 69.2728 114 71.6799C114 73.8866 112.391 75.7102 110.305 75.999L109.725 76.0386L51.3015 76.0357V67.3184L109.725 67.3213ZM92.6278 0.492188C98.137 0.492188 102.603 5.04548 102.603 10.6623V54.2501C102.603 59.8669 98.137 64.4202 92.6278 64.4202L51.3015 64.4185V55.7013L92.6278 55.703C93.415 55.703 94.0528 55.0527 94.0528 54.2501V10.6623C94.0528 9.85989 93.415 9.20941 92.6278 9.20941H21.3756C20.5886 9.20941 19.9506 9.85989 19.9506 10.6623L19.9449 12.1093H11.4003V10.6623C11.4003 5.04548 15.8664 0.492188 21.3756 0.492188H92.6278Z" fill="black"/>
</svg>
