<svg width="26" height="27" viewBox="0 0 26 27" fill="none" xmlns="http://www.w3.org/2000/svg">
<path d="M15.4629 6.25854L15.2764 6.43064L0.910519 20.8078C-0.3041 22.0233 -0.303414 23.9932 0.912027 25.208C2.12745 26.4226 4.09738 26.4219 5.31212 25.2063L19.6774 10.8303C20.8803 9.62529 20.8799 7.67328 19.6759 6.46843L19.4615 6.26693C18.3137 5.28317 16.6141 5.28047 15.4629 6.25854ZM14.301 10.3172L15.7925 11.8087L3.85759 23.7528C3.44566 24.165 2.77771 24.1653 2.36559 23.7535C1.95341 23.3415 1.95318 22.6735 2.36508 22.2613L14.301 10.3172ZM20.3134 16.4598L20.1738 16.4504C19.6533 16.4504 19.2231 16.8373 19.155 17.339L19.1456 17.4786V18.5068H18.1175C17.597 18.5068 17.1668 18.8936 17.0987 19.3953L17.0893 19.5349C17.0893 20.0554 17.4762 20.4856 17.9779 20.5537L18.1175 20.5631H19.1456V21.5912C19.1456 22.1117 19.5325 22.5419 20.0342 22.61L20.1738 22.6194C20.6943 22.6194 21.1245 22.2325 21.1926 21.7308L21.202 21.5912V20.5631H22.2301C22.7506 20.5631 23.1808 20.1762 23.2489 19.6745L23.2583 19.5349C23.2583 19.0144 22.8714 18.5842 22.3697 18.5161L22.2301 18.5068H21.202V17.4786C21.202 16.9581 20.8151 16.5279 20.3134 16.4598ZM18.1843 7.88474L18.2217 7.92225C18.6233 8.32412 18.6235 8.97551 18.2225 9.37722L17.247 10.3542L15.7541 8.86131L16.7543 7.86149C17.1573 7.48313 17.7905 7.49081 18.1843 7.88474ZM6.60461 2.75113L6.46509 2.74174C5.94457 2.74174 5.51441 3.12853 5.44633 3.63038L5.43694 3.76989V4.79805H4.40879C3.88827 4.79805 3.4581 5.18484 3.39003 5.68669L3.38064 5.8262C3.38064 6.34672 3.76743 6.77688 4.26927 6.84496L4.40879 6.85435H5.43694V7.88251C5.43694 8.40302 5.82373 8.83319 6.32558 8.90127L6.46509 8.91066C6.98561 8.91066 7.41578 8.52387 7.48386 8.02202L7.49325 7.88251V6.85435H8.5214C9.04192 6.85435 9.47208 6.46756 9.54016 5.96571L9.54955 5.8262C9.54955 5.30568 9.16276 4.87551 8.66091 4.80744L8.5214 4.79805H7.49325V3.76989C7.49325 3.24937 7.10646 2.81921 6.60461 2.75113ZM23.0551 0.00939047L22.9155 0C22.395 0 21.9648 0.386791 21.8967 0.888639L21.8874 1.02815V2.05631H20.8592C20.3387 2.05631 19.9085 2.4431 19.8404 2.94495L19.8311 3.08446C19.8311 3.60498 20.2179 4.03514 20.7197 4.10322L20.8592 4.11261H21.8874V5.14076C21.8874 5.66128 22.2742 6.09145 22.776 6.15953L22.9155 6.16892C23.4361 6.16892 23.8662 5.78213 23.9344 5.28028L23.9437 5.14076V4.11261H24.9718C25.4924 4.11261 25.9225 3.72582 25.9907 3.22397L26 3.08446C26 2.56394 25.6131 2.13377 25.1114 2.0657L24.9718 2.05631H23.9437V1.02815C23.9437 0.507633 23.5568 0.0774679 23.0551 0.00939047Z" fill="#212121"/>
</svg>
