<svg width="48" height="47" viewBox="0 0 48 47" fill="none" xmlns="http://www.w3.org/2000/svg">
<path d="M31.814 29.5285C34.6878 29.5285 37.0171 31.6633 37.0171 34.2966V35.5165C37.0171 37.4126 36.2777 39.2461 34.9323 40.6865C31.3013 44.5739 25.7781 46.4922 18.5009 46.4922C11.2225 46.4922 5.70216 44.5732 2.0783 40.6842C0.736919 39.2448 0 37.4141 0 35.5214V34.2966C0 31.6633 2.32949 29.5285 5.20309 29.5285H31.814ZM31.814 32.7088H5.20309C4.24618 32.7088 3.47047 33.4197 3.47047 34.2966V35.5214C3.47047 36.6569 3.91263 37.7554 4.71743 38.6192C7.61714 41.7309 12.1655 43.3119 18.5009 43.3119C24.8365 43.3119 29.3888 41.7307 32.2957 38.6185C33.1031 37.7543 33.5467 36.6542 33.5467 35.5165V34.2966C33.5467 33.4197 32.7709 32.7088 31.814 32.7088ZM41.7622 0.701982C42.5944 0.266267 43.6543 0.531139 44.1297 1.29364C46.653 5.33991 48 9.92572 48 14.6875C48 19.4654 46.644 24.0659 44.1045 28.1218C43.6277 28.8836 42.5671 29.1469 41.7358 28.7097C40.9045 28.2728 40.6174 27.3009 41.0942 26.5393C43.3341 22.9617 44.5295 18.9063 44.5295 14.6875C44.5295 10.4829 43.3422 6.4404 41.1167 2.87153C40.6412 2.10905 40.9302 1.13772 41.7622 0.701982ZM18.5009 4.0965C24.8899 4.0965 30.0693 8.84266 30.0693 14.6973C30.0693 20.552 24.8899 25.2982 18.5009 25.2982C12.112 25.2982 6.93272 20.552 6.93272 14.6973C6.93272 8.84266 12.112 4.0965 18.5009 4.0965ZM33.7445 4.93356C34.5774 4.49945 35.6368 4.76643 36.1106 5.52985C37.8285 8.29869 38.7454 11.4338 38.7454 14.6875C38.7454 17.9486 37.8244 21.0907 36.0988 23.8639C35.6243 24.6269 34.5644 24.8928 33.732 24.4577C32.8995 24.0227 32.6094 23.0516 33.0839 22.2888C34.5128 19.9922 35.275 17.3926 35.275 14.6875C35.275 11.9886 34.5163 9.39462 33.0937 7.10183C32.62 6.3384 32.9113 5.36764 33.7445 4.93356ZM18.5009 7.27674C14.0287 7.27674 10.4032 10.599 10.4032 14.6973C10.4032 18.7956 14.0287 22.1179 18.5009 22.1179C22.9733 22.1179 26.5988 18.7956 26.5988 14.6973C26.5988 10.599 22.9733 7.27674 18.5009 7.27674Z" fill="black"/>
</svg>
