<svg width="47" height="51" viewBox="0 0 47 51" fill="none" xmlns="http://www.w3.org/2000/svg">
<path d="M19.5821 7.99226C19.5821 9.5952 20.6326 10.9632 22.1109 11.4998C23.023 11.7122 23.9758 11.7123 24.8881 11.5C26.3665 10.9637 27.4177 9.59545 27.4177 7.99226C27.4177 5.92116 25.6636 4.24222 23.4999 4.24222C21.336 4.24222 19.5821 5.92116 19.5821 7.99226ZM15.7328 8.98917C15.6875 8.66301 15.6641 8.33026 15.6641 7.99226C15.6641 3.85009 19.1723 0.492188 23.4999 0.492188C27.8273 0.492188 31.3356 3.85009 31.3356 7.99226C31.3356 8.33031 31.3121 8.66314 31.2669 8.98934L38.7799 5.93684C41.7656 4.72373 45.2255 6.04774 46.5148 8.89669C47.8084 11.7554 46.426 15.065 43.4301 16.2823L33.954 20.1324V29.4255L38.8494 43.0343C39.9062 45.9716 38.2751 49.1729 35.2061 50.1841C32.1374 51.1957 28.7932 49.6344 27.7364 46.6971L23.5002 34.9213L19.2642 46.6964C18.2076 49.6339 14.8633 51.1952 11.7945 50.1836C8.72565 49.1724 7.09448 45.9711 8.15117 43.0338L13.0588 29.3912V20.1376L3.56996 16.2823C0.573922 15.065 -0.808391 11.7554 0.485222 8.89669C1.77439 6.04774 5.2344 4.72373 8.22015 5.93684L15.7328 8.98917ZM20.9455 15.0848C20.5143 14.9733 20.0891 14.833 19.673 14.6639L6.68935 9.38874C5.68506 8.98071 4.51394 9.42887 4.08032 10.3871C3.65113 11.3356 4.10678 12.4265 5.10078 12.8304L14.9875 16.8473C16.1935 17.3373 16.9767 18.4699 16.9767 19.7239V29.496C16.9767 29.8422 16.9166 30.186 16.7988 30.5132L11.8555 44.2546C11.5033 45.2338 12.047 46.3009 13.07 46.6379C14.0929 46.9751 15.2077 46.4546 15.5599 45.4756L21.0667 30.168C21.8646 27.9477 25.1389 27.9564 25.9337 30.1672L31.4408 45.4761C31.7929 46.4554 32.9077 46.9756 33.9307 46.6386C34.9535 46.3014 35.4973 45.2343 35.145 44.2553L30.214 30.5475C30.0962 30.22 30.0361 29.8762 30.0361 29.53V19.7187C30.0361 18.4647 30.8192 17.3321 32.0254 16.8421L41.8993 12.8304C42.8931 12.4265 43.3489 11.3356 42.9198 10.3871C42.4859 9.42887 41.315 8.98071 40.3105 9.38874L27.3271 14.6639C26.9102 14.8332 26.4845 14.9737 26.0525 15.0853C25.2525 15.3491 24.3937 15.4923 23.4999 15.4923C22.6053 15.4923 21.746 15.3489 20.9455 15.0848Z" fill="black"/>
</svg>
