<svg width="26" height="26" viewBox="0 0 26 26" fill="none" xmlns="http://www.w3.org/2000/svg">
<path d="M10.7805 3.14964C11.3058 3.14964 11.7317 3.57269 11.7317 4.09453V14.1734H21.878C22.3596 14.1734 22.7576 14.5289 22.8206 14.99L22.8293 15.1183C22.8293 21.3805 17.7188 25.827 11.4146 25.827C5.11051 25.827 0 20.7506 0 14.4883C0 8.22615 4.47636 3.14964 10.7805 3.14964ZM9.82927 5.08604L9.56431 5.11594C4.88521 5.7091 1.90244 9.67915 1.90244 14.4883C1.90244 19.7068 6.16119 23.9373 11.4146 23.9373C16.2561 23.9373 20.2527 20.9743 20.8498 16.3263L20.8786 16.0632H10.7805C10.2989 16.0632 9.90094 15.7076 9.83796 15.2465L9.82927 15.1183V5.08604ZM14.5854 0C20.8895 0 26 5.07651 26 11.3387C26 11.8605 25.5741 12.2836 25.0488 12.2836H14.5854C14.06 12.2836 13.6341 11.8605 13.6341 11.3387V0.944892C13.6341 0.423047 14.06 0 14.5854 0ZM15.5366 1.9364V10.3938H24.0494L24.0206 10.1306C23.4742 5.87821 20.0824 2.50898 15.8015 1.9663L15.5366 1.9364Z" fill="#212121"/>
</svg>
