<svg width="51" height="51" viewBox="0 0 51 51" fill="none" xmlns="http://www.w3.org/2000/svg">
<path d="M22.639 15.4148C20.5563 14.2612 18 15.7675 18 18.1485V31.9063C18 34.2873 20.5563 35.7936 22.639 34.6401L37.0335 26.6676C37.63 26.3373 38 25.7091 38 25.0273C38 24.3456 37.63 23.7176 37.0335 23.3871L22.639 15.4148ZM25.5 0.0273438C11.6929 0.0273438 0.5 11.2202 0.5 25.0273C0.5 38.8343 11.6929 50.0273 25.5 50.0273C39.307 50.0273 50.5 38.8343 50.5 25.0273C50.5 11.2202 39.307 0.0273438 25.5 0.0273438ZM4.25 25.0273C4.25 13.2913 13.764 3.77734 25.5 3.77734C37.236 3.77734 46.75 13.2913 46.75 25.0273C46.75 36.7633 37.236 46.2773 25.5 46.2773C13.764 46.2773 4.25 36.7633 4.25 25.0273Z" fill="#FDE543"/>
</svg>
