<svg width="50" height="50" viewBox="0 0 90 91" fill="none" xmlns="http://www.w3.org/2000/svg">
<path d="M39.8502 28.1896C36.1012 26.1131 31.5 28.8245 31.5 33.1103V57.8744C31.5 62.1602 36.1012 64.8714 39.8502 62.7951L65.7603 48.4446C66.834 47.8502 67.5 46.7193 67.5 45.4922C67.5 44.265 66.834 43.1346 65.7603 42.5397L39.8502 28.1896ZM45 0.492188C20.1472 0.492188 0 20.6394 0 45.4922C0 70.3448 20.1472 90.4922 45 90.4922C69.8526 90.4922 90 70.3448 90 45.4922C90 20.6394 69.8526 0.492188 45 0.492188ZM6.75 45.4922C6.75 24.3673 23.8751 7.24219 45 7.24219C66.1248 7.24219 83.25 24.3673 83.25 45.4922C83.25 66.617 66.1248 83.7422 45 83.7422C23.8751 83.7422 6.75 66.617 6.75 45.4922Z" fill="#323232"/>
</svg>

