<svg width="45" height="49" viewBox="0 0 45 49" fill="none" xmlns="http://www.w3.org/2000/svg">
<path d="M28.75 0.492188C33.2373 0.492188 36.875 3.98436 36.875 8.29219C36.875 9.83911 36.406 11.2809 35.5968 12.4935L41.875 12.4922C43.601 12.4922 45 13.8353 45 15.4922V23.8922C45 25.3427 43.9275 26.5528 42.5023 26.8317L42.5 40.6922C42.5 44.8514 39.1088 48.2503 34.836 48.4799L34.375 48.4922H10.625C6.29243 48.4922 2.75187 45.2366 2.51285 41.1348L2.5 40.6922L2.50013 26.8322C1.07368 26.5543 0 25.3437 0 23.8922V15.4922C0 13.8353 1.3991 12.4922 3.125 12.4922L9.40315 12.4935C8.59408 11.2809 8.125 9.83911 8.125 8.29219C8.125 3.98436 11.7627 0.492188 16.25 0.492188C18.7638 0.492188 21.011 1.58817 22.5015 3.30957C23.989 1.58817 26.2362 0.492188 28.75 0.492188ZM20.625 26.8898H6.25V40.6922C6.25 42.8959 8.01778 44.7031 10.2662 44.8783L10.625 44.8922H20.625V26.8898ZM38.75 26.8898H24.375V44.8922H34.375C36.6705 44.8922 38.553 43.1951 38.7355 41.0366L38.75 40.6922V26.8898ZM20.625 16.0922H3.75V23.2922L20.625 23.2898V16.0922ZM41.25 23.2922V16.0922H24.375V23.2898L41.25 23.2922ZM28.75 4.09219C26.3337 4.09219 24.375 5.97259 24.375 8.29219V12.4898H28.81L29.1088 12.4783C31.3573 12.303 33.125 10.4958 33.125 8.29219C33.125 5.97259 31.1663 4.09219 28.75 4.09219ZM16.25 4.09219C13.8337 4.09219 11.875 5.97259 11.875 8.29219C11.875 10.4958 13.6428 12.303 15.8912 12.4783L16.19 12.4898H20.625V8.29219L20.6105 7.94772C20.428 5.78925 18.5455 4.09219 16.25 4.09219Z" fill="black"/>
</svg>
