<svg width="87" height="88" viewBox="0 0 87 88" fill="none" xmlns="http://www.w3.org/2000/svg">
<path d="M47.2496 24.5653C51.5799 20.2353 58.6007 20.2353 62.9309 24.5653C67.2612 28.8954 67.2612 35.9158 62.9309 40.2458C58.6007 44.5758 51.5799 44.5758 47.2496 40.2458C42.9194 35.9158 42.9194 28.8954 47.2496 24.5653ZM58.2263 29.2695C56.4943 27.5375 53.6863 27.5374 51.9538 29.2695C50.2218 31.0015 50.2218 33.8097 51.9538 35.5417C53.6863 37.2739 56.4943 37.2739 58.2263 35.5417C59.9588 33.8097 59.9588 31.0015 58.2263 29.2695ZM84.7348 10.7783C83.5426 6.94276 80.5385 3.94001 76.7023 2.74953L73.7657 1.83825C63.1496 -1.45629 51.5821 1.40179 43.7217 9.26131L39.305 13.6782C33.2295 9.11602 24.567 9.59874 19.0391 15.1263L13.528 20.6371C12.2289 21.9361 12.2289 24.0422 13.528 25.3412L20.5846 32.3974L19.787 33.1949C16.7558 36.2258 16.7558 41.1404 19.787 44.1714L21.9841 46.3681L15.7943 49.8984C14.8932 50.412 14.2835 51.3168 14.1454 52.3448C14.0073 53.3729 14.3567 54.4063 15.0901 55.1399L32.3398 72.3885C33.0727 73.1212 34.1054 73.4707 35.1326 73.3336C36.1603 73.1961 37.0647 72.5876 37.5796 71.6882L41.1186 65.5016L43.3239 67.7063C46.355 70.7377 51.2694 70.7377 54.3006 67.7063L55.0847 66.9226L62.1352 73.9727C63.4343 75.2713 65.5407 75.2713 66.8398 73.9727L72.3508 68.4616C77.8764 62.9364 78.3612 54.2786 73.8043 48.2042L78.2303 43.778C86.0933 35.9156 88.9506 24.3429 85.6503 13.7246L84.7348 10.7783ZM74.7304 9.10324C76.4739 9.64437 77.8396 11.0093 78.3816 12.7527L79.297 15.699C81.8638 23.9577 79.6416 32.9587 73.5262 39.0741L49.5964 63.0024C49.1631 63.4353 48.4609 63.4353 48.0281 63.0024L24.4915 39.467C24.0584 39.0342 24.0584 38.3321 24.4915 37.8992L48.4264 13.9655C54.5396 7.85254 63.5368 5.62957 71.7937 8.19196L74.7304 9.10324ZM69.0136 52.9946C71.0206 56.3906 70.5651 60.839 67.6462 63.7577L64.4873 66.9164L59.7893 62.2183L69.0136 52.9946ZM23.7435 19.8305C26.6643 16.9099 31.1175 16.4557 34.5148 18.4679L25.289 27.6932L20.5847 22.9892L23.7435 19.8305ZM36.2428 60.6261L33.9661 64.6062L22.8768 53.5179L26.8614 51.2454L36.2428 60.6261ZM19.0081 73.1895C20.3072 71.8904 20.3072 69.7842 19.0081 68.4851C17.709 67.1861 15.6028 67.1861 14.3037 68.4851L3.32669 79.4616C2.02761 80.7607 2.02761 82.8669 3.32669 84.166C4.62581 85.465 6.73204 85.465 8.03111 84.166L19.0081 73.1895ZM10.3832 59.861C11.6823 61.1601 11.6823 63.2663 10.3832 64.5654L5.67877 69.2693C4.37965 70.5683 2.27342 70.5683 0.974341 69.2693C-0.32478 67.9702 -0.32478 65.864 0.974341 64.5654L5.67877 59.861C6.97784 58.562 9.08407 58.562 10.3832 59.861ZM27.6239 81.8229C28.923 80.5238 28.923 78.418 27.6239 77.119C26.3249 75.8199 24.2186 75.8199 22.9195 77.119L18.2242 81.8136C16.9251 83.1126 16.9251 85.2189 18.2242 86.5179C19.5233 87.8169 21.6295 87.8169 22.9286 86.5179L27.6239 81.8229Z" fill="black"/>
</svg>
