<svg xmlns="http://www.w3.org/2000/svg" width="20" height="21" viewBox="0 0 20 21" fill="none">
  <path d="M10.0114 0C10.7954 0.00911079 11.5764 0.100434 12.3416 0.272505C12.6756 0.347621 12.9255 0.628397 12.9634 0.971344L13.1452 2.61565C13.2275 3.37063 13.8598 3.94245 14.6135 3.94325C14.8161 3.94357 15.0165 3.90103 15.2037 3.81752L16.6998 3.15492C17.011 3.0171 17.3746 3.09224 17.6068 3.34237C18.688 4.50655 19.4932 5.90279 19.9619 7.42603C20.0629 7.75449 19.9466 8.11144 19.6721 8.31548L18.346 9.30098C17.9676 9.58119 17.7443 10.0262 17.7443 10.4995C17.7443 10.9727 17.9676 11.4177 18.3468 11.6985L19.674 12.6844C19.9486 12.8883 20.0651 13.2453 19.964 13.5739C19.4955 15.0969 18.6908 16.493 17.6102 17.6574C17.3782 17.9074 17.0149 17.9828 16.7038 17.8453L15.2016 17.1818C14.7718 16.9922 14.2783 17.02 13.8721 17.2567C13.4659 17.4933 13.1957 17.9106 13.1441 18.3806L12.9635 20.0248C12.9262 20.3638 12.6818 20.6427 12.3526 20.7217C10.8055 21.0928 9.19351 21.0928 7.64631 20.7217C7.31719 20.6427 7.07273 20.3638 7.03548 20.0248L6.85516 18.3831C6.80219 17.9139 6.53148 17.4979 6.12567 17.262C5.71986 17.0262 5.22711 16.9985 4.79877 17.1871L3.29627 17.8507C2.98506 17.9882 2.62168 17.9128 2.38962 17.6626C1.30847 16.4969 0.503684 15.099 0.0358398 13.5744C-0.0649306 13.2461 0.0514992 12.8893 0.326006 12.6854L1.65408 11.699C2.03236 11.4188 2.25577 10.9738 2.25577 10.5006C2.25577 10.0273 2.03236 9.58227 1.65358 9.30173L0.326337 8.31694C0.051435 8.11297 -0.0651015 7.75578 0.0360214 7.4271C0.504678 5.90387 1.30988 4.50762 2.39106 3.34345C2.62335 3.09332 2.98689 3.01818 3.29805 3.156L4.79388 3.81848C5.22429 4.00892 5.7191 3.98016 6.12711 3.73983C6.53335 3.50226 6.80381 3.08455 6.85602 2.61439L7.03769 0.971344C7.07563 0.628225 7.32568 0.347352 7.65995 0.272398C8.42615 0.100606 9.20793 0.00931541 10.0114 0ZM10.0116 1.61528C9.52657 1.62103 9.04301 1.66324 8.56469 1.74141L8.44836 2.79374C8.33962 3.7732 7.77663 4.64265 6.9332 5.13589C6.0846 5.63574 5.04996 5.69589 4.14974 5.29758L3.19022 4.87262C2.5793 5.62019 2.09306 6.46301 1.75058 7.36798L2.60276 8.00026C3.39193 8.58482 3.85801 9.51324 3.85801 10.5006C3.85801 11.4878 3.39193 12.4162 2.60359 13.0001L1.75008 13.6341C2.09225 14.5407 2.57858 15.3851 3.18991 16.1341L4.15673 15.7071C5.05196 15.313 6.07954 15.3706 6.92584 15.8625C7.77212 16.3543 8.33663 17.2219 8.4474 18.2028L8.56383 19.2624C9.51407 19.4254 10.4849 19.4254 11.4352 19.2624L11.5516 18.203C11.6593 17.2223 12.2231 16.3517 13.0704 15.8581C13.9177 15.3643 14.9474 15.3063 15.8442 15.7021L16.8103 16.1288C17.421 15.381 17.9072 14.538 18.2496 13.6328L17.3972 12.9997C16.6081 12.4151 16.142 11.4867 16.142 10.4995C16.142 9.51216 16.6081 8.58375 17.3963 7.99991L18.2475 7.36735C17.905 6.46221 17.4187 5.61923 16.8077 4.87154L15.8501 5.29564C15.4599 5.46972 15.0377 5.55931 14.6114 5.55864C13.0416 5.55698 11.724 4.36537 11.5527 2.79336L11.4363 1.74107C10.9605 1.66299 10.4818 1.6209 10.0116 1.61528ZM9.99805 6.4615C12.2103 6.4615 14.0037 8.26958 14.0037 10.5C14.0037 12.7303 12.2103 14.5385 9.99805 14.5385C7.78581 14.5385 5.99245 12.7303 5.99245 10.5C5.99245 8.26958 7.78581 6.4615 9.99805 6.4615ZM9.99805 8.07689C8.67075 8.07689 7.59469 9.16173 7.59469 10.5C7.59469 11.8382 8.67075 12.9231 9.99805 12.9231C11.3254 12.9231 12.4014 11.8382 12.4014 10.5C12.4014 9.16173 11.3254 8.07689 9.99805 8.07689Z" fill="#212121"/>
</svg>