<svg width="44" height="45" viewBox="0 0 44 45" fill="none" xmlns="http://www.w3.org/2000/svg">
<path d="M35.1995 0C35.582 0 35.9501 0.135832 36.2429 0.380295L36.409 0.539797L43.6078 8.47854L43.6751 8.56606C43.899 8.87132 44 9.21746 44 9.55744L43.9967 13.8752C43.9967 16.1121 43.1638 18.1501 41.7981 19.6826L41.7963 43.3125C41.7963 44.1668 41.1758 44.8729 40.3704 44.9847L40.1464 45L3.8534 45C3.01812 45 2.32779 44.3651 2.21854 43.5416L2.20347 43.3125L2.20175 19.6826C0.941071 18.268 0.134517 16.4226 0.0178996 14.3877L0.00324818 13.8752L0.00283016 9.65468C-0.0149231 9.34573 0.050304 9.02785 0.213867 8.73704L0.357434 8.52226L0.443626 8.41934L7.5909 0.539797C7.85108 0.252967 8.19882 0.0693224 8.57316 0.0160874L8.80048 0L35.1995 0ZM28.7799 18.9947L28.7537 19.0345C27.2162 21.1374 24.7622 22.4984 21.9974 22.4984C19.2171 22.4984 16.751 21.1221 15.2152 18.9992C13.6809 21.1221 11.2149 22.4984 8.43459 22.4984C7.40259 22.4984 6.4139 22.3088 5.50002 21.9618L5.50281 41.6228H8.79964L8.80048 26.4398C8.80048 25.5854 9.42118 24.8794 10.2265 24.7678L10.4504 24.7523L20.341 24.7523C21.1763 24.7523 21.8667 25.3872 21.976 26.2107L21.991 26.4398L21.9903 41.6228L38.4949 41.6228L38.4954 21.9634C37.5829 22.3094 36.5955 22.4984 35.5653 22.4984C32.7831 22.4984 30.3157 21.1201 28.7799 18.9947ZM18.6891 28.1273L12.1003 28.1273L12.1003 41.6228H18.6891V28.1273ZM33.5599 24.7523C34.3952 24.7523 35.0855 25.3872 35.1946 26.2107L35.2098 26.4398L35.2098 34.3192C35.2098 35.1736 34.589 35.8796 33.7838 35.9915L33.5599 36.0068L25.8571 36.0068C25.0218 36.0068 24.3315 35.372 24.2221 34.5483L24.2072 34.3192V26.4398C24.2072 25.5854 24.8278 24.8794 25.6332 24.7678L25.8571 24.7523H33.5599ZM31.9084 28.1273H27.5064V32.6318L31.9084 32.6318V28.1273ZM13.5655 11.2545L3.3029 11.2545L3.30312 13.8752L3.31671 14.26L3.37915 14.7803L3.45117 15.1319L3.5598 15.5188L3.67939 15.8515L3.76888 16.063C3.83745 16.2157 3.91298 16.3645 3.99503 16.5089L4.22149 16.8721L4.34093 17.0402L4.62421 17.3905L4.93609 17.7147L5.14783 17.9057L5.24043 17.983C5.93236 18.5465 6.76989 18.931 7.686 19.0681L8.08324 19.1113L8.43459 19.1234C11.1505 19.1234 13.3737 16.9654 13.5542 14.2345L13.566 13.8752L13.5655 11.2545ZM27.128 11.2545L16.8654 11.2545L16.8659 13.8752C16.8659 16.5322 18.7965 18.7281 21.3011 19.0755L21.646 19.1113L21.9974 19.1234C24.7134 19.1234 26.9364 16.9654 27.117 14.2345L27.1289 13.8752L27.128 11.2545ZM40.6949 11.2545L30.4323 11.2545L30.4338 13.8752C30.4338 16.5322 32.3644 18.7281 34.869 19.0755L35.214 19.1113L35.5653 19.1234C36.8067 19.1234 37.9452 18.6725 38.8326 17.9222L39.0302 17.7464L39.2849 17.4906L39.6066 17.1099C39.7254 16.9548 39.836 16.7926 39.9374 16.6241L40.1651 16.204L40.3035 15.8936L40.4317 15.5446L40.4971 15.3296L40.5813 14.9874L40.6436 14.6329L40.6834 14.2578L40.6968 13.8752L40.6949 11.2545ZM15.5358 3.37275L9.51985 3.37275L5.43241 7.8795L14.1806 7.8795L15.5358 3.37275ZM25.0108 3.37275L18.9874 3.37275L17.6323 7.8795L26.3659 7.8795L25.0108 3.37275ZM34.4779 3.37275L28.4625 3.37275L29.8176 7.8795L38.5653 7.8795L34.4779 3.37275Z" fill="black"/>
</svg>
