<svg width="51" height="46" viewBox="0 0 51 46" fill="none" xmlns="http://www.w3.org/2000/svg">
<path d="M33.15 3.6232C33.15 0.926724 29.9 -0.503812 27.8447 1.28784L16.3912 11.2707C16.0412 11.5759 15.589 11.7445 15.1205 11.7445H5.7375C2.56877 11.7445 0 14.2628 0 17.3693V28.6138C0 31.7202 2.56877 34.2386 5.7375 34.2386H15.1204C15.5889 34.2386 16.0411 34.4071 16.3912 34.7123L27.8445 44.6963C29.9 46.4883 33.15 45.0578 33.15 42.3611V3.6232ZM18.9327 14.0732L29.325 5.01514V40.9692L18.9329 31.9102C17.8825 30.9944 16.5259 30.4887 15.1204 30.4887H5.7375C4.68126 30.4887 3.825 29.6492 3.825 28.6138V17.3693C3.825 16.3338 4.68126 15.4944 5.7375 15.4944H15.1205C16.5259 15.4944 17.8824 14.9886 18.9327 14.0732ZM43.3286 7.74142C44.1772 7.12508 45.375 7.30003 46.0038 8.13213C49.1428 12.2872 51 17.4326 51 22.9977C51 28.5628 49.1428 33.7081 46.0038 37.8633C45.375 38.6955 44.1772 38.8705 43.3286 38.254C42.4797 37.6378 42.3014 36.4636 42.93 35.6313C45.5978 32.1002 47.175 27.7323 47.175 22.9977C47.175 18.2633 45.5978 13.8954 42.93 10.364C42.3014 9.53194 42.4797 8.35775 43.3286 7.74142ZM38.6146 13.9213C39.5434 13.4283 40.7041 13.7669 41.207 14.6775C42.5743 17.154 43.35 19.9897 43.35 22.9977C43.35 26.0056 42.5743 28.8415 41.207 31.3179C40.7041 32.2284 39.5434 32.5672 38.6146 32.0742C37.6857 31.5812 37.3402 30.4432 37.843 29.5327C38.9153 27.5908 39.525 25.3668 39.525 22.9977C39.525 20.6285 38.9153 18.4045 37.843 16.4627C37.3402 15.5521 37.6857 14.4142 38.6146 13.9213Z" fill="black"/>
</svg>
