<svg width="85" height="77" viewBox="0 0 85 77" fill="none" xmlns="http://www.w3.org/2000/svg">
<path d="M47.1709 3.47869C45.2577 -0.503334 39.7296 -0.503294 37.8163 3.47869L28.7062 22.4394L8.33518 25.4799C4.05699 26.1184 2.34873 31.5188 5.44446 34.6183L20.1851 49.377L16.7053 70.2172C15.9745 74.5937 20.4468 77.9313 24.2733 75.8648L42.4936 66.0256L60.7141 75.8648C64.5406 77.9313 69.0128 74.5937 68.2821 70.2172L64.8022 49.377L79.5431 34.6183C82.6386 31.5188 80.9305 26.1184 76.6523 25.4799L56.2814 22.4394L47.1709 3.47869ZM33.7683 25.3546L42.4936 7.19482L51.2192 25.3546C51.9788 26.9358 53.4474 28.0318 55.1462 28.2854L74.6567 31.1974L60.5387 45.333C59.3097 46.5637 58.7487 48.3368 59.0388 50.0751L62.3716 70.0346L44.9208 60.6108C43.4012 59.7901 41.5861 59.7901 40.0665 60.6108L22.6158 70.0346L25.9486 50.0751C26.2388 48.3368 25.6778 46.5637 24.4485 45.333L10.3306 31.1974L29.8411 28.2854C31.54 28.0318 33.0086 26.9358 33.7683 25.3546ZM0.635097 6.17284C-0.364657 7.45643 -0.162045 9.32948 1.08764 10.3564L10.7467 18.2935C11.9963 19.3204 13.8199 19.1123 14.8196 17.8287C15.8194 16.5451 15.6168 14.672 14.3671 13.6451L4.70801 5.708C3.45832 4.68109 1.63481 4.8892 0.635097 6.17284ZM84.3648 63.4674C85.3648 62.1836 85.1619 60.3104 83.9124 59.2838L74.2534 51.3466C73.0035 50.3195 71.1802 50.5279 70.1803 51.8113C69.1804 53.0952 69.3833 54.9679 70.6328 55.995L80.2918 63.9321C81.5417 64.9588 83.3649 64.7509 84.3648 63.4674ZM1.08764 59.2838C-0.162045 60.3104 -0.364657 62.1836 0.635097 63.4674C1.63481 64.7509 3.45832 64.9588 4.70801 63.9321L14.3671 55.995C15.6168 54.9679 15.8194 53.0952 14.8196 51.8113C13.8199 50.5279 11.9963 50.3195 10.7467 51.3466L1.08764 59.2838ZM84.3648 6.17284C85.3648 7.45643 85.1619 9.32948 83.9124 10.3564L74.2534 18.2935C73.0035 19.3204 71.1802 19.1123 70.1803 17.8287C69.1804 16.5451 69.3833 14.672 70.6328 13.6451L80.2918 5.708C81.5417 4.68109 83.3649 4.8892 84.3648 6.17284Z" fill="black"/>
</svg>
