<svg width="52" height="49" viewBox="0 0 52 49" fill="none" xmlns="http://www.w3.org/2000/svg">
<path d="M22.8519 1.92551C24.1396 -0.641823 27.8603 -0.641849 29.148 1.92551L35.2798 14.1502L48.9905 16.1105C51.8699 16.5222 53.0195 20.004 50.9361 22.0024L41.0147 31.5178L43.3569 44.9543C43.8487 47.776 40.8387 49.9278 38.2632 48.5955L26 42.2518L13.7367 48.5955C11.1613 49.9278 8.15123 47.776 8.64309 44.9543L10.9852 31.5178L1.06399 22.0024C-1.01959 20.004 0.130152 16.5222 3.00959 16.1105L16.7203 14.1502L22.8519 1.92551ZM26 4.32143L20.1274 16.0297C19.616 17.0492 18.6276 17.7558 17.4842 17.9193L4.35262 19.7968L13.8547 28.9105C14.6821 29.704 15.0596 30.8472 14.8643 31.9679L12.6212 44.8366L24.3664 38.7607C25.3891 38.2316 26.6108 38.2316 27.6335 38.7607L39.3788 44.8366L37.1357 31.9679C36.9404 30.8472 37.318 29.704 38.1452 28.9105L47.6473 19.7968L34.5158 17.9193C33.3724 17.7558 32.384 17.0492 31.8727 16.0297L26 4.32143Z" fill="black"/>
</svg>
