<svg width="77" height="77" viewBox="0 0 77 77" fill="none" xmlns="http://www.w3.org/2000/svg">
<path d="M63.0972 0.492188C70.7754 0.492188 77 6.63582 77 14.2144V43.2578C77 45.7772 75.9857 48.1936 74.1809 49.9754L50.1343 73.7097C48.329 75.4911 45.8809 76.4922 43.3283 76.4922H13.9028C6.22447 76.4922 0 70.3484 0 62.77V14.2144C0 6.63582 6.22447 0.492188 13.9028 0.492188H63.0972ZM63.0972 6.82552H13.9028C9.76831 6.82552 6.41667 10.1336 6.41667 14.2144V62.77C6.41667 66.8507 9.76831 70.1589 13.9028 70.1589H42.7778L42.7816 57.2241C41.8358 57.3634 40.8742 57.4559 39.898 57.5006L38.5038 57.5327C32.7353 57.5327 27.4627 55.9203 22.772 52.7181C21.3147 51.7234 20.9505 49.7507 21.9584 48.3127C22.9664 46.8741 24.9649 46.5144 26.4221 47.5096C30.036 49.9766 34.0349 51.1994 38.5038 51.1994C40.4815 51.1994 42.3671 50.96 44.1681 50.4791C46.2894 46.1353 50.654 43.072 55.7745 42.7435L56.6857 42.7144H70.5833V14.2144C70.5833 10.1336 67.2317 6.82552 63.0972 6.82552ZM66.0446 49.0477H56.6865C52.7587 49.049 49.5367 52.0345 49.2227 55.8312L49.1974 56.4371L49.1944 65.6791L66.0446 49.0477ZM25.6686 20.5526C28.6201 20.5526 31.0126 22.9142 31.0126 25.8274C31.0126 28.7406 28.6201 31.102 25.6686 31.102C22.7171 31.102 20.3244 28.7406 20.3244 25.8274C20.3244 22.9142 22.7171 20.5526 25.6686 20.5526ZM51.335 20.5526C54.2867 20.5526 56.6793 22.9142 56.6793 25.8274C56.6793 28.7406 54.2867 31.102 51.335 31.102C48.3838 31.102 45.9912 28.7406 45.9912 25.8274C45.9912 22.9142 48.3838 20.5526 51.335 20.5526Z" fill="black"/>
</svg>
