<svg width="24" height="24" viewBox="0 0 24 24" fill="none" xmlns="http://www.w3.org/2000/svg">
<path d="M12 0C9.78671 0 7.94376 1.57286 7.63443 3.6H3.31815C3.26443 3.59126 3.21001 3.58694 3.1555 3.58711C3.10841 3.58808 3.06146 3.59238 3.01504 3.6H0.959782C0.834386 3.59831 0.709887 3.62035 0.593522 3.66482C0.477156 3.70929 0.371245 3.77532 0.281942 3.85906C0.19264 3.9428 0.121728 4.04258 0.0733263 4.15261C0.024925 4.26264 0 4.38073 0 4.5C0 4.61927 0.024925 4.73736 0.0733263 4.84739C0.121728 4.95742 0.19264 5.0572 0.281942 5.14094C0.371245 5.22468 0.477156 5.29071 0.593522 5.33518C0.709887 5.37965 0.834386 5.40169 0.959782 5.4H2.30901L3.89727 21.0176C4.06828 22.7016 5.57256 24 7.35103 24H16.6477C18.4263 24 19.9306 22.7017 20.1015 21.0176L21.691 5.4H23.0402C23.1656 5.40169 23.2901 5.37965 23.4065 5.33518C23.5228 5.29071 23.6288 5.22468 23.7181 5.14094C23.8074 5.0572 23.8783 4.95742 23.9267 4.84739C23.9751 4.73736 24 4.61927 24 4.5C24 4.38073 23.9751 4.26264 23.9267 4.15261C23.8783 4.04258 23.8074 3.9428 23.7181 3.85906C23.6288 3.77532 23.5228 3.70929 23.4065 3.66482C23.2901 3.62035 23.1656 3.59831 23.0402 3.6H20.9862C20.8858 3.58451 20.7835 3.58451 20.6831 3.6H16.3656C16.0562 1.57286 14.2133 0 12 0ZM12 1.8C13.1855 1.8 14.1581 2.5609 14.436 3.6H9.56401C9.84194 2.5609 10.8145 1.8 12 1.8ZM4.20901 5.4H19.7898L18.2175 20.8441C18.1386 21.6212 17.4684 22.2 16.6477 22.2H7.35103C6.53158 22.2 5.86006 21.6202 5.78125 20.8441L4.20901 5.4ZM9.77717 8.38711C9.52641 8.39084 9.28746 8.48907 9.1128 8.66024C8.93814 8.8314 8.84206 9.06151 8.84565 9.3V18.3C8.84388 18.4193 8.86705 18.5377 8.91381 18.6483C8.96057 18.759 9.02999 18.8597 9.11804 18.9447C9.20609 19.0296 9.311 19.097 9.4267 19.1431C9.54239 19.1891 9.66655 19.2128 9.79196 19.2128C9.91737 19.2128 10.0415 19.1891 10.1572 19.1431C10.2729 19.097 10.3778 19.0296 10.4659 18.9447C10.5539 18.8597 10.6233 18.759 10.6701 18.6483C10.7169 18.5377 10.74 18.4193 10.7383 18.3V9.3C10.7401 9.17954 10.7165 9.05996 10.6688 8.94834C10.6211 8.83673 10.5504 8.73535 10.4607 8.65022C10.3711 8.56509 10.2644 8.49794 10.147 8.45274C10.0296 8.40754 9.90383 8.38523 9.77717 8.38711ZM14.1933 8.38711C13.9425 8.39084 13.7035 8.48907 13.5289 8.66024C13.3542 8.8314 13.2581 9.06151 13.2617 9.3V18.3C13.26 18.4193 13.2831 18.5377 13.3299 18.6483C13.3767 18.759 13.4461 18.8597 13.5341 18.9447C13.6222 19.0296 13.7271 19.097 13.8428 19.1431C13.9585 19.1891 14.0826 19.2128 14.208 19.2128C14.3335 19.2128 14.4576 19.1891 14.5733 19.1431C14.689 19.097 14.7939 19.0296 14.882 18.9447C14.97 18.8597 15.0394 18.759 15.0862 18.6483C15.133 18.5377 15.1561 18.4193 15.1543 18.3V9.3C15.1562 9.17954 15.1325 9.05996 15.0849 8.94834C15.0372 8.83673 14.9664 8.73535 14.8768 8.65022C14.7872 8.56509 14.6805 8.49794 14.5631 8.45274C14.4457 8.40754 14.3199 8.38523 14.1933 8.38711Z" fill="#636363"/>
</svg>
