<svg width="57" height="58" viewBox="0 0 57 58" fill="none" xmlns="http://www.w3.org/2000/svg">
<g filter="url(#filter0_d_2803_14342)">
<path d="M8 7.39498C8 3.30809 12.4403 0.70944 16.0859 2.66276L46.1439 18.7679C49.952 20.8082 49.952 26.1917 46.1439 28.2322L16.0859 44.3374C12.4402 46.2905 7.99999 43.6918 7.99999 39.6051L8 7.39498Z" fill="#FFE641"/>
<path d="M45.1078 20.7017L45.1079 20.7017C47.3722 21.9148 47.3724 25.085 45.1078 26.2985C45.1078 26.2985 45.1078 26.2985 45.1078 26.2985L15.0499 42.4036C12.8154 43.6006 10.1938 41.9772 10.1938 39.6051L10.1938 7.39498C10.1938 5.02266 12.8155 3.39937 15.0498 4.5965L45.1078 20.7017Z" stroke="black" stroke-width="4.38765" stroke-linejoin="round"/>
</g>
<defs>
<filter id="filter0_d_2803_14342" x="0.979758" y="0.24494" width="55.0405" height="57.0405" filterUnits="userSpaceOnUse" color-interpolation-filters="sRGB">
<feFlood flood-opacity="0" result="BackgroundImageFix"/>
<feColorMatrix in="SourceAlpha" type="matrix" values="0 0 0 0 0 0 0 0 0 0 0 0 0 0 0 0 0 0 127 0" result="hardAlpha"/>
<feOffset dy="5.26518"/>
<feGaussianBlur stdDeviation="3.51012"/>
<feComposite in2="hardAlpha" operator="out"/>
<feColorMatrix type="matrix" values="0 0 0 0 0 0 0 0 0 0 0 0 0 0 0 0 0 0 0.25 0"/>
<feBlend mode="normal" in2="BackgroundImageFix" result="effect1_dropShadow_2803_14342"/>
<feBlend mode="normal" in="SourceGraphic" in2="effect1_dropShadow_2803_14342" result="shape"/>
</filter>
</defs>
</svg>
