<svg width="63" height="63" viewBox="0 0 63 63" fill="none" xmlns="http://www.w3.org/2000/svg">
<path d="M31.4671 0.492187C32.82 0.492187 33.9385 1.49704 34.1156 2.80141L34.1401 3.16403L34.1444 28.9976H59.9885C61.4643 28.9976 62.6608 30.1941 62.6608 31.6699C62.6608 33.0229 61.6553 34.141 60.3512 34.3181L59.9885 34.3423H34.1444L34.1515 60.1721C34.1519 61.648 32.9557 62.8452 31.4799 62.8452C30.1269 62.8452 29.0085 61.8404 28.8314 60.5359L28.8068 60.1732L28.7997 34.3423H2.97023C1.49429 34.3423 0.297852 33.1458 0.297852 31.6699C0.297852 30.317 1.3032 29.1989 2.60761 29.0218L2.97023 28.9976H28.7997L28.7954 3.1651C28.795 1.6892 29.9912 0.492187 31.4671 0.492187Z" fill="black"/>
</svg>
