<svg width="97" height="77" viewBox="0 0 97 77" fill="none" xmlns="http://www.w3.org/2000/svg">
<path d="M15.7625 0.492188C7.05709 0.492188 0 7.40377 0 15.9297V61.0547C0 69.5805 7.05709 76.4922 15.7625 76.4922H81.2375C89.9428 76.4922 97 69.5805 97 61.0547V15.9297C97 7.40377 89.9428 0.492188 81.2375 0.492188H15.7625ZM7.275 15.9297C7.275 11.3388 11.075 7.61719 15.7625 7.61719H81.2375C85.925 7.61719 89.725 11.3388 89.725 15.9297V61.0547C89.725 65.6456 85.925 69.3672 81.2375 69.3672H15.7625C11.075 69.3672 7.275 65.6456 7.275 61.0547V15.9297ZM78.8125 14.7422C76.8036 14.7422 75.175 16.3372 75.175 18.3047V20.6797C75.175 22.6472 76.8036 24.2422 78.8125 24.2422C80.8214 24.2422 82.45 22.6472 82.45 20.6797V18.3047C82.45 16.3372 80.8214 14.7422 78.8125 14.7422ZM75.175 56.3047C75.175 54.3372 76.8036 52.7422 78.8125 52.7422C80.8214 52.7422 82.45 54.3372 82.45 56.3047V58.6797C82.45 60.6471 80.8214 62.2422 78.8125 62.2422C76.8036 62.2422 75.175 60.6471 75.175 58.6797V56.3047ZM78.8125 33.7422C76.8036 33.7422 75.175 35.3372 75.175 37.3047V39.6797C75.175 41.6471 76.8036 43.2422 78.8125 43.2422C80.8214 43.2422 82.45 41.6471 82.45 39.6797V37.3047C82.45 35.3372 80.8214 33.7422 78.8125 33.7422ZM14.55 18.3047C14.55 16.3372 16.1786 14.7422 18.1875 14.7422C20.1964 14.7422 21.825 16.3372 21.825 18.3047V20.6797C21.825 22.6472 20.1964 24.2422 18.1875 24.2422C16.1786 24.2422 14.55 22.6472 14.55 20.6797V18.3047ZM18.1875 52.7422C16.1786 52.7422 14.55 54.3372 14.55 56.3047V58.6797C14.55 60.6471 16.1786 62.2422 18.1875 62.2422C20.1964 62.2422 21.825 60.6471 21.825 58.6797V56.3047C21.825 54.3372 20.1964 52.7422 18.1875 52.7422ZM14.55 37.3047C14.55 35.3372 16.1786 33.7422 18.1875 33.7422C20.1964 33.7422 21.825 35.3372 21.825 37.3047V39.6797C21.825 41.6471 20.1964 43.2422 18.1875 43.2422C16.1786 43.2422 14.55 41.6471 14.55 39.6797V37.3047ZM38.8 27.8105C38.8 25.0593 41.5941 23.3462 43.8173 24.7344L61.6382 35.8635C63.5205 37.0392 63.5205 39.9457 61.6382 41.1208L43.8168 52.2501C41.5941 53.638 38.8 51.9252 38.8 49.174V27.8105Z" fill="black"/>
</svg>
