<svg width="26" height="25" viewBox="0 0 26 25" fill="none" xmlns="http://www.w3.org/2000/svg">
<path d="M0 4.51389C0 2.02093 1.89159 0 4.225 0H21.775C24.1084 0 26 2.02093 26 4.51389V20.4861C26 22.979 24.1084 25 21.775 25H4.225C1.89159 25 0 22.979 0 20.4861V4.51389ZM4.225 2.08333C2.96855 2.08333 1.95 3.17153 1.95 4.51389V20.4861C1.95 21.8285 2.96855 22.9167 4.225 22.9167H21.775C23.0314 22.9167 24.05 21.8285 24.05 20.4861V4.51389C24.05 3.17153 23.0314 2.08333 21.775 2.08333H4.225ZM9.1 8.68153V16.3196C9.1 17.376 10.1601 18.0457 11.0265 17.5365L17.5259 13.7175C18.424 13.1899 18.424 11.8112 17.5259 11.2836L11.0265 7.46456C10.1601 6.95547 9.1 7.62514 9.1 8.68153Z" fill="#212121" fill-opacity="0.9"/>
</svg>
