<svg width="64" height="51" viewBox="0 0 64 51" fill="none" xmlns="http://www.w3.org/2000/svg">
<rect width="64" height="51" rx="10" fill="#FDE543"/>
<path d="M0 9.20833C0 4.1227 4.65622 0 10.4 0H53.6C59.3437 0 64 4.1227 64 9.20833V41.7917C64 46.8772 59.3437 51 53.6 51H10.4C4.65622 51 0 46.8772 0 41.7917V9.20833ZM10.4 4.25C7.3072 4.25 4.8 6.46992 4.8 9.20833V41.7917C4.8 44.5301 7.3072 46.75 10.4 46.75H53.6C56.6928 46.75 59.2 44.5301 59.2 41.7917V9.20833C59.2 6.46992 56.6928 4.25 53.6 4.25H10.4ZM22.4 17.7103V33.2919C22.4 35.447 25.0095 36.8132 27.1421 35.7745L43.1408 27.9837C45.3514 26.9073 45.3514 24.0949 43.1408 23.0186L27.1421 15.2277C25.0095 14.1892 22.4 15.5553 22.4 17.7103Z" fill="#292300"/>
</svg>
