<svg width="46" height="39" viewBox="0 0 46 39" fill="none" xmlns="http://www.w3.org/2000/svg">
<path d="M0 7.3533C0 3.564 3.34666 0.492188 7.475 0.492188H38.525C42.6533 0.492188 46 3.564 46 7.3533V31.6311C46 35.4203 42.6533 38.4922 38.525 38.4922H7.475C3.34666 38.4922 0 35.4203 0 31.6311V7.3533ZM7.475 3.65885C5.25205 3.65885 3.45 5.31291 3.45 7.3533V31.6311C3.45 33.6715 5.25205 35.3255 7.475 35.3255H38.525C40.748 35.3255 42.55 33.6715 42.55 31.6311V7.3533C42.55 5.31291 40.748 3.65885 38.525 3.65885H7.475ZM16.1 13.6881V25.298C16.1 26.9037 17.9756 27.9216 19.5084 27.1477L31.0075 21.3428C32.5963 20.5408 32.5963 18.4453 31.0075 17.6433L19.5084 11.8383C17.9756 11.0645 16.1 12.0824 16.1 13.6881Z" fill="black"/>
</svg>
