<svg width="56" height="47" viewBox="0 0 56 47" fill="none" xmlns="http://www.w3.org/2000/svg">
<g filter="url(#filter0_d_5658_19044)">
<rect x="4" width="48" height="39" rx="10" fill="#FDE543" shape-rendering="crispEdges"/>
<path d="M4 7.04167C4 3.15265 7.49217 0 11.8 0H44.2C48.5078 0 52 3.15265 52 7.04167V31.9583C52 35.8473 48.5078 39 44.2 39H11.8C7.49217 39 4 35.8473 4 31.9583V7.04167ZM11.8 3.25C9.4804 3.25 7.6 4.94758 7.6 7.04167V31.9583C7.6 34.0524 9.4804 35.75 11.8 35.75H44.2C46.5196 35.75 48.4 34.0524 48.4 31.9583V7.04167C48.4 4.94758 46.5196 3.25 44.2 3.25H11.8ZM20.8 13.5432V25.4585C20.8 27.1065 22.7571 28.1513 24.3566 27.357L36.3556 21.3993C38.0135 20.5762 38.0135 18.4256 36.3556 17.6024L24.3566 11.6447C22.7571 10.8505 20.8 11.8952 20.8 13.5432Z" fill="#292300"/>
</g>
<defs>
<filter id="filter0_d_5658_19044" x="0" y="0" width="56" height="47" filterUnits="userSpaceOnUse" color-interpolation-filters="sRGB">
<feFlood flood-opacity="0" result="BackgroundImageFix"/>
<feColorMatrix in="SourceAlpha" type="matrix" values="0 0 0 0 0 0 0 0 0 0 0 0 0 0 0 0 0 0 127 0" result="hardAlpha"/>
<feOffset dy="4"/>
<feGaussianBlur stdDeviation="2"/>
<feComposite in2="hardAlpha" operator="out"/>
<feColorMatrix type="matrix" values="0 0 0 0 0 0 0 0 0 0 0 0 0 0 0 0 0 0 0.35 0"/>
<feBlend mode="normal" in2="BackgroundImageFix" result="effect1_dropShadow_5658_19044"/>
<feBlend mode="normal" in="SourceGraphic" in2="effect1_dropShadow_5658_19044" result="shape"/>
</filter>
</defs>
</svg>
