<svg width="31" height="32" viewBox="0 0 31 32" fill="none" xmlns="http://www.w3.org/2000/svg">
<g filter="url(#filter0_d_5640_15933)">
<path d="M12.697 12.588C12.8276 12.588 12.9581 12.588 13.0887 12.588C17.2703 12.588 21.4524 12.588 25.634 12.5892C25.7663 12.5892 25.8991 12.5875 26.0314 12.592C26.6411 12.6139 26.9783 12.9352 26.9874 13.5378C27.0004 14.3626 26.9936 15.188 26.9942 16.0134C26.9948 18.4699 26.9845 20.9269 26.9999 23.3834C27.0056 24.2774 26.8188 25.0943 26.2267 25.7881C25.4995 26.6399 24.5537 27.0006 23.4439 27C18.4295 26.9972 13.4151 27 8.40076 26.9961C8.04311 26.9961 7.68263 26.9691 7.32783 26.9201C6.10503 26.7519 4.94298 25.6682 4.70568 24.4625C4.63416 24.0979 4.60066 23.7204 4.6001 23.3485C4.59215 20.2635 4.57568 17.178 4.60861 14.0937C4.61769 13.2227 4.45988 12.4052 4.19023 11.5927C3.61459 9.85868 4.37756 8.07906 6.04372 7.39377C6.70224 7.12314 7.41128 6.97066 8.09932 6.77205C9.49469 6.36977 10.8912 5.97029 12.2883 5.57363C13.6763 5.17922 15.066 4.79157 16.4534 4.39659C17.8227 4.00669 19.197 3.63084 20.5572 3.21168C22.0752 2.74357 23.4603 3.04626 24.3897 4.17548C24.6911 4.54119 24.9045 5.00368 25.0612 5.45492C25.3314 6.23192 25.5358 7.03199 25.7481 7.82756C25.8787 8.31537 25.621 8.76716 25.1356 8.90895C23.8231 9.2921 22.5061 9.66176 21.1913 10.0382C19.813 10.4326 18.4352 10.8304 17.0568 11.2236C15.8147 11.5787 14.5709 11.9292 13.3288 12.2836C13.1091 12.3461 12.8923 12.4181 12.6743 12.4851C12.6823 12.5194 12.6902 12.5537 12.6981 12.588H12.697ZM15.7932 14.3941C12.785 14.3941 9.7774 14.3969 6.76923 14.3896C6.51036 14.389 6.40534 14.4402 6.40647 14.7266C6.41669 17.6703 6.41158 20.6141 6.41385 23.5578C6.41442 24.5643 7.03661 25.1906 8.06015 25.1917C13.2153 25.1962 18.3705 25.1962 23.5256 25.1877C23.7839 25.1877 24.0615 25.1399 24.296 25.0381C24.9579 24.7511 25.1776 24.1998 25.1753 23.51C25.1668 20.6039 25.1719 17.6973 25.1719 14.7913C25.1719 14.5269 25.0345 14.3945 24.7598 14.3941C21.7709 14.3941 18.7815 14.3941 15.7926 14.3941H15.7932ZM14.7208 6.80806C14.6328 6.80356 14.5948 6.79231 14.563 6.80187C13.6377 7.06406 12.7146 7.33356 11.7876 7.589C11.5406 7.65708 11.3964 7.79774 11.2772 8.01942C10.7408 9.01866 10.1856 10.0078 9.63888 11.002C9.55997 11.1454 9.49128 11.2951 9.39364 11.4903C9.52591 11.4746 9.59971 11.4757 9.66783 11.4566C10.4484 11.2383 11.2318 11.0273 12.0073 10.7904C12.3081 10.6987 12.6334 10.6756 12.8157 10.306C13.2091 9.50872 13.6678 8.74241 14.0975 7.96259C14.303 7.58956 14.5028 7.21316 14.7219 6.80806H14.7208ZM15.1273 9.85474C15.3021 9.82605 15.4032 9.81986 15.498 9.79285C16.3501 9.54923 17.1982 9.28817 18.0554 9.06311C18.3251 8.99222 18.4636 8.84537 18.5862 8.61694C19.0523 7.74992 19.5365 6.89246 20.0117 6.02993C20.1587 5.76268 20.2972 5.49092 20.4726 5.15953C20.3 5.18766 20.1984 5.19329 20.1031 5.22086C19.251 5.46561 18.404 5.7278 17.5468 5.95173C17.297 6.01699 17.1613 6.13965 17.0478 6.3512C16.5675 7.24242 16.0759 8.12801 15.5882 9.01529C15.4463 9.2741 15.3038 9.53291 15.1273 9.85474ZM8.93325 8.4594C8.81801 8.46615 8.74307 8.45771 8.67552 8.47684C8.08739 8.6462 7.497 8.80824 6.91455 8.99616C6.11639 9.25328 5.71957 9.82942 5.84901 10.6458C5.93586 11.1955 6.13342 11.7278 6.28953 12.2656C6.30316 12.3123 6.38774 12.3776 6.41953 12.3731C6.64036 12.3405 6.68067 12.4119 6.81067 12.1717C7.41979 11.0436 8.22137 9.81592 8.83844 8.69177C8.87194 8.63101 8.89181 8.56236 8.93382 8.45996L8.93325 8.4594ZM23.7652 7.42865C23.5807 6.82719 23.4263 6.27018 23.2338 5.72667C23.1686 5.54156 23.0635 5.18204 22.9324 5.02562C22.7865 4.85177 22.6185 5.0335 22.489 5.276C22.0088 6.17678 21.5086 7.06631 21.0176 7.96147C20.9807 8.02842 20.9597 8.10325 20.9018 8.24841C21.8947 7.96428 22.8098 7.70209 23.7641 7.42865H23.7652Z" fill="black"/>
<path d="M13.5018 20.1118C13.5018 19.348 13.497 18.5843 13.5031 17.8206C13.5104 16.856 14.3108 16.3798 15.1453 16.8572C16.4688 17.6142 17.7869 18.381 19.097 19.16C19.9151 19.6466 19.9224 20.5599 19.1062 21.0495C17.7991 21.834 16.4841 22.6062 15.1575 23.3572C14.3046 23.8401 13.5086 23.3523 13.5031 22.3706C13.4988 21.6179 13.5025 20.8645 13.5025 20.1118H13.5018Z" fill="black"/>
</g>
<defs>
<filter id="filter0_d_5640_15933" x="0" y="0" width="31" height="32" filterUnits="userSpaceOnUse" color-interpolation-filters="sRGB">
<feFlood flood-opacity="0" result="BackgroundImageFix"/>
<feColorMatrix in="SourceAlpha" type="matrix" values="0 0 0 0 0 0 0 0 0 0 0 0 0 0 0 0 0 0 127 0" result="hardAlpha"/>
<feOffset dy="1"/>
<feGaussianBlur stdDeviation="2"/>
<feComposite in2="hardAlpha" operator="out"/>
<feColorMatrix type="matrix" values="0 0 0 0 0 0 0 0 0 0 0 0 0 0 0 0 0 0 0.2 0"/>
<feBlend mode="normal" in2="BackgroundImageFix" result="effect1_dropShadow_5640_15933"/>
<feBlend mode="normal" in="SourceGraphic" in2="effect1_dropShadow_5640_15933" result="shape"/>
</filter>
</defs>
</svg>
