<svg width="115" height="70" viewBox="0 0 115 70" fill="none" xmlns="http://www.w3.org/2000/svg">
<g filter="url(#filter0_d_3044_2112)">
<rect x="5" y="-13" width="105" height="96" rx="48" fill="#FDE543"/>
</g>
<path d="M50.8854 49.5938C50.8298 49.4278 50.7923 49.2559 50.7734 49.0814C50.7294 48.4669 50.7793 47.849 50.9212 47.2502C51.0456 46.6201 51.0585 45.9722 50.9592 45.3374C50.9145 45.0238 50.7757 44.9491 50.4936 45.0824C50.2163 45.2289 49.9623 45.418 49.7404 45.643C49.1484 46.1898 48.6157 46.7918 48.0751 47.3927C47.5345 47.9935 47.0018 48.5794 46.4579 49.1653C46.3026 49.3205 46.139 49.4667 45.9677 49.603C45.9105 49.653 45.8386 49.6819 45.7635 49.685C45.6885 49.6882 45.6145 49.6653 45.5536 49.6202C45.2861 49.4514 45.0209 49.1607 45.1126 48.6667C45.1988 48.1968 45.4215 47.797 45.6789 47.411C45.9196 47.0503 46.2822 46.5333 46.5183 46.1715C46.5434 46.1288 46.5637 46.0833 46.5788 46.0359C46.5989 45.9796 46.5709 45.952 46.5206 45.9681C46.4466 45.9902 46.3753 46.0206 46.3079 46.0589C46.0662 46.2025 45.7942 46.3323 45.5491 46.469C45.2593 46.631 44.8396 46.8217 44.6168 46.8263C44.4221 46.8263 44.3415 46.7217 44.4087 46.5322C44.5101 46.2786 44.6712 46.0548 44.8776 45.8808C44.9836 45.7902 45.0958 45.7077 45.2134 45.6338C45.5618 45.3979 45.911 45.1643 46.2609 44.933C46.543 44.7372 46.846 44.5753 47.1641 44.4505C47.258 44.4158 47.3551 44.3912 47.454 44.377C47.6565 44.346 47.8009 44.4631 47.7897 44.6722C47.7787 44.8584 47.7467 45.0427 47.6946 45.2214C47.623 45.4707 47.285 46.3116 47.2928 46.3174C47.3264 46.299 48.4567 44.9744 48.7343 44.6366C49.0996 44.1662 49.5795 43.8032 50.1254 43.5843C50.5403 43.4255 50.9896 43.3858 51.4248 43.4694C51.8579 43.5498 52.1198 43.8393 52.2004 44.3046C52.2509 44.6179 52.2528 44.9374 52.206 45.2512C52.1276 45.8257 52.0292 46.4001 51.9486 46.9745C51.8865 47.3125 51.8842 47.6592 51.9419 47.9981C51.9866 48.2003 52.0672 48.4117 52.2776 48.4576C52.488 48.5036 52.7868 48.3485 52.9267 48.252C53.3744 47.9395 53.8154 47.6121 54.2574 47.2904C54.4141 47.1755 54.5697 47.0606 54.7264 46.9458C54.7667 46.9127 54.8121 46.8867 54.8607 46.8688C54.8805 46.8602 54.9018 46.8558 54.9233 46.8558C54.9449 46.8558 54.9662 46.8602 54.986 46.8688C55.0018 46.8859 55.0138 46.9065 55.0209 46.9289C55.0281 46.9514 55.0303 46.9752 55.0274 46.9986C54.9057 47.3233 54.7317 47.6247 54.5126 47.8901C54.0185 48.538 53.4331 49.1068 52.7756 49.5777C52.484 49.8007 52.1535 49.9645 51.802 50.0602C51.2704 50.1935 50.9704 49.8615 50.8854 49.5938Z" fill="black"/>
<path d="M29.8426 48.8746C29.8632 48.3534 29.9586 47.8382 30.1258 47.3456C30.4387 46.3927 30.8331 45.47 31.3043 44.5884C31.9373 43.362 32.6368 42.173 33.3994 41.027C33.6993 40.5755 34.053 40.1608 34.3865 39.7334C34.804 39.2277 35.1937 38.6984 35.5538 38.148C35.6704 37.981 35.754 37.7921 35.8 37.592C35.8269 37.4369 35.7563 37.3358 35.603 37.3496C35.4361 37.3644 35.2711 37.3968 35.1106 37.4461C34.26 37.7261 33.4275 38.061 32.6182 38.449C31.5628 38.9384 30.5141 39.4439 29.4621 39.9425C29.3323 40.0034 29.2002 40.0574 29.0704 40.1194C28.9939 40.1571 28.9087 40.1717 28.8245 40.1615C28.7402 40.1513 28.6606 40.1168 28.5947 40.062C28.4526 39.9471 28.4515 39.7817 28.4761 39.6185C28.5095 39.3785 28.5969 39.1497 28.7313 38.9503C28.8657 38.7509 29.0435 38.5864 29.2506 38.4697C29.7328 38.1839 30.243 37.951 30.7727 37.7747C31.7165 37.4502 32.679 37.1859 33.6545 36.9831C34.2041 36.8683 34.7547 36.7465 35.3087 36.65C36.0921 36.5144 36.8755 36.3907 37.6589 36.2789C38.3305 36.1836 39.002 36.1123 39.6735 36.0365C39.8839 36.0135 40.0954 36.0101 40.3058 35.9951C40.5722 35.9768 40.8374 35.9446 41.1038 35.9389C41.4395 35.9308 41.7753 35.932 42.111 35.9492C42.3763 35.963 42.505 36.0951 42.5677 36.3639C42.6908 36.9016 42.2319 37.5231 41.6869 37.5403C41.5204 37.5386 41.3579 37.4875 41.219 37.3933C40.8935 37.1909 40.5347 37.0512 40.1603 36.9808C39.5915 36.8803 39.0068 36.9378 38.467 37.1474C37.8533 37.3839 37.285 37.7297 36.7882 38.1687C35.9279 38.9219 35.1808 39.8014 34.5711 40.7789C33.3461 42.6704 32.4547 44.7683 31.9377 46.9768C31.7243 47.8498 31.6116 48.7455 31.602 49.6455C31.602 49.881 31.4688 50.0235 31.2125 50.0511C30.9887 50.074 30.7738 50.0832 30.5544 50.0878C30.4638 50.091 30.3739 50.0704 30.2932 50.028C30.2125 49.9856 30.1437 49.9227 30.0933 49.8454C29.9281 49.5938 29.8393 49.2976 29.8381 48.9941C29.8404 48.9516 29.8426 48.9126 29.8426 48.8746Z" fill="black"/>
<path d="M73.9438 45.1421C73.7367 44.5953 73.3629 44.1656 72.8246 44.014C71.6584 43.6842 70.3893 44.2288 69.7815 44.6883C69.4861 44.9112 69.1861 45.1283 68.8862 45.3478C68.6142 45.5775 68.3345 45.8073 68.0726 46.0462C67.9015 46.2082 67.767 46.4066 67.6786 46.6275C67.632 46.7372 67.6014 46.8533 67.588 46.9722C67.5712 47.1755 67.6999 47.2571 67.8711 47.1549C67.9891 47.0812 68.1014 46.9982 68.2069 46.9067C68.3736 46.7688 68.5426 46.6287 68.6993 46.4828C68.7396 46.446 68.7922 46.4322 68.8112 46.446C68.8302 46.4598 68.8246 46.523 68.8112 46.5609C68.7616 46.7256 68.6979 46.8856 68.621 47.0388C68.4731 47.3226 68.3883 47.6365 68.3725 47.9579C68.3374 48.3584 68.4327 48.7596 68.6433 49.0987C68.9992 49.6478 69.5264 49.8741 70.1464 49.9029C70.5699 49.9138 70.9904 49.8278 71.3775 49.6513C71.9079 49.4116 72.3797 49.0537 72.7586 48.6035C72.9544 48.383 73.1335 48.144 73.3181 47.9142C73.6464 47.4812 73.8804 46.9809 74.0042 46.4472C74.1143 46.016 74.0932 45.5606 73.9438 45.1421ZM71.3406 48.5484C71.1895 48.6816 71.0406 48.8184 70.8851 48.9459C70.4598 49.2905 69.9897 49.2354 69.6439 48.7988C69.5356 48.6604 69.4574 48.4998 69.4143 48.3279C69.3713 48.1559 69.3645 47.9765 69.3943 47.8016C69.4662 47.2472 69.6832 46.7231 70.0222 46.2852L70.0994 46.1783C70.3875 45.8374 70.7277 45.5468 71.1067 45.3179C71.3836 45.1422 71.6892 45.0192 72.0087 44.9548C72.1071 44.9388 72.2071 44.9353 72.3064 44.9445C72.5157 44.9629 72.5963 45.0985 72.5302 45.3064C72.5002 45.3942 72.4759 45.484 72.4575 45.5752C72.4473 45.7162 72.4727 45.8575 72.5314 45.9853C72.5888 46.1282 72.6371 46.2748 72.6757 46.4242C72.7171 46.657 72.6775 46.8973 72.5638 47.1032C72.5269 47.1813 72.4821 47.2571 72.4407 47.3329C72.128 47.7863 71.7581 48.195 71.3406 48.5484Z" fill="black"/>
<path d="M92.8691 45.1421C92.662 44.5953 92.2882 44.1656 91.7499 44.014C90.5848 43.6842 89.3157 44.2288 88.7068 44.6883C88.4114 44.9112 88.1114 45.1283 87.8115 45.3478C87.5395 45.5775 87.2597 45.8073 86.9979 46.0462C86.8268 46.2082 86.6923 46.4066 86.6039 46.6275C86.5562 46.7368 86.5256 46.8531 86.5133 46.9722C86.4965 47.1755 86.6252 47.2571 86.7953 47.1549C86.9133 47.0812 87.0255 46.9982 87.131 46.9067C87.2967 46.7688 87.4668 46.6287 87.6235 46.4828C87.6638 46.446 87.7153 46.4322 87.7354 46.446C87.7555 46.4598 87.7499 46.523 87.7354 46.5609C87.6863 46.7258 87.6226 46.8858 87.5451 47.0388C87.3971 47.3224 87.3126 47.6364 87.2978 47.9579C87.2627 48.3584 87.358 48.7596 87.5686 49.0987C87.9234 49.6478 88.4517 49.8741 89.0706 49.9029C89.494 49.9136 89.9145 49.8277 90.3017 49.6513C90.8319 49.4118 91.3034 49.0539 91.6816 48.6035C91.8775 48.383 92.0577 48.144 92.2412 47.9142C92.5691 47.4809 92.803 46.9808 92.9273 46.4472C93.0381 46.0163 93.0178 45.5608 92.8691 45.1421ZM90.2659 48.5484C90.1136 48.6816 89.9659 48.8184 89.8092 48.9459C89.3851 49.2905 88.9139 49.2354 88.5692 48.7988C88.4609 48.6604 88.3827 48.4998 88.3396 48.3279C88.2966 48.1559 88.2898 47.9765 88.3196 47.8016C88.3916 47.2474 88.6081 46.7235 88.9463 46.2852L89.0247 46.1783C89.3125 45.8371 89.6528 45.5464 90.0319 45.3179C90.3093 45.1421 90.6153 45.0192 90.9351 44.9548C91.0332 44.9388 91.1328 44.9353 91.2317 44.9445C91.4421 44.9629 91.5227 45.0985 91.4555 45.3064C91.4253 45.3941 91.4014 45.4839 91.3839 45.5752C91.373 45.7162 91.3984 45.8577 91.4578 45.9853C91.5147 46.1284 91.563 46.275 91.6022 46.4242C91.644 46.657 91.6043 46.8975 91.4902 47.1032C91.4533 47.1813 91.4085 47.2571 91.3682 47.3329C91.0549 47.7864 90.6842 48.1952 90.2659 48.5484Z" fill="black"/>
<path d="M70.9835 39.0005C70.7161 37.9585 70.1095 37.214 69.1291 36.8039C68.5141 36.5623 67.8614 36.4377 67.203 36.4363C66.3529 36.4225 65.5037 36.4995 64.6691 36.6661C64.2595 36.7419 63.851 36.8257 63.4459 36.9234C63.062 37.0165 62.6837 37.1313 62.3032 37.2359C62.2707 37.2451 62.2372 37.2531 62.2058 37.2646C61.3812 37.5546 60.5726 37.891 59.7839 38.2721C59.3654 38.4766 58.9479 38.6891 58.5528 38.9327C58.1958 39.1521 57.8679 39.4221 57.5266 39.6656C57.404 39.7517 57.3072 39.8711 57.2468 40.0103C57.1352 40.2594 57.0986 40.537 57.1416 40.8076C57.1975 41.1522 57.4191 41.2602 57.7123 41.089C57.7647 41.059 57.8141 41.024 57.8601 40.9845C57.9552 40.896 58.0514 40.8076 58.1376 40.7099C58.424 40.3637 58.683 39.9945 58.9121 39.6059C59.0165 39.4301 59.1502 39.2746 59.3072 39.1464C59.5477 38.9708 59.8041 38.8193 60.0727 38.6937C60.7822 38.3548 61.5377 38.1595 62.2987 37.9861C62.6546 37.9045 63.0128 37.8344 63.3709 37.7563C63.6227 37.7264 63.8745 37.692 64.1275 37.6678C64.7251 37.607 65.3263 37.5931 65.926 37.6265C66.3936 37.6508 66.8577 37.7228 67.3115 37.8413C67.8711 37.993 68.3893 38.2135 68.8224 38.6133C69.2555 39.0131 69.4827 39.483 69.4424 40.0804C69.4346 40.2022 69.4066 40.3228 69.3887 40.4446C69.2242 40.9535 68.926 41.4059 68.5269 41.7519C68.1083 42.1241 67.6345 42.4254 67.1235 42.6446C66.3185 42.9941 65.4678 43.2198 64.5986 43.3143C64.3949 43.3396 64.1901 43.3591 63.9864 43.3821C63.9749 43.381 63.9633 43.381 63.9518 43.3821L62.9445 43.4189C62.7117 43.4269 62.6087 43.3178 62.6166 43.0742C62.6261 42.9876 62.6407 42.9017 62.6602 42.8169C62.7643 42.5722 62.8482 42.3183 62.9736 42.0874C63.4369 41.2384 63.9171 40.3986 64.3793 39.5496C64.4739 39.3631 64.5465 39.1656 64.5953 38.9614C64.64 38.7983 64.536 38.6972 64.3714 38.7316C64.2982 38.7439 64.2263 38.7631 64.1566 38.7891C63.7022 38.9626 63.3004 39.2394 62.8908 39.4968C62.73 39.6136 62.5903 39.7582 62.4778 39.9241C62.109 40.4241 61.7903 40.961 61.5265 41.5267C61.4213 41.7393 61.3228 41.9564 61.2221 42.1712C61.2159 42.1773 61.2106 42.1843 61.2064 42.1919C60.9423 42.8387 60.1331 44.7699 60.0805 44.8733C59.9585 45.1111 59.8343 45.3477 59.7112 45.5856C59.6228 45.7556 59.531 45.9233 59.4459 46.0956C59.1002 46.7582 58.8194 47.4543 58.6077 48.1739C58.4991 48.5111 58.4609 48.8682 58.4958 49.2216C58.5394 49.5249 58.6827 49.7535 58.9815 49.8374C59.1107 49.8741 59.2453 49.8866 59.3788 49.8741C59.4635 49.8729 59.5457 49.8446 59.6139 49.7931C59.6821 49.7416 59.733 49.6695 59.7593 49.5869C60.1521 48.4381 60.5506 47.295 60.9468 46.1485C60.9546 46.1335 60.9635 46.1186 60.9703 46.1025C61.1314 45.7134 61.3541 45.3543 61.6295 45.0399C62.1062 44.5148 62.7128 44.277 63.3899 44.1966C63.9192 44.1444 64.4513 44.1294 64.9825 44.1518C65.1705 44.1518 65.3597 44.1518 65.5421 44.1518H65.738C66.3072 44.1513 66.8745 44.0846 67.429 43.9531C68.5258 43.6774 69.4782 43.1489 70.2046 42.2413C70.4853 41.9004 70.7119 41.5162 70.8761 41.1028C71.0116 40.7891 71.0933 40.4537 71.1178 40.1114C71.1323 39.736 71.087 39.3608 70.9835 39.0005Z" fill="black"/>
<path d="M43.266 47.7097C43.2489 47.7074 43.2316 47.7074 43.2145 47.7097C42.944 47.7317 42.6802 47.8074 42.4378 47.9326C42.2341 48.0475 42.1413 48.206 41.9309 48.3117C41.8355 48.357 41.7333 48.3853 41.6287 48.3956C41.6052 48.4014 41.5807 48.4016 41.5572 48.3962C41.5336 48.3907 41.5116 48.3798 41.4928 48.3643C41.474 48.3488 41.4589 48.329 41.4487 48.3066C41.4385 48.2841 41.4334 48.2595 41.4339 48.2347C41.425 48.1244 41.4284 48.0134 41.444 47.9039C41.5011 47.5006 41.9208 46.6873 42.0819 46.3185C42.1939 46.0543 42.5565 45.2547 42.6091 45.1249C42.6687 44.9843 42.6859 44.8286 42.6583 44.678C42.6068 44.4206 42.4871 44.3012 42.2185 44.2839C42.1462 44.2776 42.0736 44.2776 42.0014 44.2839C41.8122 44.3058 41.6533 44.3988 41.4261 44.709C41.3713 44.7825 41.2179 45.0008 41.1564 45.0249C41.1044 44.8973 41.0668 44.7639 41.0445 44.6274C41.014 44.4233 40.9082 44.239 40.749 44.1128C40.6382 44.0368 40.5133 43.9852 40.3821 43.9612C40.2509 43.9373 40.1163 43.9416 39.9868 43.9737C39.7347 44.0227 39.4885 44.0998 39.2527 44.2035C38.6072 44.4972 38.0073 44.8866 37.472 45.3592C36.8073 45.9031 36.2246 46.545 35.7429 47.264C35.4804 47.6379 35.297 48.0641 35.2046 48.5151C35.1151 49.0263 35.3098 49.4514 35.7642 49.6823C35.9135 49.7542 36.0685 49.813 36.2275 49.858C36.4369 49.9272 36.6638 49.9141 36.8643 49.8213C37.079 49.7244 37.2875 49.6139 37.4888 49.4904C38.1391 49.0589 38.7555 48.5757 39.3321 48.0452C39.7126 47.7109 40.0887 47.3731 40.4658 47.0377C40.4882 47.0181 40.514 47.0021 40.5599 46.9699C40.5599 47.0319 40.2644 48.1968 40.2689 48.5254C40.2702 48.6621 40.2867 48.7981 40.3181 48.9309C40.3786 49.1676 40.5946 49.495 40.9046 49.5283C41.0817 49.5613 41.2645 49.5352 41.4261 49.4537C42.0081 49.1251 42.4524 48.7184 42.9683 48.2887C43.1082 48.1685 43.237 48.0355 43.3533 47.8912C43.4384 47.7913 43.3959 47.7189 43.266 47.7097ZM40.214 46.2507C39.35 47.0231 38.4349 47.7332 37.4754 48.3761C37.2885 48.499 37.0893 48.6058 36.8912 48.7058C36.7945 48.7534 36.6884 48.7774 36.5812 48.7758C36.345 48.7563 36.2712 48.6127 36.3573 48.3841C36.4491 48.1592 36.5821 47.9544 36.7491 47.781C37.6036 46.8143 38.6246 46.0178 39.7608 45.4316C39.9638 45.3233 40.184 45.2529 40.411 45.2237C40.6505 45.1961 40.8106 45.3202 40.8061 45.543C40.8036 45.5978 40.783 45.65 40.7479 45.6912C40.58 45.8876 40.4018 46.0744 40.214 46.2507Z" fill="black"/>
<path d="M89.9928 39.3876C89.9827 39.3302 89.9749 39.2728 89.9626 39.2153C89.7007 37.9596 88.9934 37.1095 87.7947 36.704C87.3621 36.5618 86.9133 36.4776 86.4596 36.4535C86.1865 36.4363 85.9123 36.4443 85.6381 36.4397C85.3672 36.457 85.0953 36.457 84.8267 36.4926C84.304 36.5615 83.7803 36.6339 83.2598 36.7361C82.6868 36.851 82.1116 36.9659 81.552 37.1359C80.5507 37.449 79.5748 37.842 78.6332 38.3112C78.3366 38.4536 78.049 38.6156 77.758 38.7707L77.6662 38.8167C77.2096 39.0752 76.8067 39.4129 76.3847 39.7242C76.3404 39.7596 76.3025 39.8028 76.2728 39.8518C76.1764 39.9939 76.1093 40.1547 76.0756 40.3244C76.0419 40.4941 76.0424 40.6691 76.077 40.8386C76.1408 41.1752 76.3568 41.2671 76.6455 41.0959C76.6631 41.0866 76.6799 41.0758 76.6959 41.0638C76.8246 40.9489 76.9622 40.834 77.0797 40.703C77.3642 40.3663 77.6172 40.0028 77.8352 39.6174C77.9451 39.4243 78.0939 39.2574 78.2717 39.128C78.548 38.9298 78.8449 38.7638 79.1569 38.6329C79.7906 38.3763 80.4433 38.1723 81.1088 38.0228C81.8856 37.8291 82.6771 37.7042 83.4747 37.6495C84.0111 37.6115 84.5494 37.615 85.0852 37.6598C85.5793 37.6979 86.0675 37.7943 86.5402 37.947C87.0417 38.0959 87.4996 38.3698 87.8731 38.7443C88.0717 38.9405 88.2196 39.1844 88.3036 39.4539C88.3877 39.7234 88.4051 40.0102 88.3543 40.2883C88.2841 40.6613 88.1236 41.0101 87.8876 41.3027C87.4927 41.8042 86.9917 42.2069 86.4226 42.4803C86.1037 42.6423 85.7679 42.7675 85.44 42.9099C85.4288 42.9099 85.4176 42.9099 85.4064 42.9168C84.6187 43.1735 83.8029 43.3286 82.9778 43.3787C82.6107 43.4028 82.2425 43.4131 81.8743 43.4281C81.6247 43.4372 81.4971 43.2948 81.5453 43.0409C81.575 42.8804 81.6204 42.7234 81.6807 42.5722C81.9045 42.0207 83.177 39.7886 83.4132 39.3325C83.4684 39.2169 83.5062 39.0933 83.5251 38.966C83.5542 38.8006 83.4591 38.711 83.3013 38.7362C83.2226 38.7501 83.1454 38.7717 83.0707 38.8006C82.623 38.9752 82.2257 39.2486 81.8195 39.5002C81.58 39.6496 81.4166 39.8931 81.2599 40.1344C81.1804 40.2493 81.0976 40.3641 81.0248 40.4894C80.4115 41.513 79.0103 44.8733 78.9667 44.9606C78.5698 45.6698 78.2126 46.4017 77.8967 47.1526C77.7457 47.5294 77.6237 47.92 77.5073 48.3106C77.4155 48.5989 77.3861 48.9043 77.4211 49.2055C77.4603 49.51 77.5946 49.7489 77.8979 49.8362C78.0321 49.8766 78.1726 49.891 78.312 49.8787C78.3968 49.8772 78.479 49.8481 78.5467 49.7957C78.6145 49.7433 78.6643 49.6702 78.6891 49.5869C78.7619 49.3572 78.8525 49.1274 78.9309 48.8976C79.0562 48.53 79.176 48.1612 79.3013 47.7936C79.4043 47.4915 79.5195 47.1928 79.6169 46.8883C79.7926 46.3415 79.9863 45.8061 80.3209 45.3328C80.5285 45.0351 80.7929 44.7838 81.098 44.5942C81.4031 44.4046 81.7427 44.2807 82.0959 44.2299C82.5737 44.1578 83.0569 44.1297 83.5396 44.1461C84.2649 44.1764 84.9914 44.1514 85.7131 44.0714C86.0696 44.0269 86.4209 43.9461 86.7617 43.8301C86.7763 43.8301 86.7908 43.8301 86.8043 43.8233C87.4064 43.6294 87.9689 43.3241 88.464 42.9226C88.9616 42.517 89.3701 42.0081 89.6627 41.4291C89.9883 40.7926 90.154 40.1171 89.9928 39.3876Z" fill="black"/>
<path d="M77.5083 24.3931C78.0516 24.3931 78.4921 23.941 78.4921 23.3833C78.4921 22.8256 78.0516 22.3735 77.5083 22.3735C76.965 22.3735 76.5245 22.8256 76.5245 23.3833C76.5245 23.941 76.965 24.3931 77.5083 24.3931Z" fill="black"/>
<path d="M66.6478 17.6047C67.002 17.6047 67.2891 17.31 67.2891 16.9464C67.2891 16.5829 67.002 16.2882 66.6478 16.2882C66.2936 16.2882 66.0065 16.5829 66.0065 16.9464C66.0065 17.31 66.2936 17.6047 66.6478 17.6047Z" fill="black"/>
<path d="M71.1279 22.3172C72.0792 22.3172 72.8503 21.5256 72.8503 20.5492C72.8503 19.5727 72.0792 18.7811 71.1279 18.7811C70.1767 18.7811 69.4055 19.5727 69.4055 20.5492C69.4055 21.5256 70.1767 22.3172 71.1279 22.3172Z" fill="black"/>
<path d="M58.583 25.3582C58.8785 25.3582 59.118 25.1123 59.118 24.809C59.118 24.5057 58.8785 24.2599 58.583 24.2599C58.2875 24.2599 58.048 24.5057 58.048 24.809C58.048 25.1123 58.2875 25.3582 58.583 25.3582Z" fill="black"/>
<path d="M81.6011 14.681C82.0604 14.681 82.4327 14.2988 82.4327 13.8274C82.4327 13.356 82.0604 12.9738 81.6011 12.9738C81.1419 12.9738 80.7696 13.356 80.7696 13.8274C80.7696 14.2988 81.1419 14.681 81.6011 14.681Z" fill="black"/>
<path d="M63.7391 22.4149C63.7375 22.5728 63.6765 22.7241 63.5689 22.8371C63.4613 22.9501 63.3154 23.0161 63.1616 23.0214C63.0077 23.0167 62.8611 22.9526 62.7512 22.8419C62.6412 22.7311 62.576 22.582 62.5684 22.424C62.5678 22.3451 62.5824 22.2669 62.6113 22.1938C62.6402 22.1206 62.6828 22.0541 62.7367 21.9978C62.7906 21.9416 62.8548 21.8969 62.9256 21.8661C62.9964 21.8354 63.0724 21.8192 63.1493 21.8186C63.2262 21.818 63.3024 21.833 63.3736 21.8626C63.4449 21.8922 63.5097 21.936 63.5645 21.9913C63.6193 22.0467 63.6629 22.1126 63.6928 22.1853C63.7228 22.2579 63.7385 22.336 63.7391 22.4149Z" fill="black"/>
<path d="M81.1894 19.5795C81.5429 19.5795 81.8295 19.2853 81.8295 18.9224C81.8295 18.5595 81.5429 18.2653 81.1894 18.2653C80.8358 18.2653 80.5492 18.5595 80.5492 18.9224C80.5492 19.2853 80.8358 19.5795 81.1894 19.5795Z" fill="black"/>
<path d="M57.2803 19.799C57.606 19.799 57.8701 19.5279 57.8701 19.1935C57.8701 18.8592 57.606 18.5881 57.2803 18.5881C56.9546 18.5881 56.6905 18.8592 56.6905 19.1935C56.6905 19.5279 56.9546 19.799 57.2803 19.799Z" fill="black"/>
<path d="M67.6428 26.1922C68.034 26.1922 68.3512 25.8666 68.3512 25.465C68.3512 25.0634 68.034 24.7378 67.6428 24.7378C67.2515 24.7378 66.9343 25.0634 66.9343 25.465C66.9343 25.8666 67.2515 26.1922 67.6428 26.1922Z" fill="black"/>
<path d="M74.6187 9C74.7141 8.99799 74.8088 9.01568 74.8974 9.052C74.986 9.08833 75.0665 9.14255 75.1343 9.21145C75.202 9.28036 75.2556 9.36254 75.2918 9.45311C75.328 9.54368 75.3461 9.6408 75.345 9.73869C75.3376 9.93595 75.2567 10.1228 75.1191 10.2606C74.9815 10.3985 74.7976 10.4769 74.6053 10.4797C74.417 10.4758 74.2378 10.3964 74.1058 10.2586C73.9738 10.1208 73.8996 9.9354 73.8991 9.74214C73.8965 9.64425 73.9133 9.54683 73.9485 9.45581C73.9837 9.36479 74.0365 9.28206 74.1038 9.21265C74.1711 9.14324 74.2515 9.0886 74.34 9.05205C74.4285 9.01549 74.5233 8.99778 74.6187 9Z" fill="black"/>
<path d="M75.6852 16.5087C75.5398 16.518 75.394 16.4966 75.257 16.4458C75.1199 16.3949 74.9945 16.3158 74.8884 16.2132C74.7823 16.1106 74.6979 15.9868 74.6403 15.8494C74.5827 15.712 74.5532 15.5639 74.5536 15.4143C74.554 15.2647 74.5843 15.1168 74.6425 14.9797C74.7008 14.8426 74.7859 14.7192 74.8925 14.6172C74.9991 14.5152 75.1249 14.4367 75.2622 14.3866C75.3996 14.3365 75.5454 14.3159 75.6908 14.326C75.8333 14.3237 75.9746 14.3512 76.1064 14.4067C76.2382 14.4622 76.3577 14.5446 76.4575 14.6489C76.5573 14.7532 76.6355 14.8772 76.6872 15.0135C76.739 15.1497 76.7632 15.2953 76.7585 15.4415C76.7589 15.5847 76.7311 15.7265 76.6769 15.8584C76.6227 15.9903 76.5431 16.1097 76.4429 16.2093C76.3427 16.309 76.224 16.3868 76.0938 16.4383C75.9636 16.4897 75.8246 16.5137 75.6852 16.5087Z" fill="black"/>
<path d="M68.509 9.73984C68.8144 9.74303 69.1122 9.83871 69.3648 10.0149C69.6175 10.1911 69.8139 10.4399 69.9294 10.7302C70.0448 11.0205 70.0742 11.3393 70.0139 11.6466C69.9535 11.954 69.8061 12.2362 69.5901 12.4579C69.3741 12.6797 69.0992 12.831 68.7997 12.8929C68.5003 12.9549 68.1897 12.9247 67.9069 12.8062C67.6241 12.6877 67.3817 12.4861 67.2101 12.2267C67.0385 11.9673 66.9453 11.6617 66.9422 11.3482C66.9411 11.1367 66.9809 10.9271 67.0593 10.7314C67.1377 10.5358 67.2531 10.3581 67.3988 10.2085C67.5445 10.059 67.7176 9.94055 67.9082 9.8601C68.0987 9.77965 68.303 9.73878 68.509 9.73984Z" fill="black"/>
<path d="M62.6356 15.3794C62.6418 15.6275 62.6001 15.8745 62.5128 16.1059C62.4256 16.3374 62.2945 16.5488 62.1271 16.7279C61.9598 16.9071 61.7595 17.0504 61.5379 17.1496C61.3163 17.2488 61.0777 17.302 60.836 17.306C60.4714 17.3146 60.1126 17.2119 59.8049 17.011C59.4973 16.8101 59.2546 16.5199 59.1077 16.1774C58.9608 15.8348 58.9163 15.4551 58.9797 15.0865C59.0431 14.718 59.2117 14.377 59.4641 14.1068C59.7165 13.8366 60.0413 13.6494 60.3974 13.5689C60.7535 13.4883 61.1249 13.5181 61.4645 13.6544C61.8041 13.7906 62.0967 14.0273 62.3051 14.3344C62.5136 14.6415 62.6286 15.0052 62.6356 15.3794Z" fill="black"/>
<path d="M61.9853 11.0702C61.8617 11.0706 61.7392 11.0461 61.6249 10.998C61.5105 10.9498 61.4065 10.879 61.3188 10.7896C61.2311 10.7002 61.1614 10.594 61.1136 10.4769C61.0659 10.3599 61.0412 10.2343 61.0407 10.1075C61.0403 9.98059 61.0642 9.85486 61.1111 9.73747C61.158 9.62008 61.2269 9.51332 61.314 9.42328C61.4011 9.33324 61.5046 9.26169 61.6186 9.21272C61.7327 9.16375 61.855 9.13831 61.9786 9.13786C62.2282 9.13694 62.468 9.23786 62.6451 9.4184C62.8223 9.59895 62.9223 9.84433 62.9232 10.1006C62.9241 10.3568 62.8258 10.6029 62.6499 10.7848C62.474 10.9666 62.2349 11.0693 61.9853 11.0702Z" fill="black"/>
<path d="M46.3504 20.9352C46.3638 19.4222 47.5401 18.263 49.0443 18.2814C50.4265 18.2975 51.568 19.4968 51.5803 20.9444C51.5926 22.3919 50.3492 23.6567 48.9301 23.6407C48.2401 23.628 47.5827 23.3371 47.0999 22.8308C46.6172 22.3245 46.348 21.6436 46.3504 20.9352Z" fill="black"/>
<path d="M46.9257 17.0705C46.925 17.4235 46.8224 17.7683 46.6307 18.0614C46.4391 18.3544 46.1671 18.5826 45.8491 18.7169C45.5311 18.8512 45.1815 18.8858 44.8444 18.8161C44.5073 18.7464 44.1979 18.5756 43.9554 18.3254C43.7129 18.0751 43.5482 17.7567 43.482 17.4103C43.4158 17.064 43.4513 16.7052 43.5838 16.3795C43.7163 16.0538 43.9399 15.7758 44.2264 15.5806C44.5129 15.3854 44.8493 15.2818 45.1932 15.2829C45.4218 15.2815 45.6485 15.3269 45.8599 15.4164C46.0713 15.5058 46.2632 15.6376 46.4244 15.804C46.5857 15.9704 46.7131 16.1681 46.7991 16.3855C46.8852 16.603 46.9282 16.8358 46.9257 17.0705Z" fill="black"/>
<path d="M50.4321 26.4748C50.4296 26.8553 50.3173 27.2266 50.1094 27.5416C49.9014 27.8566 49.6071 28.1013 49.2637 28.2446C48.9203 28.388 48.5432 28.4236 48.1801 28.347C47.817 28.2704 47.4841 28.085 47.2236 27.8143C46.9632 27.5435 46.7867 27.1995 46.7167 26.8259C46.6466 26.4522 46.686 26.0656 46.83 25.7149C46.9739 25.3642 47.2159 25.0652 47.5254 24.8557C47.8349 24.6462 48.1979 24.5356 48.5686 24.5379C49.0659 24.5412 49.5416 24.7471 49.891 25.1103C50.2404 25.4736 50.435 25.9643 50.4321 26.4748Z" fill="black"/>
<path d="M45.2111 10.8163C45.446 10.8129 45.6792 10.8584 45.8965 10.9499C46.1139 11.0414 46.311 11.1771 46.476 11.3488C46.6409 11.5205 46.7704 11.7247 46.8565 11.9491C46.9426 12.1734 46.9837 12.4134 46.9772 12.6544C46.9771 13.019 46.8715 13.3754 46.6736 13.6782C46.4757 13.981 46.1946 14.2166 45.866 14.3549C45.5373 14.4933 45.176 14.5282 44.828 14.4552C44.48 14.3822 44.161 14.2046 43.9116 13.945C43.6621 13.6854 43.4936 13.3555 43.4273 12.9973C43.361 12.6391 43.4 12.2687 43.5393 11.9333C43.6786 11.5979 43.912 11.3126 44.2096 11.1137C44.5073 10.9148 44.8559 10.8113 45.2111 10.8163Z" fill="black"/>
<path d="M44.3796 26.0865C44.0279 26.081 43.6856 25.9687 43.3961 25.7637C43.1066 25.5586 42.8827 25.2701 42.7528 24.9346C42.623 24.599 42.5929 24.2315 42.6664 23.8784C42.7399 23.5253 42.9136 23.2025 43.1658 22.9507C43.4179 22.699 43.7371 22.5296 44.083 22.4639C44.4288 22.3982 44.7859 22.4393 45.1091 22.5818C45.4323 22.7244 45.707 22.962 45.8987 23.2648C46.0904 23.5675 46.1903 23.9218 46.1859 24.2828C46.1771 24.7671 45.9824 25.2283 45.6441 25.566C45.3059 25.9038 44.8514 26.0908 44.3796 26.0865Z" fill="black"/>
<path d="M46.4534 28.3417C46.77 28.3533 47.0762 28.4608 47.3334 28.6507C47.5907 28.8405 47.7874 29.1042 47.899 29.4086C48.0106 29.713 48.032 30.0444 47.9605 30.3612C47.889 30.678 47.7278 30.9661 47.4972 31.1891C47.2666 31.4121 46.9769 31.5601 46.6645 31.6145C46.3522 31.6689 46.0311 31.6273 45.7418 31.4948C45.4524 31.3624 45.2077 31.145 45.0384 30.8701C44.8691 30.5953 44.7828 30.2751 44.7903 29.95C44.7938 29.7314 44.84 29.5158 44.926 29.3158C45.0121 29.1158 45.1363 28.9356 45.2913 28.7857C45.4463 28.6358 45.629 28.5192 45.8286 28.443C46.0282 28.3667 46.2406 28.3323 46.4534 28.3417Z" fill="black"/>
<path d="M55.7717 23.8222C55.7718 24.2215 55.6196 24.605 55.3476 24.8906C55.0757 25.1762 54.7057 25.3411 54.3167 25.3501C53.9308 25.3413 53.5634 25.1783 53.2928 24.8957C53.0221 24.6131 52.8697 24.2332 52.8678 23.8369C52.8659 23.4406 53.0147 23.0592 53.2826 22.7739C53.5505 22.4886 53.9163 22.3218 54.3022 22.3092C54.6915 22.3131 55.0637 22.4739 55.3386 22.7569C55.6135 23.0399 55.769 23.4225 55.7717 23.8222Z" fill="black"/>
<path d="M49.0454 16.6615C48.7561 16.6574 48.4745 16.5655 48.236 16.3974C47.9976 16.2292 47.813 15.9923 47.7055 15.7166C47.598 15.4409 47.5724 15.1387 47.632 14.848C47.6916 14.5574 47.8337 14.2915 48.0404 14.0836C48.247 13.8758 48.509 13.7354 48.7933 13.6802C49.0776 13.625 49.3714 13.6575 49.6377 13.7735C49.9041 13.8895 50.131 14.0838 50.2899 14.332C50.4488 14.5802 50.5325 14.8711 50.5306 15.1681C50.5204 15.5662 50.3597 15.9447 50.0825 16.2234C49.8054 16.5022 49.4334 16.6593 49.0454 16.6615Z" fill="black"/>
<path d="M50.2105 28.7012C50.5932 28.7019 50.9607 28.8552 51.2355 29.1287C51.5103 29.4021 51.6708 29.7745 51.6833 30.1671C51.7012 30.9426 51.0118 31.6687 50.2407 31.679C49.8584 31.6743 49.4928 31.5172 49.2213 31.2408C48.9498 30.9645 48.7936 30.5906 48.7858 30.1982C48.7825 29.8061 48.9304 29.4286 49.1974 29.1481C49.4643 28.8676 49.8285 28.707 50.2105 28.7012Z" fill="black"/>
<path d="M57.7538 27.6305C57.7535 27.8965 57.6766 28.1565 57.5327 28.3777C57.3888 28.5989 57.1844 28.7714 56.9451 28.8736C56.7059 28.9757 56.4425 29.0029 56.1883 28.9517C55.934 28.9005 55.7002 28.7732 55.5162 28.5858C55.3323 28.3985 55.2065 28.1594 55.1547 27.8988C55.1029 27.6382 55.1273 27.3677 55.225 27.1213C55.3227 26.875 55.4892 26.6638 55.7036 26.5144C55.918 26.365 56.1707 26.2841 56.4298 26.2818C56.7791 26.2821 57.1142 26.424 57.3621 26.6765C57.6101 26.9291 57.7508 27.272 57.7538 27.6305Z" fill="black"/>
<path d="M40.4109 20.1115C40.4174 19.7341 40.5671 19.3743 40.8282 19.1086C41.0893 18.8429 41.4412 18.6924 41.8088 18.6892C42.5273 18.7053 43.1742 19.3785 43.1731 20.1115C43.1632 20.4885 43.0104 20.8466 42.7473 21.1099C42.4842 21.3731 42.1314 21.5206 41.764 21.5211C41.4043 21.5124 41.062 21.3605 40.8095 21.0974C40.557 20.8344 40.414 20.4808 40.4109 20.1115Z" fill="black"/>
<path d="M41.951 16.8407C41.9537 17.1843 41.8241 17.515 41.5903 17.761C41.3566 18.0069 41.0377 18.1481 40.7031 18.1539C40.3751 18.1433 40.0633 18.0055 39.8304 17.7682C39.5976 17.5309 39.4611 17.2118 39.4485 16.8752C39.4272 16.1859 40.0215 15.5747 40.7143 15.577C40.8767 15.575 41.038 15.6063 41.1885 15.6691C41.3391 15.7318 41.4759 15.8247 41.5911 15.9424C41.7062 16.06 41.7974 16.2001 41.8592 16.3544C41.921 16.5086 41.9522 16.674 41.951 16.8407Z" fill="black"/>
<path d="M40.3483 24.9618C40.0066 24.9604 39.6789 24.8222 39.4349 24.5765C39.191 24.3308 39.0501 23.9971 39.0422 23.6464C39.0491 23.2881 39.1908 22.9463 39.4376 22.6928C39.6843 22.4392 40.0171 22.2935 40.3662 22.2862C40.5405 22.2823 40.7138 22.3144 40.8758 22.3805C41.0379 22.4465 41.1853 22.5453 41.3095 22.6709C41.4337 22.7965 41.5321 22.9464 41.5989 23.1118C41.6656 23.2771 41.6994 23.4545 41.6982 23.6335C41.697 23.8124 41.6609 23.9893 41.5919 24.1537C41.5229 24.3181 41.4225 24.4666 41.2967 24.5904C41.1708 24.7143 41.0221 24.8109 40.8592 24.8747C40.6963 24.9385 40.5226 24.9681 40.3483 24.9618Z" fill="black"/>
<path d="M52.8215 18.3618C52.6001 18.3661 52.3824 18.3028 52.196 18.1801C52.0096 18.0573 51.8628 17.8805 51.7744 17.672C51.6859 17.4636 51.6597 17.2329 51.699 17.0092C51.7383 16.7855 51.8414 16.5787 51.9953 16.4152C52.1491 16.2516 52.3468 16.1386 52.5632 16.0904C52.7797 16.0423 53.0052 16.0611 53.2112 16.1445C53.4172 16.228 53.5945 16.3723 53.7206 16.5592C53.8466 16.7462 53.9158 16.9673 53.9194 17.1946C53.9171 17.4965 53.8019 17.786 53.5976 18.0033C53.3932 18.2205 53.1154 18.3488 52.8215 18.3618Z" fill="black"/>
<path d="M53.5266 27.3835C53.5249 27.5349 53.4941 27.6843 53.4361 27.8234C53.378 27.9625 53.2938 28.0886 53.1884 28.1943C53.0829 28.3 52.9581 28.3834 52.8213 28.4396C52.6844 28.4958 52.5381 28.5238 52.3907 28.522C52.2433 28.5202 52.0976 28.4886 51.9621 28.429C51.8266 28.3695 51.7039 28.2831 51.6009 28.1748C51.4979 28.0665 51.4167 27.9385 51.3619 27.798C51.3071 27.6575 51.2798 27.5073 51.2816 27.356C51.295 26.7379 51.8143 26.2002 52.4008 26.2002C52.701 26.21 52.9859 26.3387 53.1957 26.5593C53.4056 26.7798 53.5242 27.0752 53.5266 27.3835Z" fill="black"/>
<path d="M42.3561 27.9005C42.3693 27.6074 42.489 27.3301 42.6916 27.1231C42.8942 26.9162 43.1651 26.7947 43.4506 26.7827C43.7363 26.7908 44.0081 26.9107 44.2104 27.1179C44.4126 27.3251 44.53 27.6039 44.5385 27.8971C44.5385 28.4807 44.0113 29.0263 43.4506 29.0206C43.1649 29.008 42.894 28.886 42.6915 28.6787C42.4889 28.4714 42.3692 28.1938 42.3561 27.9005Z" fill="black"/>
<path d="M54.5249 29.9374C54.5217 30.1687 54.4302 30.3895 54.2701 30.5523C54.11 30.7151 53.8941 30.807 53.6687 30.8082C53.4434 30.7997 53.2298 30.7029 53.0718 30.5378C52.9138 30.3726 52.8234 30.1516 52.8193 29.9201C52.8256 29.6822 52.9217 29.456 53.0872 29.2893C53.2528 29.1226 53.4749 29.0284 53.7068 29.0264C53.9309 29.0416 54.1408 29.1447 54.293 29.3142C54.4453 29.4838 54.5283 29.7068 54.5249 29.9374Z" fill="black"/>
<path d="M45.5032 27.7385C45.8525 27.7385 46.1356 27.4479 46.1356 27.0894C46.1356 26.731 45.8525 26.4403 45.5032 26.4403C45.154 26.4403 44.8709 26.731 44.8709 27.0894C44.8709 27.4479 45.154 27.7385 45.5032 27.7385Z" fill="black"/>
<path d="M41.3645 27.3341C41.9122 27.3341 42.3561 26.8784 42.3561 26.3163C42.3561 25.7541 41.9122 25.2984 41.3645 25.2984C40.8169 25.2984 40.3729 25.7541 40.3729 26.3163C40.3729 26.8784 40.8169 27.3341 41.3645 27.3341Z" fill="black"/>
<path d="M51.2815 25.3501C51.7161 25.3501 52.0683 24.9885 52.0683 24.5425C52.0683 24.0964 51.7161 23.7349 51.2815 23.7349C50.847 23.7349 50.4948 24.0964 50.4948 24.5425C50.4948 24.9885 50.847 25.3501 51.2815 25.3501Z" fill="black"/>
<path d="M52.6895 14.7166C53.1283 14.7166 53.4841 14.3514 53.4841 13.9009C53.4841 13.4504 53.1283 13.0852 52.6895 13.0852C52.2506 13.0852 51.8948 13.4504 51.8948 13.9009C51.8948 14.3514 52.2506 14.7166 52.6895 14.7166Z" fill="black"/>
<path d="M41.7495 14.7694C42.1364 14.7694 42.4501 14.4474 42.4501 14.0502C42.4501 13.6531 42.1364 13.3311 41.7495 13.3311C41.3626 13.3311 41.0489 13.6531 41.0489 14.0502C41.0489 14.4474 41.3626 14.7694 41.7495 14.7694Z" fill="black"/>
<path d="M39.0176 19.4187C39.2784 19.4187 39.4899 19.2017 39.4899 18.9339C39.4899 18.6662 39.2784 18.4491 39.0176 18.4491C38.7567 18.4491 38.5453 18.6662 38.5453 18.9339C38.5453 19.2017 38.7567 19.4187 39.0176 19.4187Z" fill="black"/>
<path d="M38.937 21.9484C39.3567 21.9484 39.697 21.5992 39.697 21.1684C39.697 20.7376 39.3567 20.3883 38.937 20.3883C38.5174 20.3883 38.1771 20.7376 38.1771 21.1684C38.1771 21.5992 38.5174 21.9484 38.937 21.9484Z" fill="black"/>
<path d="M55.465 12.8256C55.7605 12.8256 56 12.5797 56 12.2765C56 11.9732 55.7605 11.7273 55.465 11.7273C55.1696 11.7273 54.9301 11.9732 54.9301 12.2765C54.9301 12.5797 55.1696 12.8256 55.465 12.8256Z" fill="black"/>
<path d="M52.46 12.0501C52.9675 12.0501 53.3789 11.6279 53.3789 11.1069C53.3789 10.586 52.9675 10.1638 52.46 10.1638C51.9526 10.1638 51.5412 10.586 51.5412 11.1069C51.5412 11.6279 51.9526 12.0501 52.46 12.0501Z" fill="black"/>
<path d="M49.051 12.4488C49.7217 12.4488 50.2653 11.8907 50.2653 11.2023C50.2653 10.5139 49.7217 9.95582 49.051 9.95582C48.3804 9.95582 47.8367 10.5139 47.8367 11.2023C47.8367 11.8907 48.3804 12.4488 49.051 12.4488Z" fill="black"/>
<path d="M53.5814 21.1615C53.9529 21.1615 54.2541 20.8524 54.2541 20.471C54.2541 20.0897 53.9529 19.7806 53.5814 19.7806C53.21 19.7806 52.9088 20.0897 52.9088 20.471C52.9088 20.8524 53.21 21.1615 53.5814 21.1615Z" fill="black"/>
<path d="M44.6023 21.7428C45.1351 21.7428 45.567 21.2994 45.567 20.7525C45.567 20.2056 45.1351 19.7622 44.6023 19.7622C44.0695 19.7622 43.6376 20.2056 43.6376 20.7525C43.6376 21.2994 44.0695 21.7428 44.6023 21.7428Z" fill="black"/>
<path d="M39.7093 25.5638C39.5022 25.326 35.5437 27.6535 33.6277 28.8322C32.0463 29.857 30.5522 30.8312 29.1084 32.0489C27.8733 33.0924 26.7166 34.2299 25.6479 35.4517C24.1236 37.1336 23.282 38.4387 22.2904 40.3676C20.6374 43.5935 20.9306 47.0675 21.2417 48.5633C21.4744 49.6093 21.8621 50.6124 22.3911 51.5376C23.2395 53.069 24.3844 54.3569 25.6267 55.5516C26.7324 56.6143 27.9087 57.5988 29.0748 58.5914C29.79 59.1992 30.4984 59.8161 31.1699 60.4767C31.6075 60.9075 32.0742 61.3073 32.4525 61.799C32.4882 61.8452 32.5387 61.8769 32.595 61.8887C32.6513 61.9005 32.7098 61.8915 32.7603 61.8633C34.0127 61.4279 35.312 61.367 36.6136 61.4221C37.7104 61.4681 38.8038 61.5807 39.8939 61.7346C40.6158 61.8369 41.3343 61.9793 42.0662 61.9931C42.167 61.9931 42.3002 62.023 42.3393 61.8955C42.3785 61.7679 42.2498 61.7208 42.1681 61.6599C41.4966 61.1637 40.7523 60.7903 40.0349 60.3733C38.542 59.5036 37.0378 58.65 35.5582 57.7516C34.0787 56.8533 32.6182 55.9675 31.2114 54.9715C30.0098 54.14 28.8672 53.2221 27.7923 52.2246C26.8007 51.2849 25.9389 50.2498 25.2875 49.0389C24.7435 47.9986 24.4032 46.859 24.2859 45.6844C24.1076 43.683 24.3503 41.6657 24.9977 39.769C25.5438 38.1917 26.3843 36.7821 27.3793 35.4667C28.1627 34.4327 29.0659 33.5321 30.0105 32.6521C31.8929 30.8978 33.9712 29.4376 36.1458 28.0993C37.6108 27.1974 39.913 25.8016 39.7093 25.5638Z" fill="black"/>
<defs>
<filter id="filter0_d_3044_2112" x="0" y="-15" width="115" height="106" filterUnits="userSpaceOnUse" color-interpolation-filters="sRGB">
<feFlood flood-opacity="0" result="BackgroundImageFix"/>
<feColorMatrix in="SourceAlpha" type="matrix" values="0 0 0 0 0 0 0 0 0 0 0 0 0 0 0 0 0 0 127 0" result="hardAlpha"/>
<feOffset dy="3"/>
<feGaussianBlur stdDeviation="2.5"/>
<feComposite in2="hardAlpha" operator="out"/>
<feColorMatrix type="matrix" values="0 0 0 0 0 0 0 0 0 0 0 0 0 0 0 0 0 0 0.75 0"/>
<feBlend mode="normal" in2="BackgroundImageFix" result="effect1_dropShadow_3044_2112"/>
<feBlend mode="normal" in="SourceGraphic" in2="effect1_dropShadow_3044_2112" result="shape"/>
</filter>
</defs>
</svg>
