<svg xmlns="http://www.w3.org/2000/svg" width="64" height="47" viewBox="0 0 64 47" fill="none">
  <path d="M26.5649 35.9983C26.5155 35.851 26.4821 35.6987 26.4654 35.5439C26.4263 34.9989 26.4706 34.451 26.5967 33.92C26.7073 33.3612 26.7188 32.7866 26.6305 32.2237C26.5907 31.9456 26.4674 31.8794 26.2167 31.9976C25.9702 32.1275 25.7444 32.2952 25.5472 32.4947C25.0209 32.9797 24.5474 33.5135 24.0669 34.0463C23.5864 34.5791 23.1128 35.0987 22.6293 35.6183C22.4913 35.7559 22.3459 35.8855 22.1936 36.0064C22.1428 36.0508 22.0789 36.0764 22.0121 36.0792C21.9454 36.0819 21.8797 36.0617 21.8255 36.0217C21.5878 35.872 21.352 35.6142 21.4336 35.1761C21.5102 34.7595 21.7081 34.4049 21.9369 34.0626C22.1508 33.7427 22.4732 33.2843 22.6831 32.9634C22.7054 32.9255 22.7234 32.8852 22.7368 32.8431C22.7547 32.7932 22.7298 32.7688 22.6851 32.783C22.6193 32.8026 22.5559 32.8296 22.496 32.8635C22.2812 32.9909 22.0394 33.106 21.8215 33.2272C21.5639 33.3709 21.1908 33.54 20.9929 33.5441C20.8198 33.5441 20.7481 33.4514 20.8078 33.2833C20.898 33.0584 21.0412 32.8599 21.2247 32.7056C21.3188 32.6253 21.4186 32.5521 21.5231 32.4866C21.8328 32.2774 22.1432 32.0702 22.4543 31.8651C22.705 31.6914 22.9743 31.5479 23.2571 31.4372C23.3405 31.4065 23.4269 31.3846 23.5147 31.372C23.6948 31.3445 23.8231 31.4484 23.8132 31.6339C23.8034 31.799 23.775 31.9624 23.7286 32.1208C23.665 32.3419 23.3645 33.0877 23.3715 33.0927C23.4013 33.0764 24.4061 31.9018 24.6528 31.6023C24.9776 31.1851 25.4041 30.8632 25.8894 30.6691C26.2582 30.5283 26.6575 30.4931 27.0444 30.5672C27.4294 30.6385 27.6622 30.8953 27.7338 31.3079C27.7787 31.5857 27.7804 31.869 27.7388 32.1473C27.6691 32.6567 27.5816 33.1661 27.51 33.6755C27.4548 33.9752 27.4527 34.2827 27.504 34.5832C27.5438 34.7625 27.6154 34.95 27.8024 34.9907C27.9895 35.0315 28.2551 34.8939 28.3794 34.8084C28.7774 34.5313 29.1693 34.2409 29.5623 33.9556C29.7015 33.8538 29.8398 33.7519 29.9791 33.65C30.0149 33.6207 30.0553 33.5976 30.0985 33.5818C30.1161 33.5741 30.1351 33.5702 30.1542 33.5702C30.1733 33.5702 30.1923 33.5741 30.2099 33.5818C30.224 33.597 30.2346 33.6152 30.2409 33.6351C30.2473 33.655 30.2493 33.6761 30.2467 33.6969C30.1385 33.9848 29.9838 34.2521 29.7891 34.4874C29.3499 35.062 28.8295 35.5664 28.2451 35.984C27.9858 36.1818 27.6921 36.327 27.3796 36.4119C26.9071 36.5301 26.6405 36.2357 26.5649 35.9983Z" fill="#0D0D0D"/>
  <path d="M7.86021 35.3605C7.87848 34.8983 7.9633 34.4414 8.11191 34.0045C8.3901 33.1595 8.74064 32.3413 9.15945 31.5595C9.72216 30.472 10.3439 29.4176 11.0218 28.4013C11.2884 28.0009 11.6027 27.6332 11.8992 27.2542C12.2704 26.8057 12.6168 26.3363 12.9368 25.8483C13.0405 25.7001 13.1148 25.5326 13.1557 25.3552C13.1795 25.2176 13.1169 25.128 12.9806 25.1402C12.8322 25.1534 12.6855 25.182 12.5428 25.2258C11.7868 25.4741 11.0468 25.7711 10.3274 26.1152C9.38926 26.5492 8.45711 26.9974 7.52197 27.4396C7.40657 27.4936 7.28919 27.5415 7.17379 27.5965C7.10583 27.6299 7.03002 27.6428 6.95518 27.6338C6.88033 27.6248 6.80952 27.5942 6.75099 27.5455C6.62464 27.4437 6.62365 27.297 6.64553 27.1523C6.67522 26.9394 6.75287 26.7365 6.87236 26.5597C6.99184 26.3829 7.14988 26.237 7.33395 26.1335C7.76261 25.8801 8.21608 25.6735 8.68691 25.5172C9.5259 25.2295 10.3814 24.995 11.2486 24.8152C11.737 24.7134 12.2265 24.6054 12.7189 24.5198C13.4153 24.3996 14.1117 24.2899 14.8081 24.1907C15.405 24.1062 16.0019 24.043 16.5987 23.9758C16.7858 23.9554 16.9738 23.9523 17.1608 23.9391C17.3976 23.9228 17.6334 23.8943 17.8701 23.8892C18.1686 23.882 18.467 23.8831 18.7655 23.8983C19.0012 23.9106 19.1157 24.0277 19.1714 24.2661C19.2808 24.7429 18.8729 25.2941 18.3884 25.3093C18.2404 25.3078 18.096 25.2625 17.9726 25.1789C17.6832 24.9995 17.3643 24.8756 17.0315 24.8132C16.5259 24.724 16.0062 24.775 15.5263 24.9609C14.9808 25.1707 14.4757 25.4772 14.0341 25.8666C13.2694 26.5345 12.6053 27.3145 12.0633 28.1813C10.9744 29.8586 10.1821 31.7191 9.72252 33.6775C9.53279 34.4517 9.43262 35.246 9.42408 36.0441C9.42408 36.253 9.30569 36.3793 9.07788 36.4038C8.87891 36.4241 8.68791 36.4323 8.49292 36.4364C8.41239 36.4392 8.33248 36.4209 8.26076 36.3833C8.18903 36.3457 8.12787 36.29 8.08305 36.2214C7.93619 35.9983 7.85726 35.7356 7.85623 35.4665C7.85822 35.4288 7.86021 35.3942 7.86021 35.3605Z" fill="#0D0D0D"/>
  <path d="M47.0611 32.0505C46.877 31.5656 46.5448 31.1846 46.0662 31.0501C45.0296 30.7577 43.9015 31.2406 43.3613 31.6481C43.0987 31.8458 42.8321 32.0383 42.5655 32.2329C42.3237 32.4367 42.075 32.6404 41.8422 32.8523C41.6902 32.9959 41.5706 33.1719 41.492 33.3678C41.4506 33.4651 41.4234 33.568 41.4115 33.6734C41.3965 33.8538 41.5109 33.9261 41.6632 33.8354C41.7681 33.7701 41.8678 33.6965 41.9616 33.6154C42.1098 33.4931 42.26 33.3688 42.3993 33.2394C42.4351 33.2068 42.4819 33.1946 42.4988 33.2068C42.5157 33.2191 42.5107 33.2751 42.4988 33.3087C42.4547 33.4548 42.3981 33.5966 42.3297 33.7325C42.1983 33.9842 42.1229 34.2625 42.1088 34.5475C42.0777 34.9027 42.1623 35.2585 42.3496 35.5592C42.6659 36.0462 43.1345 36.2469 43.6856 36.2723C44.062 36.282 44.4358 36.2058 44.7799 36.0492C45.2514 35.8367 45.6708 35.5193 46.0076 35.1201C46.1816 34.9245 46.3408 34.7126 46.505 34.5088C46.7968 34.1248 47.0047 33.6812 47.1148 33.2079C47.2127 32.8255 47.1939 32.4217 47.0611 32.0505ZM44.7471 35.0712C44.6128 35.1894 44.4805 35.3106 44.3422 35.4237C43.9642 35.7293 43.5464 35.6804 43.239 35.2933C43.1427 35.1705 43.0732 35.0281 43.0349 34.8756C42.9966 34.7232 42.9906 34.5641 43.0171 34.409C43.081 33.9173 43.2739 33.4526 43.5752 33.0642L43.6439 32.9695C43.9 32.6672 44.2024 32.4094 44.5392 32.2064C44.7854 32.0506 45.057 31.9415 45.341 31.8845C45.4285 31.8702 45.5174 31.8671 45.6056 31.8753C45.7917 31.8916 45.8633 32.0118 45.8046 32.1962C45.7779 32.2741 45.7563 32.3538 45.7399 32.4346C45.7309 32.5596 45.7535 32.6849 45.8056 32.7983C45.8567 32.925 45.8995 33.055 45.9339 33.1875C45.9707 33.3939 45.9355 33.607 45.8345 33.7896C45.8016 33.8589 45.7618 33.9261 45.725 33.9933C45.4471 34.3954 45.1183 34.7578 44.7471 35.0712Z" fill="#0D0D0D"/>
  <path d="M63.8833 32.0505C63.6993 31.5656 63.367 31.1846 62.8885 31.0501C61.8529 30.7577 60.7248 31.2406 60.1836 31.6481C59.921 31.8458 59.6543 32.0383 59.3877 32.2329C59.146 32.4367 58.8973 32.6404 58.6645 32.8523C58.5124 32.9959 58.3929 33.1719 58.3143 33.3678C58.2719 33.4647 58.2447 33.5679 58.2337 33.6734C58.2188 33.8538 58.3332 33.9261 58.4844 33.8354C58.5893 33.7701 58.6891 33.6965 58.7829 33.6154C58.9301 33.4931 59.0813 33.3688 59.2206 33.2394C59.2564 33.2068 59.3022 33.1946 59.3201 33.2068C59.338 33.2191 59.333 33.2751 59.3201 33.3087C59.2764 33.455 59.2198 33.5968 59.151 33.7325C59.0193 33.9841 58.9442 34.2625 58.9311 34.5475C58.8999 34.9027 58.9846 35.2585 59.1718 35.5592C59.4872 36.0462 59.9568 36.2469 60.5069 36.2723C60.8833 36.2819 61.2571 36.2057 61.6012 36.0492C62.0725 35.8369 62.4916 35.5195 62.8278 35.1201C63.0019 34.9245 63.1621 34.7126 63.3252 34.5088C63.6167 34.1246 63.8246 33.681 63.9351 33.2079C64.0336 32.8257 64.0156 32.4219 63.8833 32.0505ZM61.5694 35.0712C61.4341 35.1894 61.3028 35.3106 61.1635 35.4237C60.7865 35.7293 60.3676 35.6804 60.0612 35.2933C59.965 35.1705 59.8954 35.0281 59.8572 34.8756C59.8189 34.7232 59.8128 34.5641 59.8394 34.409C59.9033 33.9175 60.0958 33.4529 60.3965 33.0642L60.4661 32.9695C60.722 32.6669 61.0244 32.4091 61.3615 32.2064C61.608 32.0506 61.88 31.9415 62.1643 31.8845C62.2514 31.8702 62.34 31.8671 62.4279 31.8753C62.6149 31.8916 62.6866 32.0118 62.6269 32.1962C62.6 32.274 62.5787 32.3537 62.5632 32.4346C62.5535 32.5597 62.5761 32.6851 62.6289 32.7983C62.6795 32.9252 62.7224 33.0552 62.7572 33.1875C62.7944 33.3939 62.7591 33.6072 62.6577 33.7896C62.6249 33.8589 62.5851 33.9261 62.5493 33.9933C62.2707 34.3955 61.9412 34.758 61.5694 35.0712Z" fill="#0D0D0D"/>
  <path d="M44.4299 26.6042C44.1921 25.6802 43.6529 25.02 42.7814 24.6563C42.2348 24.4421 41.6546 24.3316 41.0694 24.3303C40.3137 24.3181 39.5589 24.3864 38.8171 24.5341C38.453 24.6013 38.0899 24.6757 37.7297 24.7623C37.3885 24.8448 37.0523 24.9467 36.714 25.0394C36.6852 25.0475 36.6553 25.0546 36.6275 25.0648C35.8944 25.322 35.1757 25.6203 34.4747 25.9583C34.1026 26.1396 33.7315 26.3281 33.3804 26.5441C33.063 26.7387 32.7715 26.9781 32.4681 27.1941C32.3592 27.2704 32.2731 27.3762 32.2194 27.4997C32.1203 27.7206 32.0877 27.9668 32.1259 28.2067C32.1756 28.5124 32.3726 28.6081 32.6332 28.4563C32.6797 28.4297 32.7237 28.3986 32.7646 28.3636C32.8491 28.2852 32.9347 28.2067 33.0113 28.1201C33.2658 27.8131 33.496 27.4857 33.6997 27.1411C33.7925 26.9852 33.9114 26.8473 34.0509 26.7336C34.2647 26.5779 34.4926 26.4435 34.7313 26.3322C35.362 26.0316 36.0336 25.8585 36.71 25.7046C37.0264 25.6323 37.3447 25.5701 37.6631 25.5009C37.8869 25.4744 38.1107 25.4438 38.3356 25.4224C38.8668 25.3684 39.4012 25.3562 39.9343 25.3857C40.3499 25.4073 40.7625 25.4712 41.1658 25.5763C41.6633 25.7107 42.1239 25.9063 42.5089 26.2609C42.8939 26.6154 43.0958 27.0321 43.06 27.5618C43.053 27.6698 43.0282 27.7768 43.0122 27.8848C42.866 28.3361 42.6009 28.7373 42.2462 29.0442C41.8741 29.3742 41.453 29.6414 40.9987 29.8357C40.2832 30.1457 39.527 30.3458 38.7544 30.4297C38.5733 30.4521 38.3913 30.4694 38.2102 30.4898C38.2 30.4888 38.1896 30.4888 38.1794 30.4898L37.284 30.5224C37.0771 30.5295 36.9856 30.4327 36.9926 30.2168C37.0011 30.14 37.014 30.0638 37.0314 29.9886C37.1239 29.7716 37.1985 29.5464 37.3099 29.3416C37.7218 28.5888 38.1485 27.844 38.5594 27.0912C38.6436 26.9258 38.708 26.7507 38.7514 26.5696C38.7912 26.4249 38.6987 26.3352 38.5524 26.3658C38.4874 26.3766 38.4234 26.3937 38.3614 26.4167C37.9575 26.5706 37.6004 26.8161 37.2363 27.0443C37.0934 27.1479 36.9692 27.2761 36.8692 27.4233C36.5414 27.8667 36.2581 28.3428 36.0236 28.8445C35.9301 29.0329 35.8425 29.2255 35.753 29.416C35.7475 29.4214 35.7428 29.4276 35.7391 29.4343C35.5043 30.0079 34.785 31.7205 34.7383 31.8122C34.6299 32.023 34.5194 32.2329 34.41 32.4438C34.3314 32.5946 34.2498 32.7433 34.1742 32.8961C33.8669 33.4837 33.6173 34.101 33.4291 34.7391C33.3326 35.0382 33.2987 35.3548 33.3296 35.6682C33.3684 35.9372 33.4958 36.1399 33.7614 36.2143C33.8762 36.2469 33.9959 36.2579 34.1145 36.2469C34.1898 36.2458 34.2629 36.2207 34.3235 36.175C34.3842 36.1294 34.4294 36.0654 34.4528 35.9922C34.802 34.9734 35.1561 33.9597 35.5083 32.943C35.5152 32.9297 35.5232 32.9165 35.5292 32.9022C35.6724 32.5572 35.8704 32.2388 36.1151 31.9599C36.5389 31.4943 37.0781 31.2834 37.68 31.2121C38.1504 31.1658 38.6234 31.1525 39.0956 31.1724C39.2628 31.1724 39.4309 31.1724 39.593 31.1724H39.7671C40.2731 31.1719 40.7774 31.1128 41.2703 30.9961C42.2452 30.7516 43.0918 30.283 43.7375 29.4781C43.987 29.1758 44.1884 28.8351 44.3344 28.4685C44.4548 28.1903 44.5275 27.8929 44.5492 27.5893C44.5621 27.2565 44.5218 26.9237 44.4299 26.6042Z" fill="#0D0D0D"/>
  <path d="M19.792 34.3275C19.7768 34.3255 19.7615 34.3255 19.7463 34.3275C19.5058 34.3469 19.2713 34.4141 19.0559 34.5251C18.8748 34.627 18.7922 34.7676 18.6052 34.8613C18.5204 34.9015 18.4296 34.9266 18.3366 34.9357C18.3157 34.9409 18.294 34.941 18.2731 34.9362C18.2521 34.9314 18.2325 34.9218 18.2158 34.908C18.1991 34.8942 18.1857 34.8767 18.1766 34.8568C18.1675 34.8368 18.1631 34.8151 18.1635 34.7931C18.1555 34.6952 18.1585 34.5968 18.1725 34.4997C18.2232 34.1421 18.5962 33.4208 18.7395 33.0938C18.839 32.8595 19.1613 32.1504 19.2081 32.0353C19.2611 31.9106 19.2763 31.7726 19.2518 31.639C19.2061 31.4108 19.0996 31.3048 18.8609 31.2895C18.7967 31.2839 18.7321 31.2839 18.6679 31.2895C18.4997 31.3089 18.3585 31.3914 18.1565 31.6665C18.1078 31.7317 17.9715 31.9252 17.9168 31.9466C17.8706 31.8334 17.8372 31.7151 17.8173 31.5941C17.7902 31.4131 17.6962 31.2497 17.5547 31.1377C17.4562 31.0703 17.3452 31.0246 17.2285 31.0034C17.1119 30.9821 16.9923 30.9859 16.8772 31.0145C16.6531 31.0579 16.4342 31.1262 16.2246 31.2182C15.6509 31.4787 15.1176 31.824 14.6418 32.2431C14.0509 32.7254 13.533 33.2946 13.1048 33.9322C12.8715 34.2638 12.7085 34.6417 12.6263 35.0417C12.5467 35.495 12.7198 35.872 13.1237 36.0767C13.2564 36.1406 13.3942 36.1927 13.5356 36.2326C13.7217 36.2939 13.9234 36.2823 14.1016 36.2C14.2924 36.1141 14.4778 36.0161 14.6567 35.9066C15.2348 35.5239 15.7826 35.0954 16.2952 34.625C16.6335 34.3285 16.9677 34.029 17.303 33.7315C17.3229 33.7142 17.3458 33.6999 17.3865 33.6714C17.3865 33.7264 17.1239 34.7595 17.1279 35.0508C17.129 35.172 17.1437 35.2927 17.1717 35.4105C17.2254 35.6203 17.4174 35.9107 17.6929 35.9402C17.8504 35.9695 18.0129 35.9463 18.1565 35.874C18.6738 35.5826 19.0688 35.222 19.5274 34.841C19.6517 34.7344 19.7663 34.6164 19.8696 34.4885C19.9452 34.3998 19.9074 34.3357 19.792 34.3275ZM17.0791 33.0337C16.3111 33.7186 15.4977 34.3484 14.6448 34.9184C14.4787 35.0274 14.3016 35.1221 14.1255 35.2108C14.0396 35.253 13.9453 35.2743 13.8499 35.2729C13.64 35.2556 13.5744 35.1283 13.651 34.9255C13.7326 34.7261 13.8508 34.5445 13.9992 34.3907C14.7587 33.5334 15.6663 32.8271 16.6762 32.3073C16.8567 32.2112 17.0524 32.1488 17.2542 32.1229C17.4671 32.0984 17.6094 32.2085 17.6054 32.4061C17.6032 32.4546 17.5849 32.501 17.5537 32.5375C17.4044 32.7116 17.246 32.8773 17.0791 33.0337Z" fill="#0D0D0D"/>
  <path d="M61.3266 26.9475C61.3177 26.8966 61.3107 26.8456 61.2998 26.7947C61.067 25.6812 60.4382 24.9273 59.3728 24.5677C58.9882 24.4416 58.5893 24.3669 58.186 24.3456C57.9432 24.3303 57.6995 24.3374 57.4558 24.3334C57.215 24.3486 56.9733 24.3486 56.7345 24.3802C56.2699 24.4413 55.8043 24.5055 55.3418 24.5962C54.8324 24.6981 54.3211 24.8 53.8237 24.9507C52.9336 25.2284 52.0662 25.5769 51.2292 25.9929C50.9655 26.1193 50.7099 26.2629 50.4512 26.4004L50.3696 26.4412C49.9637 26.6704 49.6056 26.9699 49.2305 27.246C49.1911 27.2774 49.1574 27.3157 49.1311 27.3591C49.0453 27.4851 48.9857 27.6278 48.9557 27.7783C48.9258 27.9287 48.9262 28.0839 48.957 28.2342C49.0137 28.5327 49.2057 28.6142 49.4623 28.4624C49.478 28.4541 49.4929 28.4446 49.5071 28.4339C49.6215 28.332 49.7439 28.2302 49.8483 28.114C50.1012 27.8154 50.3261 27.4931 50.5198 27.1513C50.6176 26.98 50.7498 26.832 50.9078 26.7173C51.1535 26.5416 51.4174 26.3943 51.6947 26.2782C52.258 26.0507 52.8382 25.8698 53.4297 25.7372C54.1202 25.5655 54.8238 25.4547 55.5328 25.4061C56.0095 25.3725 56.488 25.3756 56.9643 25.4153C57.4035 25.4491 57.8375 25.5346 58.2576 25.67C58.7034 25.8021 59.1104 26.0449 59.4424 26.377C59.6189 26.5511 59.7505 26.7673 59.8251 27.0063C59.8998 27.2453 59.9153 27.4996 59.8702 27.7462C59.8077 28.077 59.6651 28.3863 59.4554 28.6458C59.1043 29.0906 58.6589 29.4476 58.1531 29.6901C57.8696 29.8337 57.5712 29.9448 57.2797 30.0711C57.2697 30.0711 57.2598 30.0711 57.2498 30.0772C56.5496 30.3048 55.8244 30.4423 55.0911 30.4867C54.7648 30.5081 54.4375 30.5173 54.1102 30.5305C53.8883 30.5387 53.7749 30.4124 53.8177 30.1872C53.8441 30.0449 53.8845 29.9056 53.9381 29.7716C54.137 29.2826 55.2681 27.3031 55.478 26.8986C55.5272 26.7961 55.5607 26.6865 55.5775 26.5736C55.6034 26.4269 55.5188 26.3475 55.3786 26.3699C55.3086 26.3822 55.24 26.4013 55.1736 26.4269C54.7757 26.5818 54.4225 26.8243 54.0614 27.0474C53.8485 27.1798 53.7033 27.3958 53.564 27.6097C53.4934 27.7116 53.4198 27.8135 53.3551 27.9245C52.8099 28.8323 51.5644 31.8122 51.5256 31.8896C51.1729 32.5185 50.8553 33.1675 50.5746 33.8334C50.4403 34.1676 50.3318 34.5139 50.2284 34.8603C50.1468 35.116 50.1207 35.3868 50.1518 35.6539C50.1866 35.9239 50.306 36.1358 50.5756 36.2133C50.6949 36.2491 50.8197 36.2618 50.9436 36.2509C51.019 36.2496 51.0921 36.2238 51.1523 36.1773C51.2125 36.1309 51.2568 36.066 51.2789 35.9922C51.3436 35.7884 51.4241 35.5847 51.4938 35.3809C51.6052 35.0549 51.7116 34.7279 51.8231 34.4019C51.9146 34.1339 52.0171 33.8691 52.1036 33.5991C52.2598 33.1141 52.4319 32.6394 52.7293 32.2197C52.9139 31.9556 53.1489 31.7328 53.4201 31.5647C53.6914 31.3965 53.9931 31.2866 54.3071 31.2416C54.7319 31.1777 55.1614 31.1528 55.5905 31.1673C56.2352 31.1941 56.8809 31.172 57.5224 31.1011C57.8393 31.0616 58.1516 30.99 58.4546 30.8871C58.4675 30.8871 58.4804 30.8871 58.4924 30.881C59.0276 30.7091 59.5275 30.4384 59.9677 30.0823C60.41 29.7226 60.7731 29.2713 61.0331 28.7579C61.3226 28.1935 61.4699 27.5944 61.3266 26.9475Z" fill="#0D0D0D"/>
  <path d="M50.2289 13.6505C50.7119 13.6505 51.1034 13.2496 51.1034 12.755C51.1034 12.2604 50.7119 11.8595 50.2289 11.8595C49.746 11.8595 49.3545 12.2604 49.3545 12.755C49.3545 13.2496 49.746 13.6505 50.2289 13.6505Z" fill="#0D0D0D"/>
  <path d="M40.5759 7.63059C40.8907 7.63059 41.1459 7.36923 41.1459 7.04683C41.1459 6.72443 40.8907 6.46307 40.5759 6.46307C40.2611 6.46307 40.0059 6.72443 40.0059 7.04683C40.0059 7.36923 40.2611 7.63059 40.5759 7.63059Z" fill="#0D0D0D"/>
  <path d="M44.5574 11.8096C45.403 11.8096 46.0884 11.1076 46.0884 10.2417C46.0884 9.37578 45.403 8.67381 44.5574 8.67381C43.7118 8.67381 43.0264 9.37578 43.0264 10.2417C43.0264 11.1076 43.7118 11.8096 44.5574 11.8096Z" fill="#0D0D0D"/>
  <path d="M33.4072 14.5063C33.6698 14.5063 33.8827 14.2883 33.8827 14.0193C33.8827 13.7504 33.6698 13.5323 33.4072 13.5323C33.1445 13.5323 32.9316 13.7504 32.9316 14.0193C32.9316 14.2883 33.1445 14.5063 33.4072 14.5063Z" fill="#0D0D0D"/>
  <path d="M53.8671 5.03782C54.2753 5.03782 54.6062 4.69892 54.6062 4.28087C54.6062 3.86282 54.2753 3.52393 53.8671 3.52393C53.4589 3.52393 53.1279 3.86282 53.1279 4.28087C53.1279 4.69892 53.4589 5.03782 53.8671 5.03782Z" fill="#0D0D0D"/>
  <path d="M37.9898 11.8962C37.9884 12.0363 37.9342 12.1704 37.8385 12.2706C37.7429 12.3708 37.6132 12.4294 37.4765 12.4341C37.3396 12.4299 37.2094 12.3731 37.1116 12.2749C37.0139 12.1767 36.9559 12.0444 36.9492 11.9043C36.9487 11.8344 36.9617 11.765 36.9873 11.7001C37.013 11.6353 37.0509 11.5762 37.0988 11.5264C37.1468 11.4765 37.2038 11.4368 37.2667 11.4096C37.3297 11.3823 37.3972 11.368 37.4655 11.3674C37.5339 11.3669 37.6016 11.3802 37.665 11.4064C37.7283 11.4327 37.7859 11.4715 37.8346 11.5206C37.8833 11.5697 37.9221 11.6282 37.9487 11.6926C37.9753 11.757 37.9893 11.8262 37.9898 11.8962Z" fill="#0D0D0D"/>
  <path d="M53.5017 9.38186C53.8159 9.38186 54.0707 9.12096 54.0707 8.79912C54.0707 8.47729 53.8159 8.21638 53.5017 8.21638C53.1874 8.21638 52.9326 8.47729 52.9326 8.79912C52.9326 9.12096 53.1874 9.38186 53.5017 9.38186Z" fill="#0D0D0D"/>
  <path d="M32.2489 9.57644C32.5384 9.57644 32.7732 9.33607 32.7732 9.03955C32.7732 8.74303 32.5384 8.50266 32.2489 8.50266C31.9593 8.50266 31.7246 8.74303 31.7246 9.03955C31.7246 9.33607 31.9593 9.57644 32.2489 9.57644Z" fill="#0D0D0D"/>
  <path d="M41.4598 15.2459C41.8076 15.2459 42.0895 14.9572 42.0895 14.601C42.0895 14.2449 41.8076 13.9561 41.4598 13.9561C41.112 13.9561 40.8301 14.2449 40.8301 14.601C40.8301 14.9572 41.112 15.2459 41.4598 15.2459Z" fill="#0D0D0D"/>
  <path d="M47.6604 -3.73136e-06C47.7452 -0.00178378 47.8294 0.0138984 47.9081 0.0461112C47.9869 0.0783239 48.0585 0.12641 48.1187 0.187514C48.1789 0.248618 48.2265 0.321494 48.2587 0.401812C48.2909 0.48213 48.307 0.568253 48.3061 0.655065C48.2994 0.829988 48.2276 0.995651 48.1052 1.11791C47.9829 1.24016 47.8194 1.3097 47.6485 1.31217C47.4812 1.30872 47.3218 1.23835 47.2045 1.11612C47.0872 0.993889 47.0212 0.829505 47.0207 0.658123C47.0184 0.571311 47.0334 0.484923 47.0647 0.404206C47.0959 0.323489 47.1429 0.250126 47.2028 0.188575C47.2626 0.127024 47.334 0.0785692 47.4127 0.0461516C47.4913 0.0137339 47.5756 -0.001969 47.6604 -3.73136e-06Z" fill="#0D0D0D"/>
  <path d="M48.6084 6.65868C48.4791 6.66692 48.3496 6.64791 48.2278 6.60283C48.1059 6.55775 47.9944 6.48755 47.9002 6.39658C47.8059 6.30561 47.7308 6.19581 47.6796 6.07395C47.6284 5.9521 47.6022 5.82078 47.6025 5.68813C47.6029 5.55547 47.6298 5.4243 47.6816 5.30272C47.7334 5.18115 47.809 5.07175 47.9038 4.98129C47.9985 4.89083 48.1104 4.82124 48.2324 4.77681C48.3545 4.73239 48.4842 4.71408 48.6134 4.72301C48.74 4.72101 48.8657 4.74536 48.9828 4.79459C49.1 4.84381 49.2062 4.91689 49.2949 5.00939C49.3836 5.10189 49.4531 5.21188 49.4991 5.3327C49.5451 5.45352 49.5667 5.58264 49.5625 5.71224C49.5628 5.83922 49.5381 5.96497 49.4899 6.08197C49.4417 6.19897 49.371 6.3048 49.2819 6.39316C49.1929 6.48151 49.0873 6.55056 48.9716 6.59618C48.8559 6.64181 48.7324 6.66306 48.6084 6.65868Z" fill="#0D0D0D"/>
  <path d="M42.2297 0.656085C42.5012 0.658908 42.7658 0.743756 42.9904 0.899988C43.215 1.05622 43.3896 1.27688 43.4922 1.5343C43.5948 1.79172 43.621 2.07445 43.5673 2.34701C43.5137 2.61958 43.3827 2.86987 43.1907 3.06648C42.9987 3.26309 42.7543 3.39727 42.4881 3.45221C42.222 3.50715 41.9459 3.48039 41.6945 3.37529C41.4431 3.27019 41.2277 3.09143 41.0751 2.86142C40.9225 2.63141 40.8397 2.3604 40.8369 2.08236C40.836 1.8948 40.8714 1.70891 40.9411 1.53543C41.0107 1.36196 41.1133 1.20436 41.2428 1.07173C41.3723 0.939094 41.5262 0.834072 41.6956 0.76273C41.865 0.691387 42.0465 0.65514 42.2297 0.656085Z" fill="#0D0D0D"/>
  <path d="M37.009 5.65724C37.0146 5.87726 36.9775 6.09622 36.8999 6.30147C36.8223 6.50673 36.7058 6.69421 36.5571 6.85307C36.4083 7.01193 36.2303 7.13903 36.0333 7.22702C35.8363 7.31502 35.6242 7.36215 35.4094 7.36572C35.0853 7.37332 34.7664 7.28227 34.4929 7.10409C34.2194 6.92592 34.0037 6.66864 33.8731 6.36483C33.7426 6.06103 33.703 5.72438 33.7593 5.39751C33.8157 5.07064 33.9656 4.76826 34.1899 4.52867C34.4143 4.28909 34.703 4.12307 35.0195 4.05164C35.336 3.98022 35.6662 4.0066 35.968 4.12745C36.2699 4.2483 36.53 4.45818 36.7153 4.73051C36.9006 5.00284 37.0028 5.32537 37.009 5.65724Z" fill="#0D0D0D"/>
  <path d="M36.4314 1.83582C36.3216 1.83622 36.2127 1.81445 36.111 1.77177C36.0094 1.72908 35.9169 1.66631 35.839 1.58703C35.761 1.50776 35.699 1.41353 35.6566 1.30973C35.6142 1.20594 35.5922 1.0946 35.5918 0.982087C35.5914 0.869572 35.6127 0.758079 35.6543 0.653975C35.696 0.549872 35.7573 0.455196 35.8347 0.375352C35.9122 0.295509 36.0042 0.232061 36.1055 0.188633C36.2069 0.145204 36.3156 0.122645 36.4255 0.122244C36.6474 0.121433 36.8605 0.210924 37.0179 0.371029C37.1754 0.531135 37.2643 0.74874 37.2651 0.975974C37.2659 1.20321 37.1785 1.42146 37.0222 1.58271C36.8658 1.74396 36.6533 1.83501 36.4314 1.83582Z" fill="#0D0D0D"/>
  <path d="M22.5332 10.584C22.5452 9.24229 23.5907 8.21434 24.9278 8.23064C26.1564 8.24491 27.1711 9.30851 27.182 10.5922C27.193 11.8758 26.0877 12.9975 24.8263 12.9832C24.2129 12.972 23.6285 12.714 23.1994 12.265C22.7704 11.8161 22.531 11.2122 22.5332 10.584Z" fill="#0D0D0D"/>
  <path d="M23.045 7.15686C23.0444 7.46987 22.9532 7.77566 22.7828 8.03555C22.6125 8.29544 22.3707 8.49775 22.088 8.61688C21.8054 8.73601 21.4946 8.7666 21.195 8.7048C20.8953 8.64299 20.6203 8.49156 20.4048 8.26966C20.1892 8.04776 20.0428 7.76537 19.9839 7.45821C19.9251 7.15105 19.9566 6.83293 20.0744 6.5441C20.1922 6.25527 20.391 6.0087 20.6456 5.8356C20.9003 5.6625 21.1994 5.57064 21.505 5.57165C21.7083 5.57042 21.9097 5.61065 22.0976 5.68998C22.2855 5.76931 22.4561 5.88616 22.5995 6.03371C22.7428 6.18126 22.856 6.35657 22.9325 6.5494C23.009 6.74224 23.0472 6.94874 23.045 7.15686Z" fill="#0D0D0D"/>
  <path d="M26.1617 15.4965C26.1596 15.834 26.0597 16.1632 25.8749 16.4425C25.69 16.7219 25.4284 16.9389 25.1232 17.066C24.818 17.1931 24.4828 17.2247 24.16 17.1568C23.8372 17.0889 23.5413 16.9244 23.3098 16.6843C23.0783 16.4442 22.9214 16.1392 22.8591 15.8078C22.7969 15.4765 22.8319 15.1336 22.9599 14.8226C23.0878 14.5117 23.303 14.2465 23.578 14.0607C23.8531 13.875 24.1758 13.7769 24.5053 13.7789C24.9474 13.7818 25.3702 13.9644 25.6808 14.2865C25.9914 14.6086 26.1644 15.0438 26.1617 15.4965Z" fill="#0D0D0D"/>
  <path d="M21.5208 1.61067C21.7296 1.60771 21.9369 1.64801 22.1301 1.72917C22.3233 1.81032 22.4985 1.93064 22.6451 2.08291C22.7918 2.23517 22.9068 2.41623 22.9834 2.6152C23.06 2.81416 23.0964 3.02693 23.0907 3.24071C23.0906 3.56405 22.9967 3.88007 22.8208 4.14859C22.6449 4.41711 22.395 4.626 22.1029 4.74869C21.8108 4.87138 21.4896 4.90232 21.1803 4.83759C20.8709 4.77285 20.5874 4.61537 20.3657 4.38516C20.144 4.15494 19.9941 3.86241 19.9352 3.54475C19.8763 3.22709 19.9109 2.89866 20.0348 2.60123C20.1586 2.3038 20.366 2.05081 20.6306 1.87442C20.8953 1.69804 21.2051 1.60623 21.5208 1.61067Z" fill="#0D0D0D"/>
  <path d="M20.7814 15.1522C20.4688 15.1473 20.1646 15.0477 19.9072 14.8659C19.6498 14.6841 19.4509 14.4282 19.3354 14.1307C19.22 13.8331 19.1932 13.5072 19.2586 13.194C19.3239 12.8809 19.4784 12.5947 19.7025 12.3714C19.9266 12.1481 20.2103 11.9979 20.5178 11.9397C20.8252 11.8815 21.1426 11.9178 21.4299 12.0443C21.7171 12.1707 21.9614 12.3814 22.1317 12.6499C22.3021 12.9184 22.3909 13.2325 22.387 13.5527C22.3792 13.9822 22.2061 14.3911 21.9055 14.6906C21.6048 14.9901 21.2008 15.156 20.7814 15.1522Z" fill="#0D0D0D"/>
  <path d="M22.6252 17.152C22.9066 17.1624 23.1788 17.2577 23.4074 17.4261C23.6361 17.5944 23.811 17.8283 23.9102 18.0982C24.0093 18.3681 24.0284 18.662 23.9648 18.943C23.9012 19.2239 23.758 19.4794 23.553 19.6771C23.348 19.8749 23.0905 20.0061 22.8129 20.0544C22.5352 20.1026 22.2498 20.0657 21.9926 19.9482C21.7354 19.8308 21.5179 19.638 21.3674 19.3943C21.2169 19.1505 21.1402 18.8666 21.1469 18.5783C21.15 18.3845 21.1911 18.1933 21.2675 18.0159C21.344 17.8386 21.4544 17.6787 21.5922 17.5458C21.73 17.4128 21.8924 17.3095 22.0698 17.2419C22.2472 17.1743 22.4361 17.1437 22.6252 17.152Z" fill="#0D0D0D"/>
  <path d="M30.9074 13.1442C30.9075 13.4983 30.7722 13.8384 30.5305 14.0916C30.2888 14.3449 29.9599 14.4912 29.6142 14.4991C29.2711 14.4914 28.9445 14.3468 28.704 14.0962C28.4634 13.8455 28.3279 13.5087 28.3262 13.1572C28.3245 12.8058 28.4568 12.4676 28.6949 12.2146C28.9331 11.9616 29.2583 11.8137 29.6012 11.8025C29.9473 11.8059 30.2782 11.9485 30.5225 12.1995C30.7669 12.4505 30.9051 12.7898 30.9074 13.1442Z" fill="#0D0D0D"/>
  <path d="M24.9288 6.79418C24.6717 6.79056 24.4213 6.70904 24.2094 6.55991C23.9974 6.41079 23.8333 6.20073 23.7378 5.95622C23.6422 5.71171 23.6195 5.44371 23.6725 5.186C23.7254 4.92829 23.8518 4.69242 24.0355 4.50812C24.2192 4.32382 24.452 4.19935 24.7047 4.1504C24.9574 4.10146 25.2186 4.13022 25.4553 4.23308C25.6921 4.33593 25.8938 4.50827 26.035 4.72836C26.1763 4.94844 26.2507 5.20643 26.249 5.46978C26.2399 5.82287 26.0971 6.15851 25.8507 6.40569C25.6043 6.65286 25.2737 6.79219 24.9288 6.79418Z" fill="#0D0D0D"/>
  <path d="M25.9647 17.4709C26.3049 17.4715 26.6316 17.6074 26.8758 17.8499C27.1201 18.0925 27.2628 18.4226 27.2739 18.7709C27.2898 19.4585 26.677 20.1024 25.9916 20.1116C25.6517 20.1074 25.3268 19.9681 25.0854 19.723C24.8441 19.4779 24.7052 19.1463 24.6983 18.7984C24.6954 18.4507 24.8269 18.1159 25.0642 17.8672C25.3015 17.6185 25.6252 17.476 25.9647 17.4709Z" fill="#0D0D0D"/>
  <path d="M32.6698 16.5214C32.6696 16.7573 32.6012 16.9878 32.4733 17.184C32.3454 17.3801 32.1637 17.5332 31.951 17.6237C31.7383 17.7143 31.5043 17.7384 31.2782 17.693C31.0522 17.6476 30.8444 17.5347 30.6809 17.3686C30.5174 17.2024 30.4056 16.9905 30.3595 16.7593C30.3134 16.5282 30.3352 16.2883 30.422 16.0699C30.5089 15.8514 30.6569 15.6641 30.8474 15.5316C31.038 15.3992 31.2626 15.3274 31.4929 15.3254C31.8034 15.3256 32.1013 15.4514 32.3217 15.6754C32.5421 15.8994 32.6672 16.2035 32.6698 16.5214Z" fill="#0D0D0D"/>
  <path d="M17.2539 9.85356C17.2596 9.51894 17.3927 9.19983 17.6248 8.96424C17.8569 8.72864 18.1697 8.59519 18.4964 8.59232C19.1351 8.60658 19.7101 9.20358 19.7091 9.85356C19.7003 10.1879 19.5646 10.5055 19.3307 10.7389C19.0968 10.9724 18.7832 11.1032 18.4567 11.1036C18.1369 11.0959 17.8326 10.9612 17.6082 10.7279C17.3837 10.4946 17.2567 10.1811 17.2539 9.85356Z" fill="#0D0D0D"/>
  <path d="M18.6224 6.95311C18.6248 7.25777 18.5096 7.55107 18.3018 7.76916C18.0941 7.98725 17.8106 8.11247 17.5131 8.11757C17.2216 8.10824 16.9444 7.98603 16.7374 7.77559C16.5305 7.56514 16.4091 7.28214 16.398 6.98367C16.3791 6.37241 16.9073 5.83042 17.5231 5.83246C17.6675 5.8307 17.8108 5.85844 17.9447 5.91407C18.0785 5.9697 18.2001 6.0521 18.3025 6.15644C18.4048 6.26079 18.4858 6.38499 18.5408 6.52178C18.5957 6.65857 18.6234 6.80521 18.6224 6.95311Z" fill="#0D0D0D"/>
  <path d="M17.1981 14.1548C16.8943 14.1536 16.603 14.031 16.3862 13.8131C16.1693 13.5952 16.0441 13.2993 16.0371 12.9883C16.0432 12.6705 16.1691 12.3675 16.3885 12.1427C16.6079 11.9178 16.9037 11.7886 17.214 11.7821C17.3689 11.7787 17.523 11.8071 17.667 11.8657C17.811 11.9243 17.9421 12.0119 18.0525 12.1233C18.1629 12.2347 18.2503 12.3676 18.3097 12.5142C18.369 12.6608 18.399 12.8181 18.398 12.9768C18.3969 13.1355 18.3648 13.2924 18.3035 13.4382C18.2422 13.5839 18.1529 13.7156 18.0411 13.8255C17.9292 13.9353 17.7969 14.021 17.6521 14.0776C17.5074 14.1342 17.3529 14.1604 17.1981 14.1548Z" fill="#0D0D0D"/>
  <path d="M28.2851 8.30197C28.0882 8.30577 27.8947 8.24968 27.729 8.1408C27.5633 8.03191 27.4329 7.87513 27.3543 7.69031C27.2757 7.50548 27.2523 7.30091 27.2873 7.1025C27.3222 6.90409 27.4139 6.72077 27.5506 6.57573C27.6874 6.43069 27.8631 6.33047 28.0555 6.28774C28.2479 6.24502 28.4483 6.26171 28.6315 6.33572C28.8146 6.40972 28.9722 6.5377 29.0842 6.70346C29.1963 6.86923 29.2578 7.06531 29.261 7.26689C29.2589 7.53466 29.1565 7.79139 28.9749 7.98402C28.7933 8.17666 28.5463 8.29048 28.2851 8.30197Z" fill="#0D0D0D"/>
  <path d="M28.9117 16.3024C28.9101 16.4366 28.8828 16.5691 28.8312 16.6925C28.7796 16.8158 28.7048 16.9276 28.611 17.0213C28.5172 17.1151 28.4064 17.189 28.2847 17.2389C28.1631 17.2887 28.033 17.3136 27.902 17.312C27.7709 17.3104 27.6415 17.2823 27.521 17.2295C27.4006 17.1767 27.2914 17.1001 27.1999 17.004C27.1084 16.908 27.0362 16.7945 26.9875 16.6699C26.9388 16.5453 26.9145 16.4121 26.9161 16.2779C26.928 15.7298 27.3896 15.253 27.9109 15.253C28.1778 15.2617 28.431 15.3758 28.6176 15.5714C28.8041 15.767 28.9095 16.029 28.9117 16.3024Z" fill="#0D0D0D"/>
  <path d="M18.9824 16.7608C18.9942 16.5009 19.1006 16.255 19.2807 16.0715C19.4608 15.888 19.7015 15.7802 19.9554 15.7696C20.2093 15.7767 20.4509 15.8831 20.6307 16.0668C20.8105 16.2506 20.9148 16.4978 20.9223 16.7578C20.9223 17.2753 20.4538 17.7592 19.9554 17.7541C19.7013 17.7429 19.4606 17.6348 19.2805 17.451C19.1005 17.2671 18.9941 17.0209 18.9824 16.7608Z" fill="#0D0D0D"/>
  <path d="M29.7993 18.5671C29.7965 18.7722 29.7151 18.968 29.5728 19.1124C29.4305 19.2568 29.2386 19.3383 29.0383 19.3393C28.838 19.3318 28.6481 19.246 28.5076 19.0995C28.3672 18.9531 28.2869 18.7571 28.2832 18.5518C28.2889 18.3408 28.3743 18.1403 28.5214 17.9924C28.6685 17.8446 28.866 17.761 29.0721 17.7592C29.2713 17.7728 29.4579 17.8642 29.5932 18.0145C29.7285 18.1648 29.8023 18.3627 29.7993 18.5671Z" fill="#0D0D0D"/>
  <path d="M21.7798 16.6172C22.0903 16.6172 22.3419 16.3595 22.3419 16.0416C22.3419 15.7237 22.0903 15.466 21.7798 15.466C21.4694 15.466 21.2178 15.7237 21.2178 16.0416C21.2178 16.3595 21.4694 16.6172 21.7798 16.6172Z" fill="#0D0D0D"/>
  <path d="M18.1011 16.2586C18.5879 16.2586 18.9826 15.8544 18.9826 15.3559C18.9826 14.8574 18.5879 14.4533 18.1011 14.4533C17.6143 14.4533 17.2197 14.8574 17.2197 15.3559C17.2197 15.8544 17.6143 16.2586 18.1011 16.2586Z" fill="#0D0D0D"/>
  <path d="M26.9162 14.4992C27.3024 14.4992 27.6155 14.1785 27.6155 13.783C27.6155 13.3874 27.3024 13.0668 26.9162 13.0668C26.5299 13.0668 26.2168 13.3874 26.2168 13.783C26.2168 14.1785 26.5299 14.4992 26.9162 14.4992Z" fill="#0D0D0D"/>
  <path d="M28.1682 5.0694C28.5583 5.0694 28.8746 4.74555 28.8746 4.34607C28.8746 3.94659 28.5583 3.62274 28.1682 3.62274C27.7781 3.62274 27.4619 3.94659 27.4619 4.34607C27.4619 4.74555 27.7781 5.0694 28.1682 5.0694Z" fill="#0D0D0D"/>
  <path d="M18.444 5.11626C18.788 5.11626 19.0668 4.83073 19.0668 4.47851C19.0668 4.12629 18.788 3.84076 18.444 3.84076C18.1001 3.84076 17.8213 4.12629 17.8213 4.47851C17.8213 4.83073 18.1001 5.11626 18.444 5.11626Z" fill="#0D0D0D"/>
  <path d="M16.0155 9.23924C16.2474 9.23924 16.4353 9.04676 16.4353 8.80932C16.4353 8.57188 16.2474 8.37939 16.0155 8.37939C15.7837 8.37939 15.5957 8.57188 15.5957 8.80932C15.5957 9.04676 15.7837 9.23924 16.0155 9.23924Z" fill="#0D0D0D"/>
  <path d="M15.944 11.4826C16.3171 11.4826 16.6195 11.1729 16.6195 10.7908C16.6195 10.4088 16.3171 10.0991 15.944 10.0991C15.571 10.0991 15.2686 10.4088 15.2686 10.7908C15.2686 11.1729 15.571 11.4826 15.944 11.4826Z" fill="#0D0D0D"/>
  <path d="M30.6357 3.39251C30.8983 3.39251 31.1112 3.17448 31.1112 2.90554C31.1112 2.63659 30.8983 2.41856 30.6357 2.41856C30.3731 2.41856 30.1602 2.63659 30.1602 2.90554C30.1602 3.17448 30.3731 3.39251 30.6357 3.39251Z" fill="#0D0D0D"/>
  <path d="M27.9642 2.70484C28.4153 2.70484 28.781 2.33036 28.781 1.86842C28.781 1.40649 28.4153 1.03201 27.9642 1.03201C27.5131 1.03201 27.1475 1.40649 27.1475 1.86842C27.1475 2.33036 27.5131 2.70484 27.9642 2.70484Z" fill="#0D0D0D"/>
  <path d="M24.9339 3.05834C25.53 3.05834 26.0133 2.56345 26.0133 1.95298C26.0133 1.3425 25.53 0.84761 24.9339 0.84761C24.3377 0.84761 23.8545 1.3425 23.8545 1.95298C23.8545 2.56345 24.3377 3.05834 24.9339 3.05834Z" fill="#0D0D0D"/>
  <path d="M28.9612 10.7847C29.2914 10.7847 29.5591 10.5106 29.5591 10.1724C29.5591 9.83428 29.2914 9.56015 28.9612 9.56015C28.631 9.56015 28.3633 9.83428 28.3633 10.1724C28.3633 10.5106 28.631 10.7847 28.9612 10.7847Z" fill="#0D0D0D"/>
  <path d="M20.9796 11.3002C21.4532 11.3002 21.8371 10.907 21.8371 10.422C21.8371 9.93703 21.4532 9.54385 20.9796 9.54385C20.506 9.54385 20.1221 9.93703 20.1221 10.422C20.1221 10.907 20.506 11.3002 20.9796 11.3002Z" fill="#0D0D0D"/>
  <path d="M16.6302 14.6886C16.4462 14.4778 12.9275 16.5418 11.2244 17.587C9.81868 18.4958 8.49059 19.3597 7.20727 20.4396C6.10941 21.365 5.08117 22.3737 4.13127 23.4572C2.77632 24.9487 2.02821 26.106 1.1468 27.8165C-0.322557 30.6772 -0.0619122 33.758 0.214649 35.0844C0.421496 36.012 0.766064 36.9015 1.23633 37.722C1.99041 39.0801 3.00811 40.2221 4.11237 41.2816C5.09525 42.224 6.14082 43.0971 7.17742 43.9773C7.81311 44.5162 8.44284 45.0633 9.03973 45.6491C9.42871 46.0311 9.84355 46.3857 10.1798 46.8217C10.2115 46.8627 10.2564 46.8909 10.3064 46.9013C10.3565 46.9117 10.4085 46.9038 10.4534 46.8788C11.5666 46.4926 12.7216 46.4387 13.8786 46.4876C14.8535 46.5283 15.8254 46.6281 16.7944 46.7647C17.436 46.8553 18.0747 46.9817 18.7253 46.9939C18.8149 46.9939 18.9333 47.0204 18.9681 46.9073C19.0029 46.7942 18.8885 46.7524 18.8159 46.6984C18.219 46.2583 17.5574 45.9272 16.9197 45.5574C15.5926 44.7862 14.2556 44.0293 12.9404 43.2326C11.6253 42.4359 10.327 41.6504 9.07654 40.7671C8.00849 40.0298 6.99288 39.2158 6.03735 38.3313C5.15594 37.4979 4.38992 36.58 3.81094 35.5062C3.32733 34.5837 3.02485 33.573 2.92057 32.5314C2.76206 30.7566 2.97784 28.9677 3.55328 27.2857C4.03875 25.887 4.78586 24.6369 5.67026 23.4704C6.36664 22.5536 7.16946 21.7548 8.00909 20.9745C9.68239 19.4188 11.5298 18.1239 13.4627 16.9371C14.7649 16.1373 16.8113 14.8995 16.6302 14.6886Z" fill="#0D0D0D"/>
</svg>